<?xml version="1.0" encoding="UTF-8"?>
<svg width="22" height="22" version="1" xmlns="http://www.w3.org/2000/svg">
 <rect x="1" y="8.5" width="20" height="12" rx="1" ry="1" opacity=".2"/>
 <path d="m1 16c0 0.554 0.446 1 1 1h18c0.554 0 1-0.446 1-1v-11c0-0.554-0.446-1-1-1h-9c-1.5 0-2-2-3.5-2h-5.5c-0.554 0-1 0.446-1 1" fill="#076678"/>
 <rect x="1" y="7.5" width="20" height="12" rx="1" ry="1" opacity=".2"/>
 <rect x="3" y="6" width="16" height="8" rx="1" ry="1" fill="#d3d5b8"/>
 <rect x="1" y="8" width="20" height="12" rx="1" ry="1" fill="#83a598"/>
 <path d="m2 2c-0.554 0-1 0.446-1 1v0.5c0-0.554 0.446-1 1-1h5.5c1.5 0 2 2 3.5 2h9c0.554 0 1 0.446 1 1v-0.5c0-0.554-0.446-1-1-1h-9c-1.5 0-2-2-3.5-2z" fill="#d3d5b8" opacity=".1"/>
 <path d="m11 10.13c-2.216 0-4 1.784-4 4 0 1.7865 1.16 3.2901 2.7705 3.8066v-0.93057c-1.0125 0.22344-1.2256-0.44531-1.2256-0.44531-0.1656-0.42731-0.4043-0.54102-0.4043-0.54102-0.33052-0.22928 0.02442-0.22559 0.02442-0.22559 0.36536 0.02609 0.55762 0.38184 0.55762 0.38184 0.3247 0.56516 0.8522 0.4023 1.0596 0.30762 0.03308-0.23886 0.12754-0.30319 0.23145-0.3956-0.80825-0.09335-1.4732-0.80187-1.5088-1.528-0.02175-0.44363 0.36227-0.93387 0.59512-1.1922-0.03755-0.09355-0.16304-0.86972 0.03515-1.3788 0 0 0.0191-6e-3 0.05859-0.0078 0.11845-0.0055 0.3849 0.31884 0.90625 0.67779 0.31477-0.09043 0.64852-0.13272 0.9-0.13477 0.28357-0.0023 0.56992 0.04644 0.86581 0.13477 0.5215-0.35895 0.85466-0.68427 0.97266-0.67877h1e-3c0.03945 0.0018 0.05859 0.0078 0.05859 0.0078 0.19866 0.50903 0.07345 1.2862 0.03614 1.3798 0.23326 0.2584 0.57003 0.75235 0.5658 1.1922-0.0089 0.93044-0.85043 1.4336-1.6611 1.5251 0.1305 0.1142 0.16309 0.34064 0.16309 0.68555 0 0.41656-1e-3 0.68732-2e-3 0.85938v0.37012c1.7283-0.44234 3-2.0002 3-3.8701 0-2.216-1.784-4-4-4z" fill="#2e3b3b"/>
</svg>
