<?xml version="1.0" encoding="UTF-8"?>
<svg width="22" height="22" version="1" xmlns="http://www.w3.org/2000/svg">
 <rect x="1" y="8.5" width="20" height="12" rx="1" ry="1" opacity=".2"/>
 <path d="m1 16c0 0.554 0.446 1 1 1h18c0.554 0 1-0.446 1-1v-11c0-0.554-0.446-1-1-1h-9c-1.5 0-2-2-3.5-2h-5.5c-0.554 0-1 0.446-1 1" fill="#b57614"/>
 <rect x="1" y="7.5" width="20" height="12" rx="1" ry="1" opacity=".2"/>
 <rect x="3" y="6" width="16" height="8" rx="1" ry="1" fill="#f3deaa"/>
 <rect x="1" y="8" width="20" height="12" rx="1" ry="1" fill="#fabd2f"/>
 <path d="m2 2c-0.554 0-1 0.446-1 1v0.5c0-0.554 0.446-1 1-1h5.5c1.5 0 2 2 3.5 2h9c0.554 0 1 0.446 1 1v-0.5c0-0.554-0.446-1-1-1h-9c-1.5 0-2-2-3.5-2z" fill="#f3deaa" opacity=".1"/>
 <path d="m4 14.255 3.0507 1.761c-0.0326 0.159-0.0496 0.321-0.0508 0.484 0 1.381 1.1193 2.5 2.5001 2.5 1.381 0 2.5-1.119 2.5-2.5-1e-3 -0.105-8e-3 -0.21-0.022-0.314l2.598-2.219c0.14 0.021 0.282 0.032 0.424 0.033 1.657 0 3-1.343 3-3s-1.343-3-3-3c-1.566 4e-4 -2.868 1.205-2.99 2.766l-2.098 3.269c-0.136-0.023-0.274-0.035-0.412-0.035-0.459 1e-3 -0.9094 0.129-1.3009 0.369l-4.1991-2.424m11-2.945c1.105 0 2 0.895 2 2s-0.895 2-2 2-2-0.895-2-2 0.895-2 2-2zm0 1c-0.552 0-1 0.448-1 1s0.448 1 1 1 1-0.448 1-1-0.448-1-1-1zm-5.539 5h0.039c0.828 0 1.5 0.672 1.5 1.5s-0.672 1.5-1.5 1.5c-0.8026 0-1.4629-0.632-1.4982-1.434l0.4981 0.288c0.4955 0.286 1.1171 0.13 1.3941-0.35s0.101-1.097-0.394-1.383l-0.188-0.107c0.049-7e-3 0.099-0.012 0.149-0.014z" fill="#473c29"/>
</svg>
