<?xml version="1.0" encoding="UTF-8"?>
<svg width="22" height="22" version="1" xmlns="http://www.w3.org/2000/svg">
 <rect x="1" y="8.5" width="20" height="12" rx="1" ry="1" opacity=".2"/>
 <path d="m1 16c0 0.554 0.446 1 1 1h18c0.554 0 1-0.446 1-1v-11c0-0.554-0.446-1-1-1h-9c-1.5 0-2-2-3.5-2h-5.5c-0.554 0-1 0.446-1 1" fill="#79740e"/>
 <rect x="1" y="7.5" width="20" height="12" rx="1" ry="1" opacity=".2"/>
 <rect x="3" y="6" width="16" height="8" rx="1" ry="1" fill="#d7d9ae"/>
 <rect x="1" y="8" width="20" height="12" rx="1" ry="1" fill="#b8bb26"/>
 <path d="m2 2c-0.554 0-1 0.446-1 1v0.5c0-0.554 0.446-1 1-1h5.5c1.5 0 2 2 3.5 2h9c0.554 0 1 0.446 1 1v-0.5c0-0.554-0.446-1-1-1h-9c-1.5 0-2-2-3.5-2z" fill="#d7d9ae" opacity=".1"/>
 <path d="m10.733 11a2.6667 2.7273 0 0 0-2.5233 1.853 2.1333 2.1818 0 0 0-1.2096 1.965 2.1333 2.1818 0 0 0 2.1333 2.182 2.1333 2.1818 0 0 0 1.4176-0.555 2.6667 2.7273 0 0 0 0.182 0.01 2.6667 2.7273 0 0 0 1.127-0.26 2.1333 2.1818 0 0 0 1.007 0.26 2.1333 2.1818 0 0 0 2.133-2.182 2.1333 2.1818 0 0 0-2.134-2.182 2.1333 2.1818 0 0 0-4e-3 0 2.6667 2.7273 0 0 0-2.129-1.091z" fill="#333e34"/>
</svg>
