<?xml version="1.0" encoding="UTF-8"?>
<svg width="22" height="22" version="1" xmlns="http://www.w3.org/2000/svg">
 <rect x="1" y="8.5" width="20" height="12" rx="1" ry="1" opacity=".2"/>
 <path d="m1 16c0 0.554 0.446 1 1 1h18c0.554 0 1-0.446 1-1v-11c0-0.554-0.446-1-1-1h-9c-1.5 0-2-2-3.5-2h-5.5c-0.554 0-1 0.446-1 1" fill="#af2528"/>
 <rect x="1" y="7.5" width="20" height="12" rx="1" ry="1" opacity=".2"/>
 <rect x="3" y="6" width="16" height="8" rx="1" ry="1" fill="#f1d9b5"/>
 <rect x="1" y="8" width="20" height="12" rx="1" ry="1" fill="#f2594b"/>
 <path d="m2 2c-0.554 0-1 0.446-1 1v0.5c0-0.554 0.446-1 1-1h5.5c1.5 0 2 2 3.5 2h9c0.554 0 1 0.446 1 1v-0.5c0-0.554-0.446-1-1-1h-9c-1.5 0-2-2-3.5-2z" fill="#f1d9b5" opacity=".1"/>
 <path d="m11 10c-0.75484 0.0016-1.4889 0.24723-2.0928 0.7002l0.71582 0.71582c0.40832-0.27057 0.88712-0.41523 1.377-0.41602 1.2095 0 2.2186 0.85885 2.4502 2h-0.9502l1.5 2.5 1.5-2.5h-1.04c-0.24335-1.6953-1.6973-3-3.46-3zm-3 1.5-1.5 2.5h1.04c0.24335 1.6953 1.6973 3 3.46 3 0.75484-0.0016 1.4889-0.24723 2.0928-0.7002l-0.71582-0.71582c-0.40832 0.27057-0.88712 0.41523-1.377 0.41602-1.2095 0-2.2186-0.85885-2.4502-2h0.9502z" fill="#4c3432"/>
</svg>
