<?xml version="1.0" encoding="UTF-8"?>
<svg width="22" height="22" version="1" xmlns="http://www.w3.org/2000/svg">
 <rect x="1" y="8.5" width="20" height="12" rx="1" ry="1" opacity=".2"/>
 <path d="m1 16c0 0.554 0.446 1 1 1h18c0.554 0 1-0.446 1-1v-11c0-0.554-0.446-1-1-1h-9c-1.5 0-2-2-3.5-2h-5.5c-0.554 0-1 0.446-1 1" fill="#af3a03"/>
 <rect x="1" y="7.5" width="20" height="12" rx="1" ry="1" opacity=".2"/>
 <rect x="3" y="6" width="16" height="8" rx="1" ry="1" fill="#F1D8AF"/>
 <rect x="1" y="8" width="20" height="12" rx="1" ry="1" fill="#fe8019"/>
 <path d="m2 2c-0.554 0-1 0.446-1 1v0.5c0-0.554 0.446-1 1-1h5.5c1.5 0 2 2 3.5 2h9c0.554 0 1 0.446 1 1v-0.5c0-0.554-0.446-1-1-1h-9c-1.5 0-2-2-3.5-2z" fill="#F1D8AF" opacity=".1"/>
 <path d="m10 14.088c-0.161-0.057-0.33-0.087-0.5-0.088-0.828 0-1.5 0.672-1.5 1.5 0 0.829 0.672 1.5 1.5 1.5s1.5-0.671 1.5-1.5v-3.5h3v2.088c-0.161-0.057-0.33-0.087-0.5-0.088-0.828 0-1.5 0.672-1.5 1.5 0 0.829 0.672 1.5 1.5 1.5s1.5-0.671 1.5-1.5v-5c0-0.277-0.334-0.5-0.75-0.5h-3.5c-0.416 0-0.75 0.223-0.75 0.5" fill="#46352B"/>
</svg>
