<?xml version="1.0" encoding="UTF-8"?>
<svg width="22" height="22" version="1" xmlns="http://www.w3.org/2000/svg">
 <rect x="1" y="8.5" width="20" height="12" rx="1" ry="1" opacity=".2"/>
 <path d="m1 16c0 0.554 0.446 1 1 1h18c0.554 0 1-0.446 1-1v-11c0-0.554-0.446-1-1-1h-9c-1.5 0-2-2-3.5-2h-5.5c-0.554 0-1 0.446-1 1" fill="#9d0006"/>
 <rect x="1" y="7.5" width="20" height="12" rx="1" ry="1" opacity=".2"/>
 <rect x="3" y="6" width="16" height="8" rx="1" ry="1" fill="#efd2b3"/>
 <rect x="1" y="8" width="20" height="12" rx="1" ry="1" fill="#fb4934"/>
 <path d="m2 2c-0.554 0-1 0.446-1 1v0.5c0-0.554 0.446-1 1-1h5.5c1.5 0 2 2 3.5 2h9c0.554 0 1 0.446 1 1v-0.5c0-0.554-0.446-1-1-1h-9c-1.5 0-2-2-3.5-2z" fill="#efd2b3" opacity=".1"/>
 <path d="m8 10v1.5h6v-1.5zm-0.5 2c-0.25 0-0.5 0.25-0.5 0.5v2c0 0.25 0.25 0.5 0.5 0.5h0.5v2h6v-2h0.5c0.25 0 0.5-0.25 0.5-0.5v-2c0-0.25-0.25-0.5-0.5-0.5zm0.5 2h6v0.5h-6z" fill="#442e2d"/>
</svg>
