<?xml version="1.0" encoding="UTF-8"?>
<svg width="22" height="22" version="1" xmlns="http://www.w3.org/2000/svg">
 <rect x="1" y="8.5" width="20" height="12" rx="1" ry="1" opacity=".2"/>
 <path d="m1 16c0 0.554 0.446 1 1 1h18c0.554 0 1-0.446 1-1v-11c0-0.554-0.446-1-1-1h-9c-1.5 0-2-2-3.5-2h-5.5c-0.554 0-1 0.446-1 1" fill="#9d0006"/>
 <rect x="1" y="7.5" width="20" height="12" rx="1" ry="1" opacity=".2"/>
 <rect x="3" y="6" width="16" height="8" rx="1" ry="1" fill="#efd2b3"/>
 <rect x="1" y="8" width="20" height="12" rx="1" ry="1" fill="#fb4934"/>
 <path d="m2 2c-0.554 0-1 0.446-1 1v0.5c0-0.554 0.446-1 1-1h5.5c1.5 0 2 2 3.5 2h9c0.554 0 1 0.446 1 1v-0.5c0-0.554-0.446-1-1-1h-9c-1.5 0-2-2-3.5-2z" fill="#efd2b3" opacity=".1"/>
 <path d="m10.546 11.023c-1.7778 0-1.3642 1.624-2.2745 2.113-0.0313 0.018-0.049 0.035-0.0771 0.052 0.6003-0.357 1.3402-0.656 2.1256-0.858 0.666-0.171 1.341-0.267 1.963-0.28h0.048c-0.6-0.17-0.666-1.027-1.785-1.027zm1.938 1.478c-0.623 0.012-1.298 0.108-1.963 0.279-2.1937 0.564-3.7568 1.792-3.4917 2.741 0.1528 0.543 0.8888 0.901 1.9854 0.966-5e-4 -4e-3 -0.0015-7e-3 -2e-3 -0.012-0.0592-0.513 0.2666-0.96 0.6485-1.262 0.3818-0.303 0.8728-0.523 1.4248-0.64s1.068-0.111 1.5 0.019c0.406 0.122 0.788 0.388 0.882 0.846 1.099-0.616 1.669-1.359 1.504-1.96-0.175-0.629-1.129-1.004-2.488-0.977zm-0.653 2.499a0.92931 1.7885 76.001 0 0-0.688 0.071 0.92931 1.7885 76.001 0 0-1.64 1.3 0.92931 1.7885 76.001 0 0 1.855 0.558 0.92931 1.7885 76.001 0 0 1.638-1.3 0.92931 1.7885 76.001 0 0-1.165-0.629z" fill="#442e2d"/>
</svg>
