<?xml version="1.0" encoding="UTF-8"?>
<svg width="22" height="22" version="1" xmlns="http://www.w3.org/2000/svg">
 <rect x="1" y="8.5" width="20" height="12" rx="1" ry="1" opacity=".2"/>
 <path d="m1 16c0 0.554 0.446 1 1 1h18c0.554 0 1-0.446 1-1v-11c0-0.554-0.446-1-1-1h-9c-1.5 0-2-2-3.5-2h-5.5c-0.554 0-1 0.446-1 1" fill="#b57614"/>
 <rect x="1" y="7.5" width="20" height="12" rx="1" ry="1" opacity=".2"/>
 <rect x="3" y="6" width="16" height="8" rx="1" ry="1" fill="#f3deaa"/>
 <rect x="1" y="8" width="20" height="12" rx="1" ry="1" fill="#fabd2f"/>
 <path d="m2 2c-0.554 0-1 0.446-1 1v0.5c0-0.554 0.446-1 1-1h5.5c1.5 0 2 2 3.5 2h9c0.554 0 1 0.446 1 1v-0.5c0-0.554-0.446-1-1-1h-9c-1.5 0-2-2-3.5-2z" fill="#f3deaa" opacity=".1"/>
 <path d="m9.5 11s-0.5 0.5-0.5 1.5c0 1.2094 0.85892 2.2175 2 2.4492v2.0508h-1v1h3v-1h-1v-2.0508c1.1411-0.23167 2-1.2398 2-2.4492 0-1-0.5-1.5-0.5-1.5z" fill="#473c29"/>
</svg>
