<?xml version="1.0" encoding="UTF-8"?>
<svg width="22" height="22" version="1" xmlns="http://www.w3.org/2000/svg">
 <rect x="1" y="8.5" width="20" height="12" rx="1" ry="1" opacity=".2"/>
 <path d="m1 16c0 0.554 0.446 1 1 1h18c0.554 0 1-0.446 1-1v-11c0-0.554-0.446-1-1-1h-9c-1.5 0-2-2-3.5-2h-5.5c-0.554 0-1 0.446-1 1" fill="#c14a4a"/>
 <rect x="1" y="7.5" width="20" height="12" rx="1" ry="1" opacity=".2"/>
 <rect x="3" y="6" width="16" height="8" rx="1" ry="1" fill="#f0ddc3"/>
 <rect x="1" y="8" width="20" height="12" rx="1" ry="1" fill="#ea6962"/>
 <path d="m2 2c-0.554 0-1 0.446-1 1v0.5c0-0.554 0.446-1 1-1h5.5c1.5 0 2 2 3.5 2h9c0.554 0 1 0.446 1 1v-0.5c0-0.554-0.446-1-1-1h-9c-1.5 0-2-2-3.5-2z" fill="#f0ddc3" opacity=".1"/>
 <path d="m11.5 10c-1.933 0-3.5 1.567-3.5 3.5s1.567 3.5 3.5 3.5h9.5v-1h-9.5c-1.3807 0-2.5-1.1193-2.5-2.5s1.1193-2.5 2.5-2.5c0.34423 3.94e-4 0.68468 0.07089 1 0.20898v-1.0605c-0.32434-0.09794-0.66119-0.1473-1-0.14844zm0 2c-0.82843 0-1.5 0.67157-1.5 1.5s0.67157 1.5 1.5 1.5h9.5v-1h-6.5-1.5879-1.4121c-0.27614 0-0.5-0.22386-0.5-0.5s0.22386-0.5 0.5-0.5h1.4082c-0.20659-0.58134-0.75599-1-1.4082-1z" fill="#543937"/>
</svg>
