<?xml version="1.0" encoding="UTF-8"?>
<svg width="22" height="22" version="1" xmlns="http://www.w3.org/2000/svg">
 <rect x="1" y="8.5" width="20" height="12" rx="1" ry="1" opacity=".2"/>
 <path d="m1 16c0 0.554 0.446 1 1 1h18c0.554 0 1-0.446 1-1v-11c0-0.554-0.446-1-1-1h-9c-1.5 0-2-2-3.5-2h-5.5c-0.554 0-1 0.446-1 1" fill="#b57614"/>
 <rect x="1" y="7.5" width="20" height="12" rx="1" ry="1" opacity=".2"/>
 <rect x="3" y="6" width="16" height="8" rx="1" ry="1" fill="#f3deaa"/>
 <rect x="1" y="8" width="20" height="12" rx="1" ry="1" fill="#fabd2f"/>
 <path d="m2 2c-0.554 0-1 0.446-1 1v0.5c0-0.554 0.446-1 1-1h5.5c1.5 0 2 2 3.5 2h9c0.554 0 1 0.446 1 1v-0.5c0-0.554-0.446-1-1-1h-9c-1.5 0-2-2-3.5-2z" fill="#f3deaa" opacity=".1"/>
 <path d="m11.88 15.037c-0.56 0.26-1.081 0.258-1.431 0.232-0.417-0.03-0.7528-0.144-0.9003-0.244-0.0909-0.061-0.2145-0.038-0.2761 0.053-0.0615 0.091-0.0377 0.215 0.0532 0.276 0.2371 0.161 0.6566 0.28 1.0952 0.312 0.074 5e-3 0.155 9e-3 0.243 9e-3 0.381 0 0.866-0.037 1.384-0.278 0.099-0.046 0.142-0.164 0.096-0.264-0.046-0.099-0.165-0.142-0.264-0.096zm2.21-0.295c0.019-1.727 0.196-4.9907-3.11-4.727-3.2645 0.263-2.3989 3.711-2.4476 4.866-0.0431 0.611-0.2459 1.358-0.5324 2.118h0.8824c0.0907-0.322 0.1574-0.641 0.1861-0.944 0.0532 0.037 0.1101 0.073 0.1709 0.107 0.0988 0.058 0.1836 0.136 0.2736 0.218 0.2101 0.191 0.4484 0.408 0.914 0.435 0.031 2e-3 0.063 3e-3 0.093 3e-3 0.471 0 0.793-0.206 1.052-0.372 0.124-0.079 0.231-0.147 0.332-0.18 0.287-0.09 0.537-0.235 0.724-0.419 0.029-0.029 0.056-0.058 0.082-0.089 0.104 0.382 0.247 0.812 0.405 1.241h1.884c-0.452-0.699-0.919-1.383-0.909-2.257zm-5.2416-0.939-1e-4 -1e-3c-0.0324-0.563 0.2373-1.037 0.6024-1.059 0.3651-0.021 0.6873 0.419 0.7193 0.983h1e-3c1e-3 0.03 2e-3 0.06 2e-3 0.09-0.116 0.029-0.22 0.071-0.3135 0.121-4e-4 -5e-3 -7e-4 -9e-3 -0.0011-0.013-0.0313-0.32-0.2021-0.562-0.3818-0.54-0.1795 0.022-0.2998 0.299-0.2686 0.619 0.0136 0.14 0.0538 0.265 0.1097 0.359-0.014 0.011-0.0533 0.04-0.0985 0.073-0.034 0.025-0.0753 0.055-0.1252 0.092-0.1359-0.179-0.229-0.435-0.2457-0.724zm3.6986 1.393c-0.013 0.298-0.403 0.578-0.762 0.69l-3e-3 1e-3c-0.149 0.049-0.283 0.134-0.424 0.225-0.237 0.151-0.483 0.309-0.837 0.309-0.024 0-0.048-1e-3 -0.071-3e-3 -0.325-0.019-0.4767-0.157-0.6689-0.332-0.1016-0.093-0.2065-0.188-0.3416-0.268l-0.0029-1e-3c-0.292-0.165-0.4732-0.37-0.4848-0.548-0.0057-0.089 0.0338-0.166 0.1175-0.229 0.182-0.136 0.304-0.225 0.3846-0.284 0.0897-0.066 0.1168-0.086 0.1367-0.105 0.0144-0.013 0.0298-0.028 0.0465-0.045 0.1672-0.162 0.4469-0.434 0.8759-0.434 0.263 0 0.553 0.101 0.862 0.3 0.146 0.095 0.273 0.139 0.434 0.194 0.11 0.038 0.235 0.081 0.403 0.153l3e-3 1e-3c0.156 0.065 0.341 0.182 0.332 0.376zm-0.086-0.7c-0.03-0.015-0.061-0.029-0.094-0.043-0.151-0.065-0.272-0.108-0.373-0.143 0.056-0.109 0.09-0.245 0.093-0.392 8e-3 -0.358-0.172-0.648-0.403-0.649-0.23-1e-3 -0.423 0.289-0.431 0.647v0.035c-0.142-0.065-0.282-0.112-0.418-0.142-1e-3 -0.013-2e-3 -0.027-2e-3 -0.04-0.013-0.653 0.387-1.192 0.894-1.206s0.928 0.504 0.942 1.156c5e-3 0.295-0.073 0.567-0.208 0.777z" fill="#473c29"/>
</svg>
