<?xml version="1.0" encoding="UTF-8"?>
<svg width="22" height="22" version="1" xmlns="http://www.w3.org/2000/svg">
 <rect x="1" y="8.5" width="20" height="12" rx="1" ry="1" opacity=".2"/>
 <path d="m1 16c0 0.554 0.446 1 1 1h18c0.554 0 1-0.446 1-1v-11c0-0.554-0.446-1-1-1h-9c-1.5 0-2-2-3.5-2h-5.5c-0.554 0-1 0.446-1 1" fill="#6c782e"/>
 <rect x="1" y="7.5" width="20" height="12" rx="1" ry="1" opacity=".2"/>
 <rect x="3" y="6" width="16" height="8" rx="1" ry="1" fill="#dde5c2"/>
 <rect x="1" y="8" width="20" height="12" rx="1" ry="1" fill="#a9b665"/>
 <path d="m2 2c-0.554 0-1 0.446-1 1v0.5c0-0.554 0.446-1 1-1h5.5c1.5 0 2 2 3.5 2h9c0.554 0 1 0.446 1 1v-0.5c0-0.554-0.446-1-1-1h-9c-1.5 0-2-2-3.5-2z" fill="#dde5c2" opacity=".1"/>
 <path d="m2 8c-0.554 0-1 0.446-1 1v0.654l17.918 10.346h1.082c0.554 0 1-0.446 1-1v-0.299l-18.537-10.701zm3.9277 0 15.072 8.701v-2.5l-10.742-6.201zm7.7953 0 7.277 4.201v-2.5l-2.947-1.701zm-12.723 3.654v2.5l10.125 5.846h4.328zm0 4.5v2.5l2.3301 1.346h4.3301z" fill="#424a3e"/>
</svg>
