<?xml version="1.0" encoding="UTF-8"?>
<svg width="22" height="22" version="1" xmlns="http://www.w3.org/2000/svg">
 <rect x="1" y="8.5" width="20" height="12" rx="1" ry="1" opacity=".2"/>
 <path d="m1 16c0 0.554 0.446 1 1 1h18c0.554 0 1-0.446 1-1v-11c0-0.554-0.446-1-1-1h-9c-1.5 0-2-2-3.5-2h-5.5c-0.554 0-1 0.446-1 1" fill="#45707a"/>
 <rect x="1" y="7.5" width="20" height="12" rx="1" ry="1" opacity=".2"/>
 <rect x="3" y="6" width="16" height="8" rx="1" ry="1" fill="#d9e1cc"/>
 <rect x="1" y="8" width="20" height="12" rx="1" ry="1" fill="#7daea3"/>
 <path d="m2 2c-0.554 0-1 0.446-1 1v0.5c0-0.554 0.446-1 1-1h5.5c1.5 0 2 2 3.5 2h9c0.554 0 1 0.446 1 1v-0.5c0-0.554-0.446-1-1-1h-9c-1.5 0-2-2-3.5-2z" fill="#d9e1cc" opacity=".1"/>
 <path d="m14.084 9c-2.221 0-2.638 3-1.389 3 1.25 0 3.61-3 1.389-3zm-3.471 0.5c-0.023 0-0.048 0.0025-0.074 0.0059-0.8475 0.136-0.5485 1.9601-0.098 1.9941 0.437 0.033 0.913-1.9931 0.174-2zm-1.5442 0.5c-0.0604-0.0047-0.1268 9e-3 -0.2012 0.047-0.7932 0.401-0.1198 2.059 0.3242 1.947 0.4031-0.101 0.4598-1.948-0.123-1.994zm-1.1055 1c-0.0707-3e-3 -0.1468 0.029-0.2285 0.105-0.6518 0.615 0.2199 2.102 0.6035 1.872 0.3354-0.202 0.1206-1.954-0.375-1.977zm4.0427 1c-1.556-0.029-3.6086 0.829-3.9587 2.551-0.3787 1.863 1.5626 4.449 3.5857 4.449 0.995 0 2.142-1.186 2.357-2.438 0.164-0.953-2.03-0.572-1.955 0.059 0.09 0.756-0.505 1.331-1.088 0.844-1.8558-1.553 3.175-2.328 2.85-4.449-0.102-0.661-0.858-0.997-1.791-1.014z" fill="#404946"/>
</svg>
