<?xml version="1.0" encoding="UTF-8"?>
<svg width="22" height="22" version="1" xmlns="http://www.w3.org/2000/svg">
 <rect x="1" y="8.5" width="20" height="12" rx="1" ry="1" opacity=".2"/>
 <path d="m1 16c0 0.554 0.446 1 1 1h18c0.554 0 1-0.446 1-1v-11c0-0.554-0.446-1-1-1h-9c-1.5 0-2-2-3.5-2h-5.5c-0.554 0-1 0.446-1 1" fill="#9d0006"/>
 <rect x="1" y="7.5" width="20" height="12" rx="1" ry="1" opacity=".2"/>
 <rect x="3" y="6" width="16" height="8" rx="1" ry="1" fill="#efd2b3"/>
 <rect x="1" y="8" width="20" height="12" rx="1" ry="1" fill="#fb4934"/>
 <path d="m2 2c-0.554 0-1 0.446-1 1v0.5c0-0.554 0.446-1 1-1h5.5c1.5 0 2 2 3.5 2h9c0.554 0 1 0.446 1 1v-0.5c0-0.554-0.446-1-1-1h-9c-1.5 0-2-2-3.5-2z" fill="#efd2b3" opacity=".1"/>
 <path d="m9 11c-1.6569 0-3 1.343-3 3s1.3431 3 3 3c1.27 0 2.401-0.803 2.824-2h2.176v1h2v-1h1v-2h-5.176c-0.423-1.197-1.554-2-2.824-2zm0 2c0.552 0 1 0.448 1 1s-0.448 1-1 1c-0.5523 0-1-0.448-1-1s0.4477-1 1-1z" fill="#442e2d"/>
</svg>
