<?xml version="1.0" encoding="UTF-8"?>
<svg width="22" height="22" version="1" xmlns="http://www.w3.org/2000/svg">
 <rect x="1" y="8.5" width="20" height="12" rx="1" ry="1" opacity=".2"/>
 <path d="m1 16c0 0.554 0.446 1 1 1h18c0.554 0 1-0.446 1-1v-11c0-0.554-0.446-1-1-1h-9c-1.5 0-2-2-3.5-2h-5.5c-0.554 0-1 0.446-1 1" fill="#6c782e"/>
 <rect x="1" y="7.5" width="20" height="12" rx="1" ry="1" opacity=".2"/>
 <rect x="3" y="6" width="16" height="8" rx="1" ry="1" fill="#dde5c2"/>
 <rect x="1" y="8" width="20" height="12" rx="1" ry="1" fill="#a9b665"/>
 <path d="m2 2c-0.554 0-1 0.446-1 1v0.5c0-0.554 0.446-1 1-1h5.5c1.5 0 2 2 3.5 2h9c0.554 0 1 0.446 1 1v-0.5c0-0.554-0.446-1-1-1h-9c-1.5 0-2-2-3.5-2z" fill="#dde5c2" opacity=".1"/>
 <path d="m10.818 10a3.6364 3.6364 0 0 0-3.3477 2.2168 2.9091 2.9091 0 0 0-2.4707 2.875 2.9091 2.9091 0 0 0 2.7695 2.9004v0.007812h7.0664a1.8009 1.8009 0 0 0 0.20508-0.013672 1.75 1.75 0 0 0 0.20898 0.013672 1.75 1.75 0 0 0 1.75-1.75 1.75 1.75 0 0 0-1.1953-1.6582 1.8182 1.8182 0 0 0 0.10352-0.5918 1.8182 1.8182 0 0 0-1.7598-1.8145 3.6364 3.6364 0 0 0-3.3301-2.1855zm-1.8184 2h2.9102v3h-1.9102v1.5h-1v-1.5zm1 1v1h1v-1z" fill="#424a3e"/>
</svg>
