<?xml version="1.0" encoding="UTF-8"?>
<svg width="22" height="22" version="1" xmlns="http://www.w3.org/2000/svg">
 <rect x="1" y="8.5" width="20" height="12" rx="1" ry="1" opacity=".2"/>
 <path d="m1 16c0 0.554 0.446 1 1 1h18c0.554 0 1-0.446 1-1v-11c0-0.554-0.446-1-1-1h-9c-1.5 0-2-2-3.5-2h-5.5c-0.554 0-1 0.446-1 1" fill="#8f3f71"/>
 <rect x="1" y="7.5" width="20" height="12" rx="1" ry="1" opacity=".2"/>
 <rect x="3" y="6" width="16" height="8" rx="1" ry="1" fill="#E1D4B6"/>
 <rect x="1" y="8" width="20" height="12" rx="1" ry="1" fill="#d3869b"/>
 <path d="m2 2c-0.554 0-1 0.446-1 1v0.5c0-0.554 0.446-1 1-1h5.5c1.5 0 2 2 3.5 2h9c0.554 0 1 0.446 1 1v-0.5c0-0.554-0.446-1-1-1h-9c-1.5 0-2-2-3.5-2z" fill="#E1D4B6" opacity=".1"/>
 <path d="m7 11a1 1 0 0 0-0.6973 1.717l0.6739 0.674c-0.4794 0.622-0.8409 1.52-0.9668 2.832-0.0368 0.77 0.7754 0.771 0.7754 0.771l7.4298 0.031s0.835 0 0.795-0.806c-0.132-1.311-0.496-2.205-0.975-2.821l0.682-0.681a1 1 0 0 0-0.727-1.717 1 1 0 0 0-0.687 0.303l-0.961 0.961c-0.64-0.192-1.284-0.221-1.789-0.229-0.545-9e-3 -1.2229 0.015-1.8889 0.215l-0.9473-0.947a1 1 0 0 0-0.7168-0.303zm1.5 3a0.5 0.5 0 0 1 0.5 0.5 0.5 0.5 0 0 1-0.5 0.5 0.5 0.5 0 0 1-0.5-0.5 0.5 0.5 0 0 1 0.5-0.5zm4 0a0.5 0.5 0 0 1 0.5 0.5 0.5 0.5 0 0 1-0.5 0.5 0.5 0.5 0 0 1-0.5-0.5 0.5 0.5 0 0 1 0.5-0.5z" fill="#393534"/>
</svg>
