<?xml version="1.0" encoding="UTF-8"?>
<svg width="22" height="22" version="1" xmlns="http://www.w3.org/2000/svg">
 <rect x="1" y="8.5" width="20" height="12" rx="1" ry="1" opacity=".2"/>
 <path d="m1 16c0 0.554 0.446 1 1 1h18c0.554 0 1-0.446 1-1v-11c0-0.554-0.446-1-1-1h-9c-1.5 0-2-2-3.5-2h-5.5c-0.554 0-1 0.446-1 1" fill="#b57614"/>
 <rect x="1" y="7.5" width="20" height="12" rx="1" ry="1" opacity=".2"/>
 <rect x="3" y="6" width="16" height="8" rx="1" ry="1" fill="#f3deaa"/>
 <rect x="1" y="8" width="20" height="12" rx="1" ry="1" fill="#fabd2f"/>
 <path d="m2 2c-0.554 0-1 0.446-1 1v0.5c0-0.554 0.446-1 1-1h5.5c1.5 0 2 2 3.5 2h9c0.554 0 1 0.446 1 1v-0.5c0-0.554-0.446-1-1-1h-9c-1.5 0-2-2-3.5-2z" fill="#f3deaa" opacity=".1"/>
 <path d="m10 10v1.174a3 3 0 0 0-0.2912 0.121l-0.8301-0.83-1.4141 1.414 0.8301 0.83a3 3 0 0 0-0.1191 0.291h-1.1756v2h1.1736a3 3 0 0 0 0.1211 0.291l-0.8301 0.83 1.4141 1.414 0.8301-0.83a3 3 0 0 0 0.2912 0.119v1.176h2v-1.174a3 3 0 0 0 0.291-0.121l0.83 0.83 1.414-1.414-0.83-0.83a3 3 0 0 0 0.119-0.291h1.176v-2h-1.174a3 3 0 0 0-0.121-0.291l0.83-0.83-1.414-1.414-0.83 0.83a3 3 0 0 0-0.291-0.119v-1.176h-2zm1 2a2 2 0 0 1 2 2 2 2 0 0 1-2 2 2 2 0 0 1-2-2 2 2 0 0 1 2-2z" fill="#473c29"/>
</svg>
