<?xml version="1.0" encoding="UTF-8"?>
<svg width="22" height="22" version="1" xmlns="http://www.w3.org/2000/svg">
 <rect x="1" y="8.5" width="20" height="12" rx="1" ry="1" opacity=".2"/>
 <path d="m1 16c0 0.554 0.446 1 1 1h18c0.554 0 1-0.446 1-1v-11c0-0.554-0.446-1-1-1h-9c-1.5 0-2-2-3.5-2h-5.5c-0.554 0-1 0.446-1 1" fill="#af3a03"/>
 <rect x="1" y="7.5" width="20" height="12" rx="1" ry="1" opacity=".2"/>
 <rect x="3" y="6" width="16" height="8" rx="1" ry="1" fill="#F1D8AF"/>
 <rect x="1" y="8" width="20" height="12" rx="1" ry="1" fill="#fe8019"/>
 <path d="m2 2c-0.554 0-1 0.446-1 1v0.5c0-0.554 0.446-1 1-1h5.5c1.5 0 2 2 3.5 2h9c0.554 0 1 0.446 1 1v-0.5c0-0.554-0.446-1-1-1h-9c-1.5 0-2-2-3.5-2z" fill="#F1D8AF" opacity=".1"/>
 <path d="m8.5 10c-0.277 0-0.5 0.223-0.5 0.5v5h0.5v-0.5h0.5v-4h2.5v2h1.5v4.5h0.5v-0.5h0.5v-5l-2-2zm5 7.5v0.5h0.5v-0.5zm-0.5 0h-0.5v0.5h0.5zm-0.5 0v-0.5h-0.5v0.5zm-0.5 0h-0.5v0.5h0.5zm-0.5 0v-0.5h-0.5v0.5zm-0.5 0h-0.5v0.5h0.5zm-0.5 0v-0.5h-0.5v0.5zm-0.5 0h-0.5v0.5h0.5zm-0.5 0v-0.5h-0.5v0.5zm-0.5 0h-0.5v0.5h0.5zm-0.5 0v-0.5h-0.5v0.5zm0-0.5h0.5v-0.5h-0.5zm0-0.5v-0.5h-0.5v0.5zm0-0.5h0.5v-0.5h-0.5z" fill="#46352B"/>
</svg>
