<?xml version="1.0" encoding="UTF-8"?>
<svg width="22" height="22" version="1" xmlns="http://www.w3.org/2000/svg">
 <rect x="1" y="8.5" width="20" height="12" rx="1" ry="1" opacity=".2"/>
 <path d="m1 16c0 0.554 0.446 1 1 1h18c0.554 0 1-0.446 1-1v-11c0-0.554-0.446-1-1-1h-9c-1.5 0-2-2-3.5-2h-5.5c-0.554 0-1 0.446-1 1" fill="#c35e0a"/>
 <rect x="1" y="9.5" width="20" height="10" rx="1" ry="1" opacity=".2"/>
 <rect x="3" y="6" width="16" height="8" rx="1" ry="1" fill="#F5E4C1"/>
 <rect x="1" y="10" width="20" height="10" rx="1" ry="1" fill="#e78a4e"/>
 <path d="m2 2c-0.554 0-1 0.446-1 1v0.5c0-0.554 0.446-1 1-1h5.5c1.5 0 2 2 3.5 2h9c0.554 0 1 0.446 1 1v-0.5c0-0.554-0.446-1-1-1h-9c-1.5 0-2-2-3.5-2z" fill="#F5E4C1" opacity=".1"/>
 <path d="m11 12a2 2 0 0 0-2.0001 2 2 2 0 0 0 2.0001 2 2 2 0 0 0 2-2 2 2 0 0 0-2-2zm-1.6935 4.062c-1.2634 0.216-2.1798 0.652-2.2949 1.174-0.0017 6e-3 0.0012 0.013 0 0.018-4e-3 0.02-0.0041 0.038-0.0058 0.058-6e-4 0.01-0.0059 0.016-0.0059 0.026-1e-4 3e-3 0 3e-3 0 6e-3v1.388c0 0.149 0.0884 0.268 0.1992 0.268h7.6019c0.111 0 0.199-0.119 0.199-0.268v-1.404c-1e-3 -0.032-0.012-0.06-0.02-0.092-0.115-0.521-1.029-0.958-2.289-1.174a2 2 0 0 1-1.691 0.938 2 2 0 0 1-1.6935-0.938z" fill="#564135"/>
</svg>
