<?xml version="1.0" encoding="UTF-8"?>
<svg width="22" height="22" version="1.1" xmlns="http://www.w3.org/2000/svg">
 <rect x="1" y="2.5" width="20" height="18" rx="1" ry="1" opacity=".2"/>
 <path d="m1 3.9v15.1c0 0.554 0.446 1 1 1h18c0.554 0 1-0.446 1-1v-15.1z" fill="#83a598"/>
 <path d="m2 2c-0.554 0-1 0.45-1 1v1h20v-1c0-0.55-0.446-1-1-1z" fill="#2e3b3b"/>
 <path d="m7 18c-0.554 0-1 0.45-1 1v1h10v-1c0-0.55-0.446-1-1-1z" fill="#2e3b3b"/>
 <path d="m2 2c-0.554 0-1 0.45-1 1v0.5c0-0.55 0.446-1 1-1h18c0.554 0 1 0.45 1 1v-0.5c0-0.55-0.446-1-1-1z" fill="#d3d5b8" opacity=".1"/>
</svg>
