<?xml version="1.0" encoding="UTF-8"?>
<svg width="48" height="48" version="1" xmlns="http://www.w3.org/2000/svg">
 <rect x="4" y="17" width="40" height="26" rx="2" ry="2" opacity=".2"/>
 <path d="m4 34c0 1.108 0.892 2 2 2h36c1.108 0 2-0.892 2-2v-22c0-1.108-0.892-2-2-2h-18c-3 0-4-4-7-4h-11c-1.108 0-2 0.892-2 2" fill="#9d0006"/>
 <rect x="4" y="15" width="40" height="26" rx="2" ry="2" opacity=".2"/>
 <rect x="6" y="13" width="36" height="16" rx="2" ry="2" fill="#efd2b3"/>
 <rect x="4" y="16" width="40" height="26" rx="2" ry="2" fill="#fb4934"/>
 <path d="m6 6c-1.108 0-2 0.892-2 2v1c0-1.108 0.892-2 2-2h11c3 0 4 4 7 4h18c1.108 0 2 0.892 2 2v-1c0-1.108-0.892-2-2-2h-18c-3 0-4-4-7-4z" fill="#efd2b3" opacity=".1"/>
 <path d="m21.527 25.623c-0.357-0.146-0.74-0.221-1.127-0.223-1.5 0-2.77 1.113-2.97 2.6-1.452 0.499-2.429 1.864-2.43 3.4 0 1.989 1.611 3.6 3.6 3.6h10.8c1.989 0 3.6-1.611 3.6-3.6-1e-3 -1.528-0.968-2.889-2.41-3.394 5e-3 -0.069 7e-3 -0.136 0.01-0.205 0-2.651-2.149-4.801-4.8-4.801-1.805 0-3.454 1.015-4.273 2.623zm4.272-0.623h2e-3c1.569 0 2.798 1.23 2.799 2.799-1e-3 0.023-4e-3 0.058-4e-3 0.068-0.063 0.899 0.483 1.73 1.334 2.028 0.647 0.226 1.069 0.82 1.07 1.505 0 0.908-0.692 1.6-1.6 1.6h-10.8c-0.907 0-1.599-0.691-1.6-1.598v-2e-3c1e-3 -0.688 0.428-1.285 1.08-1.509 0.716-0.246 1.231-0.875 1.332-1.625 0.069-0.509 0.476-0.865 0.986-0.866 0.129 1e-3 0.255 0.027 0.372 0.075 0.963 0.394 2.067-0.017 2.539-0.944 0.479-0.942 1.436-1.531 2.49-1.531z" fill="#442e2d"/>
</svg>
