<?xml version="1.0" encoding="UTF-8"?>
<svg width="48" height="48" version="1" xmlns="http://www.w3.org/2000/svg">
 <rect x="4" y="17" width="40" height="26" rx="2" ry="2" opacity=".2"/>
 <path d="m4 34c0 1.108 0.892 2 2 2h36c1.108 0 2-0.892 2-2v-22c0-1.108-0.892-2-2-2h-18c-3 0-4-4-7-4h-11c-1.108 0-2 0.892-2 2" fill="#c14a4a"/>
 <rect x="4" y="15" width="40" height="26" rx="2" ry="2" opacity=".2"/>
 <rect x="6" y="13" width="36" height="16" rx="2" ry="2" fill="#f0ddc3"/>
 <rect x="4" y="16" width="40" height="26" rx="2" ry="2" fill="#ea6962"/>
 <path d="m6 6c-1.108 0-2 0.892-2 2v1c0-1.108 0.892-2 2-2h11c3 0 4 4 7 4h18c1.108 0 2 0.892 2 2v-1c0-1.108-0.892-2-2-2h-18c-3 0-4-4-7-4z" fill="#f0ddc3" opacity=".1"/>
 <path d="m23.092 23.047c-3.556 0-2.729 3.248-4.549 4.226-0.063 0.036-0.098 0.069-0.154 0.104 1.2-0.715 2.68-1.312 4.252-1.717 1.331-0.343 2.68-0.535 3.925-0.559h0.096c-1.2-0.341-1.332-2.054-3.57-2.054zm3.875 2.955c-1.245 0.024-2.595 0.216-3.926 0.558-4.386 1.129-7.513 3.584-6.982 5.483 0.305 1.085 1.777 1.801 3.97 1.931-1e-3 -8e-3 -3e-3 -0.015-4e-3 -0.023-0.118-1.027 0.533-1.92 1.297-2.526 0.764-0.605 1.746-1.045 2.85-1.279 1.103-0.234 2.136-0.223 3 0.037 0.812 0.245 1.576 0.778 1.763 1.694 2.199-1.233 3.339-2.719 3.008-3.92-0.35-1.258-2.258-2.008-4.976-1.955zm-1.305 4.998a1.8586 3.577 76.001 0 0-1.377 0.142 1.8586 3.577 76.001 0 0-3.279 2.6 1.8586 3.577 76.001 0 0 3.709 1.115 1.8586 3.577 76.001 0 0 3.277-2.599 1.8586 3.577 76.001 0 0-2.33-1.258z" fill="#543937"/>
</svg>
