<?xml version="1.0" encoding="UTF-8"?>
<svg width="48" height="48" version="1" xmlns="http://www.w3.org/2000/svg">
 <rect x="4" y="17" width="40" height="26" rx="2" ry="2" opacity=".2"/>
 <path d="m4 34c0 1.108 0.892 2 2 2h36c1.108 0 2-0.892 2-2v-22c0-1.108-0.892-2-2-2h-18c-3 0-4-4-7-4h-11c-1.108 0-2 0.892-2 2" fill="#9d0006"/>
 <rect x="4" y="15" width="40" height="26" rx="2" ry="2" opacity=".2"/>
 <rect x="6" y="13" width="36" height="16" rx="2" ry="2" fill="#efd2b3"/>
 <rect x="4" y="16" width="40" height="26" rx="2" ry="2" fill="#fb4934"/>
 <path d="m6 6c-1.108 0-2 0.892-2 2v1c0-1.108 0.892-2 2-2h11c3 0 4 4 7 4h18c1.108 0 2 0.892 2 2v-1c0-1.108-0.892-2-2-2h-18c-3 0-4-4-7-4z" fill="#efd2b3" opacity=".1"/>
 <path d="m22.251 22-0.155 1.845c-0.584 0.216-1.128 0.531-1.607 0.929l-1.677-0.79-1.75 3.032 1.521 1.056c-0.054 0.306-0.082 0.617-0.084 0.928 0 0.312 0.027 0.624 0.08 0.932l-1.517 1.052 1.75 3.031 1.672-0.787c0.481 0.397 1.026 0.71 1.611 0.924l0.155 1.848h3.5l0.155-1.844c0.584-0.216 1.128-0.531 1.607-0.929l1.676 0.789 1.75-3.032-1.522-1.056c0.054-0.306 0.083-0.616 0.085-0.927 0-0.312-0.028-0.624-0.081-0.932l1.518-1.053-1.75-3.031-1.672 0.787c-0.481-0.397-1.026-0.709-1.611-0.923l-0.154-1.849zm1.75 5.001c1.105 0 2 0.895 2 2s-0.895 2-2 2-2-0.895-2-2 0.895-2 2-2z" fill="#442e2d"/>
</svg>
