<?xml version="1.0" encoding="UTF-8"?>
<svg width="48" height="48" version="1" xmlns="http://www.w3.org/2000/svg">
 <rect x="4" y="17" width="40" height="26" rx="2" ry="2" opacity=".2"/>
 <path d="m4 34c0 1.108 0.892 2 2 2h36c1.108 0 2-0.892 2-2v-22c0-1.108-0.892-2-2-2h-18c-3 0-4-4-7-4h-11c-1.108 0-2 0.892-2 2" fill="#c14a4a"/>
 <rect x="4" y="15" width="40" height="26" rx="2" ry="2" opacity=".2"/>
 <rect x="6" y="13" width="36" height="16" rx="2" ry="2" fill="#f0ddc3"/>
 <rect x="4" y="16" width="40" height="26" rx="2" ry="2" fill="#ea6962"/>
 <path d="m6 6c-1.108 0-2 0.892-2 2v1c0-1.108 0.892-2 2-2h11c3 0 4 4 7 4h18c1.108 0 2 0.892 2 2v-1c0-1.108-0.892-2-2-2h-18c-3 0-4-4-7-4z" fill="#f0ddc3" opacity=".1"/>
 <g transform="translate(16,21)" fill="#543937">
  <path d="m9.0056 1-2.0056 0.3989v8.5128l1.9944-0.3116v-3.6l2.8056 4 2.1886-1.0001-2.9886-3.3999 3.0114-3.6-2.2114-1.0001-2.8056 4.2001v-4.2001z"/>
  <path d="m4.2812 4.2012c-0.0246 3e-3 -0.051712 0.00874-0.070312 0.027344l-0.85352 0.84766c-0.035792 0.0357-0.039984 0.089612-0.013672 0.13281l0.9082 1.4883c-0.21334 0.34645-0.37899 0.72368-0.49023 1.125l-1.6738 0.3457c-0.05084 0.0104-0.087891 0.059328-0.087891 0.11133v1.1973c0 0.0507 0.038572 0.093769 0.087891 0.10547l1.623 0.39062c0.10212 0.45152 0.27473 0.87667 0.50391 1.2637l-0.94531 1.4297c-0.02868 0.0435-0.023316 0.10177 0.013672 0.13867l0.85352 0.84766c0.036 0.0357 0.091566 0.03977 0.13477 0.01367l1.4766-0.89062c0.36468 0.21798 0.76247 0.38479 1.1855 0.49023l0.3457 1.6465c0.0108 0.050802 0.053068 0.087893 0.10547 0.087893h1.207c0.0504 0 0.093469-0.03313 0.10547-0.08203l0.41016-1.6582c0.42644-0.11047 0.82353-0.2888 1.1895-0.51367l1.4824 0.96484c0.0438 0.0282 0.10147 0.02263 0.13867-0.01367l0.84961-0.8457c0.036-0.0357 0.04398-0.09186 0.01758-0.13476l-0.58008-0.94727-0.18945 0.05859c-0.0276 0.0084-0.05802-0.0036-0.07422-0.02734 0 0-0.17945-0.24408-0.32226-0.4375-0.05957-0.09064-0.55083-0.68776-0.89062-1.1211a3 3 0 0 1-2.7285 1.7578 3 3 0 0 1-3-3 3 3 0 0 1 1.4004-2.5352v-1.5898c-0.22315 0.082948-0.36988 0.18434-0.57422 0.30078l-1.4766-0.95898c-0.0219-0.0144-0.044059-0.018025-0.068359-0.015625z"/>
 </g>
</svg>
