<?xml version="1.0" encoding="UTF-8"?>
<svg width="48" height="48" version="1" xmlns="http://www.w3.org/2000/svg">
 <rect x="4" y="17" width="40" height="26" rx="2" ry="2" opacity=".2"/>
 <path d="m4 34c0 1.108 0.892 2 2 2h36c1.108 0 2-0.892 2-2v-22c0-1.108-0.892-2-2-2h-18c-3 0-4-4-7-4h-11c-1.108 0-2 0.892-2 2" fill="#b57614"/>
 <rect x="4" y="15" width="40" height="26" rx="2" ry="2" opacity=".2"/>
 <rect x="6" y="13" width="36" height="16" rx="2" ry="2" fill="#f3deaa"/>
 <rect x="4" y="16" width="40" height="26" rx="2" ry="2" fill="#fabd2f"/>
 <path d="m6 6c-1.108 0-2 0.892-2 2v1c0-1.108 0.892-2 2-2h11c3 0 4 4 7 4h18c1.108 0 2 0.892 2 2v-1c0-1.108-0.892-2-2-2h-18c-3 0-4-4-7-4z" fill="#f3deaa" opacity=".1"/>
 <path d="m19 23c-2 0-3 1-3 1v7s1-1 3-1 4 2 4 2v-7s-2-2-4-2zm10 0c-2 0-4 2-4 2v7s2-2 4-2 3 1 3 1v-7s-1-1-3-1zm-10 8c-2 0-3 1-3 1v2s1-1 3-1 4 2 4 2v-2s-2-2-4-2zm10 0c-2 0-4.0051 1.9927-4 2v2s2-2 4-2 3 1 3 1v-2s-1-1-3-1z" fill="#473c29"/>
</svg>
