<?xml version="1.0" encoding="UTF-8"?>
<svg width="48" height="48" version="1" xmlns="http://www.w3.org/2000/svg">
 <rect x="4" y="17" width="40" height="26" rx="2" ry="2" opacity=".2"/>
 <path d="m4 34c0 1.108 0.892 2 2 2h36c1.108 0 2-0.892 2-2v-22c0-1.108-0.892-2-2-2h-18c-3 0-4-4-7-4h-11c-1.108 0-2 0.892-2 2" fill="#076678"/>
 <rect x="4" y="15" width="40" height="26" rx="2" ry="2" opacity=".2"/>
 <rect x="6" y="13" width="36" height="16" rx="2" ry="2" fill="#d3d5b8"/>
 <rect x="4" y="16" width="40" height="26" rx="2" ry="2" fill="#83a598"/>
 <path d="m6 6c-1.108 0-2 0.892-2 2v1c0-1.108 0.892-2 2-2h11c3 0 4 4 7 4h18c1.108 0 2 0.892 2 2v-1c0-1.108-0.892-2-2-2h-18c-3 0-4-4-7-4z" fill="#d3d5b8" opacity=".1"/>
 <path d="m24 21c-4.418 0-8 3.582-8 8s3.582 8 8 8h5s0.937 0 1-1c0-1-1-1-1-1h-5c-3.314 0-6-2.686-6-6s2.686-6 6-6 6 2.686 6 6v1c0 0.552-0.448 1-1 1s-1-0.448-1-1v-1c0-2.209-1.791-4-4-4s-4 1.791-4 4 1.791 4 4 4c1.046 0 1.99-0.411 2.703-1.068 0.57 0.677 1.411 1.068 2.297 1.068 1.657 0 3-1.344 3-3v-1c0-4.418-3.582-8-8-8zm0 6c1.105 0 2 0.895 2 2s-0.895 2-2 2-2-0.895-2-2 0.895-2 2-2z" fill="#2e3b3b"/>
</svg>
