<?xml version="1.0" encoding="UTF-8"?>
<svg width="48" height="48" version="1" xmlns="http://www.w3.org/2000/svg">
 <rect x="4" y="17" width="40" height="26" rx="2" ry="2" opacity=".2"/>
 <path d="m4 34c0 1.108 0.892 2 2 2h36c1.108 0 2-0.892 2-2v-22c0-1.108-0.892-2-2-2h-18c-3 0-4-4-7-4h-11c-1.108 0-2 0.892-2 2" fill="#c14a4a"/>
 <rect x="4" y="15" width="40" height="26" rx="2" ry="2" opacity=".2"/>
 <rect x="6" y="13" width="36" height="16" rx="2" ry="2" fill="#f0ddc3"/>
 <rect x="4" y="16" width="40" height="26" rx="2" ry="2" fill="#ea6962"/>
 <path d="m24 21c-4.4183 1e-6 -8 3.5817-8 8s3.5817 8 8 8c4.4183 0 8-3.5817 8-8s-3.5817-8-8-8zm0 1c3.866 0 7 3.134 7 7 0 3.866-3.134 7-7 7-3.866-1e-6 -7-3.134-7-7 0-3.866 3.134-7 7-7z" fill="#543937"/>
 <path d="m6 6c-1.108 0-2 0.892-2 2v1c0-1.108 0.892-2 2-2h11c3 0 4 4 7 4h18c1.108 0 2 0.892 2 2v-1c0-1.108-0.892-2-2-2h-18c-3 0-4-4-7-4z" fill="#f0ddc3" opacity=".1"/>
 <path d="m17 31 9-2 5-3" fill="none" stroke="#543937" stroke-width="1.143"/>
 <path d="m30 34-4-5" fill="none" stroke="#543937" stroke-width="1.143"/>
 <circle cx="30" cy="34" r="2" fill="#543937"/>
 <circle cx="31" cy="26" r="2" fill="#543937"/>
 <circle cx="26" cy="29" r="2" fill="#543937"/>
 <circle cx="17" cy="31" r="2" fill="#543937"/>
</svg>
