<?xml version="1.0" encoding="UTF-8"?>
<svg width="48" height="48" version="1" xmlns="http://www.w3.org/2000/svg">
 <rect x="4" y="17" width="40" height="26" rx="2" ry="2" opacity=".2"/>
 <path d="m4 34c0 1.108 0.892 2 2 2h36c1.108 0 2-0.892 2-2v-22c0-1.108-0.892-2-2-2h-18c-3 0-4-4-7-4h-11c-1.108 0-2 0.892-2 2" fill="#b47109"/>
 <rect x="4" y="15" width="40" height="26" rx="2" ry="2" opacity=".2"/>
 <rect x="6" y="13" width="36" height="16" rx="2" ry="2" fill="#f9eabf"/>
 <rect x="4" y="16" width="40" height="26" rx="2" ry="2" fill="#d8a657"/>
 <path d="m6 6c-1.108 0-2 0.892-2 2v1c0-1.108 0.892-2 2-2h11c3 0 4 4 7 4h18c1.108 0 2 0.892 2 2v-1c0-1.108-0.892-2-2-2h-18c-3 0-4-4-7-4z" fill="#f9eabf" opacity=".1"/>
 <path d="m17.143 21c-0.63314 0-1.1426 0.50944-1.1426 1.1426v4.7422c0 0.63314 0.31022 1.1445 0.94336 1.1445s1.0566-0.51139 1.0566-1.1445v-2.1918l2 1.9144v1.3926h2v-0.5c0-0.277 0.223-0.5 0.5-0.5h0.5v-2h-1.3926l-1.9144-2h2.1918c0.63314 0 1.1445-0.4235 1.1445-1.0566s-0.51139-0.94336-1.1445-0.94336zm8.9727 0c-0.63314 0-1.1445 0.31022-1.1445 0.94336s0.51139 1.0566 1.1445 1.0566h2.1918l-1.9144 2h-1.3926v2h0.5c0.277 0 0.5 0.223 0.5 0.5v0.5h2v-1.3926l2-1.9144v2.1918c0 0.63314 0.4235 1.1445 1.0566 1.1445s0.94336-0.51139 0.94336-1.1445v-4.7422c0-0.63314-0.50944-1.1426-1.1426-1.1426zm4.9414 8.9707c-0.63314 0-1.0566 0.51139-1.0566 1.1445v2.1918l-2-1.9144v-1.3926h-2v0.5c0 0.277-0.223 0.5-0.5 0.5h-0.5v2h1.3926l1.9144 2h-2.1918c-0.54523 0-0.9994 0.3151-1.1152 0.80664v0.19336h1e-3c-9.52e-4 0.01903-2e-3 0.03721-2e-3 0.05664 0 0.63314 0.48305 0.94336 1.1162 0.94336h4.7422c0.63319 1e-6 1.1426-0.50943 1.1426-1.1426v-4.7422c0-0.63314-0.31022-1.1445-0.94336-1.1445zm-11.057 0.029297v1.8574c0 0.63314 0.50944 1.1426 1.1426 1.1426h1.8574v-2h-0.5c-0.277 0-0.5-0.223-0.5-0.5v-0.5z" fill="#574833"/>
</svg>
