<?xml version="1.0" encoding="UTF-8"?>
<svg width="48" height="48" version="1" xmlns="http://www.w3.org/2000/svg">
 <rect x="4" y="17" width="40" height="26" rx="2" ry="2" opacity=".2"/>
 <path d="m4 34c0 1.108 0.892 2 2 2h36c1.108 0 2-0.892 2-2v-22c0-1.108-0.892-2-2-2h-18c-3 0-4-4-7-4h-11c-1.108 0-2 0.892-2 2" fill="#6c782e"/>
 <rect x="4" y="15" width="40" height="26" rx="2" ry="2" opacity=".2"/>
 <rect x="6" y="13" width="36" height="16" rx="2" ry="2" fill="#dde5c2"/>
 <rect x="4" y="16" width="40" height="26" rx="2" ry="2" fill="#a9b665"/>
 <path d="m6 6c-1.108 0-2 0.892-2 2v1c0-1.108 0.892-2 2-2h11c3 0 4 4 7 4h18c1.108 0 2 0.892 2 2v-1c0-1.108-0.892-2-2-2h-18c-3 0-4-4-7-4z" fill="#dde5c2" opacity=".1"/>
 <path d="M 23,23 A 5,5 0 0 0 18.268,26.398 4,4 0 0 0 16,30 4,4 0 0 0 20,34 4,4 0 0 0 22.658,32.982 5,5 0 0 0 23,33 5,5 0 0 0 25.113,32.525 4,4 0 0 0 27,33 4,4 0 0 0 31,29 4,4 0 0 0 27,25 4,4 0 0 0 26.992,25 5,5 0 0 0 23,23 Z" fill="#424a3e"/>
</svg>
