<?xml version="1.0" encoding="UTF-8"?>
<svg width="48" height="48" version="1" xmlns="http://www.w3.org/2000/svg">
 <rect x="4" y="17" width="40" height="26" rx="2" ry="2" opacity=".2"/>
 <path d="m4 34c0 1.108 0.892 2 2 2h36c1.108 0 2-0.892 2-2v-22c0-1.108-0.892-2-2-2h-18c-3 0-4-4-7-4h-11c-1.108 0-2 0.892-2 2" fill="#b57614"/>
 <rect x="4" y="15" width="40" height="26" rx="2" ry="2" opacity=".2"/>
 <rect x="6" y="13" width="36" height="16" rx="2" ry="2" fill="#f3deaa"/>
 <rect x="4" y="16" width="40" height="26" rx="2" ry="2" fill="#fabd2f"/>
 <path d="m6 6c-1.108 0-2 0.892-2 2v1c0-1.108 0.892-2 2-2h11c3 0 4 4 7 4h18c1.108 0 2 0.892 2 2v-1c0-1.108-0.892-2-2-2h-18c-3 0-4-4-7-4z" fill="#f3deaa" opacity=".1"/>
 <path d="m21 30.176c-0.321-0.115-0.659-0.175-1-0.176-1.657 0-3 1.343-3 3s1.343 3 3 3 3-1.343 3-3v-7h6v4.176c-0.321-0.115-0.659-0.175-1-0.176-1.657 0-3 1.343-3 3s1.343 3 3 3 3-1.343 3-3v-10c0-0.554-0.669-1-1.5-1h-7c-0.831 0-1.5 0.446-1.5 1" fill="#473c29"/>
</svg>
