<?xml version="1.0" encoding="UTF-8"?>
<svg width="48" height="48" version="1" xmlns="http://www.w3.org/2000/svg">
 <rect x="4" y="17" width="40" height="26" rx="2" ry="2" opacity=".2"/>
 <path d="m4 34c0 1.108 0.892 2 2 2h36c1.108 0 2-0.892 2-2v-22c0-1.108-0.892-2-2-2h-18c-3 0-4-4-7-4h-11c-1.108 0-2 0.892-2 2" fill="#45707a"/>
 <rect x="4" y="15" width="40" height="26" rx="2" ry="2" opacity=".2"/>
 <rect x="6" y="13" width="36" height="16" rx="2" ry="2" fill="#d9e1cc"/>
 <rect x="4" y="16" width="40" height="26" rx="2" ry="2" fill="#7daea3"/>
 <path d="m6 6c-1.108 0-2 0.892-2 2v1c0-1.108 0.892-2 2-2h11c3 0 4 4 7 4h18c1.108 0 2 0.892 2 2v-1c0-1.108-0.892-2-2-2h-18c-3 0-4-4-7-4z" fill="#d9e1cc" opacity=".1"/>
 <path d="m24 21c-4.418 0-8 3.582-8 8s3.582 8 8 8 8-3.582 8-8-3.582-8-8-8zm-0.571 2.214c0.076-8e-3 0.172 5e-3 0.25 0 9e-3 0.037-0.056 0.167-0.143 0.357-0.556 1.213-0.587 2.634-0.072 3.393 0.094 0.138 0.179 0.269 0.179 0.286s-0.101 0.036-0.214 0.036c-0.267 0-0.52-0.163-1.036-0.572-0.23-0.181-0.528-0.333-0.644-0.356-0.18-0.037-0.229-0.021-0.464 0.213-0.218 0.219-0.285 0.336-0.285 0.536 0 0.758 0.899 1.36 2.571 1.715 2.271 0.481 2.83 0.913 2.893 2.107 0.079 1.497-0.718 2.626-2.464 3.5-0.209 0.104-0.341 0.145-0.429 0.179-0.039-4e-3 -0.068 3e-3 -0.107 0-0.015-0.047-0.036-0.154-0.036-0.358 0-0.795-0.313-1.613-0.785-2.071-0.127-0.123-0.482-0.383-0.786-0.571-0.304-0.189-0.61-0.407-0.679-0.5-0.113-0.155-0.122-0.25-0.035-0.536 0.158-0.522 0.347-0.813 0.714-1.143 0.192-0.173 0.386-0.318 0.429-0.322 0.042-3e-3 -0.246-0.09-0.679-0.178-0.433-0.089-1.066-0.274-1.393-0.393-0.598-0.216-1.406-0.671-1.714-1-0.013-0.014-0.024-0.023-0.036-0.036 0.442-1.757 1.68-3.198 3.322-3.892 0.343-0.146 0.697-0.245 1.071-0.322 0.186-0.038 0.379-0.052 0.571-0.071zm5.357 2.679c0.134 0.083 0.641 1.179 0.785 1.714 0.187 0.691 0.174 1.886 0 2.572-0.066 0.261-0.15 0.505-0.178 0.535-0.028 0.031-0.13-0.144-0.25-0.357-0.12-0.212-0.503-0.664-0.822-1-0.919-0.97-1.063-1.476-0.678-2.25 0.194-0.39 1.039-1.278 1.143-1.214z" fill="#404946"/>
</svg>
