<?xml version="1.0" encoding="UTF-8"?>
<svg width="48" height="48" version="1" xmlns="http://www.w3.org/2000/svg">
 <rect x="4" y="17" width="40" height="26" rx="2" ry="2" opacity=".2"/>
 <path d="m4 34c0 1.108 0.892 2 2 2h36c1.108 0 2-0.892 2-2v-22c0-1.108-0.892-2-2-2h-18c-3 0-4-4-7-4h-11c-1.108 0-2 0.892-2 2" fill="#b94c07"/>
 <rect x="4" y="15" width="40" height="26" rx="2" ry="2" opacity=".2"/>
 <rect x="6" y="13" width="36" height="16" rx="2" ry="2" fill="#F6E0B4"/>
 <rect x="4" y="16" width="40" height="26" rx="2" ry="2" fill="#f28534"/>
 <path d="m6 6c-1.108 0-2 0.892-2 2v1c0-1.108 0.892-2 2-2h11c3 0 4 4 7 4h18c1.108 0 2 0.892 2 2v-1c0-1.108-0.892-2-2-2h-18c-3 0-4-4-7-4z" fill="#F6E0B4" opacity=".1"/>
 <path d="m14 30.623 6.004 2.461c0.045 1.622 1.373 2.914 2.996 2.916 1.657 0 3.006-1.402 3-3l4-3c2.227 0 4-1.791 4-4s-1.791-4-4-4-4.001 1.772-4 4l-3 4c-0.544 0-1.082 0.152-1.549 0.436l-7.451-3.059m16-4.377c1.657 0 3 1.343 3 3s-1.343 3-3 3c-1.656 0-2.969-1.635-3-3 0-1.657 1.343-3 3-3zm0 1c-1.105 0-2 0.895-2 2s0.895 2 2 2 2-0.895 2-2-0.895-2-2-2zm-7 7c1.105 0 2 0.895 2 2s-0.895 2-2 2c-0.904 0-1.696-0.606-1.932-1.479l0.893 0.366c0.769 0.315 1.642-0.05 1.957-0.819s-0.049-1.642-0.818-1.957l-0.254-0.103c0.051-5e-3 0.103-7e-3 0.154-8e-3z" fill="#4E3B30"/>
</svg>
