<?xml version="1.0" encoding="UTF-8"?>
<svg width="48" height="48" version="1" xmlns="http://www.w3.org/2000/svg">
 <rect x="4" y="17" width="40" height="26" rx="2" ry="2" opacity=".2"/>
 <path d="m4 34c0 1.108 0.892 2 2 2h36c1.108 0 2-0.892 2-2v-22c0-1.108-0.892-2-2-2h-18c-3 0-4-4-7-4h-11c-1.108 0-2 0.892-2 2" fill="#945e80"/>
 <rect x="4" y="15" width="40" height="26" rx="2" ry="2" opacity=".2"/>
 <rect x="6" y="13" width="36" height="16" rx="2" ry="2" fill="#E5DFC8"/>
 <rect x="4" y="16" width="40" height="26" rx="2" ry="2" fill="#d3869b"/>
 <path d="m6 6c-1.108 0-2 0.892-2 2v1c0-1.108 0.892-2 2-2h11c3 0 4 4 7 4h18c1.108 0 2 0.892 2 2v-1c0-1.108-0.892-2-2-2h-18c-3 0-4-4-7-4z" fill="#E5DFC8" opacity=".1"/>
 <path d="m28.779 22c-2.96 0-3.517 4-1.85 4 1.664 0 4.812-4 1.85-4zm-4.549 1c-0.047 0-0.099 5e-3 -0.151 0.01-1.695 0.204-1.1 2.939-0.197 2.99 0.873 0.05 1.829-2.992 0.349-3zm-3.09 1c-0.121-5e-3 -0.256 0.011-0.405 0.049-1.586 0.401-0.241 2.057 0.647 1.945 0.806-0.101 0.923-1.947-0.242-1.994zm-2.211 2c-0.142-2e-3 -0.296 0.029-0.459 0.105-1.304 0.616 0.44 2.102 1.207 1.872 0.671-0.202 0.243-1.954-0.748-1.977zm6.082 1c-2.334-0.037-5.412 1.065-5.938 3.279-0.568 2.397 2.343 5.721 5.377 5.721 1.493 0 3.215-0.671 3.537-2.279 0.245-1.226-3.091-0.698-2.978 0.113 0.135 0.973-0.563 0.818-1.438 0.191-2.57-2.025 4.61-2.991 4.123-5.718-0.151-0.849-1.283-1.283-2.683-1.305z" fill="#4A413F"/>
</svg>
