<?xml version="1.0" encoding="UTF-8"?>
<svg width="48" height="48" version="1" xmlns="http://www.w3.org/2000/svg">
 <rect x="4" y="17" width="40" height="26" rx="2" ry="2" opacity=".2"/>
 <path d="m4 34c0 1.108 0.892 2 2 2h36c1.108 0 2-0.892 2-2v-22c0-1.108-0.892-2-2-2h-18c-3 0-4-4-7-4h-11c-1.108 0-2 0.892-2 2" fill="#c35e0a"/>
 <rect x="4" y="15" width="40" height="26" rx="2" ry="2" opacity=".2"/>
 <rect x="6" y="13" width="36" height="16" rx="2" ry="2" fill="#F5E4C1"/>
 <rect x="4" y="16" width="40" height="26" rx="2" ry="2" fill="#e78a4e"/>
 <path d="m6 6c-1.108 0-2 0.892-2 2v1c0-1.108 0.892-2 2-2h11c3 0 4 4 7 4h18c1.108 0 2 0.892 2 2v-1c0-1.108-0.892-2-2-2h-18c-3 0-4-4-7-4z" fill="#F5E4C1" opacity=".1"/>
 <path d="m26 22c-1.7435 0.0023-3.3598 0.91263-4.2656 2.4023-0.54056-0.26271-1.1334-0.40023-1.7344-0.40234-2.2091 0-4 1.7909-4 4 5.87e-4 0.01302 0.001153 0.026043 0.001953 0.039062-1.7216 0.2475-3.0002 1.7216-3.002 3.4609 0 1.933 1.567 3.5 3.5 3.5 0.63437-0.0025 1.2561-0.17734 1.7988-0.50586-0.18861-0.46285-0.29883-0.9662-0.29883-1.4941 0-1.9029 1.3785-3.4336 3.168-3.8301 0.41175-2.3426 2.3763-4.1699 4.832-4.1699h0.001953c1.6448 2e-3 3.0373 0.93409 3.9609 2.252 0.34516-0.095554 0.67648-0.25163 1.0371-0.25195 0-2.7614-2.2386-5-5-5zm0 4a4 4 0 0 0-4 4 3 3 0 0 0-3 3 3 3 0 0 0 3 3h12.5a2.5 2.5 0 0 0 2.5-2.5 2.5 2.5 0 0 0-2.5-2.5 2.5 2.5 0 0 0-0.50195 0.054688 3 3 0 0 0 0.001953-0.054688 3 3 0 0 0-3-3 3 3 0 0 0-1.3691 0.33203 4 4 0 0 0-3.6309-2.332z" fill="#564135"/>
</svg>
