<?xml version="1.0" encoding="UTF-8"?>
<svg width="48" height="48" version="1" xmlns="http://www.w3.org/2000/svg">
 <rect x="4" y="17" width="40" height="26" rx="2" ry="2" opacity=".2"/>
 <path d="m4 34c0 1.108 0.892 2 2 2h36c1.108 0 2-0.892 2-2v-22c0-1.108-0.892-2-2-2h-18c-3 0-4-4-7-4h-11c-1.108 0-2 0.892-2 2" fill="#72761e"/>
 <rect x="4" y="15" width="40" height="26" rx="2" ry="2" opacity=".2"/>
 <rect x="6" y="13" width="36" height="16" rx="2" ry="2" fill="#dee2b6"/>
 <rect x="4" y="16" width="40" height="26" rx="2" ry="2" fill="#b0b846"/>
 <path d="m6 6c-1.108 0-2 0.892-2 2v1c0-1.108 0.892-2 2-2h11c3 0 4 4 7 4h18c1.108 0 2 0.892 2 2v-1c0-1.108-0.892-2-2-2h-18c-3 0-4-4-7-4z" fill="#dee2b6" opacity=".1"/>
 <path d="m19.707 22-0.707 0.708 1.408 1.409a2.5005 2.5027 0 0 0-0.41 1.371 2.5005 2.5027 0 0 0 2.001 2.452v4.11a2.5005 2.5027 0 0 0-2 2.447 2.5005 2.5027 0 0 0 2.501 2.503 2.5005 2.5027 0 0 0 2.5-2.503 2.5005 2.5027 0 0 0-2-2.451v-4.11a2.5005 2.5027 0 0 0 0.869-0.354l1.541 1.543a2.5005 2.5027 0 0 0-0.41 1.368 2.5005 2.5027 0 0 0 2.501 2.503 2.5005 2.5027 0 0 0 2.501-2.504 2.5005 2.5027 0 0 0-2.5-2.503 2.5005 2.5027 0 0 0-1.388 0.423l-1.534-1.537a2.5005 2.5027 0 0 0 0.42-1.388 2.5005 2.5027 0 0 0-2.5-2.503 2.5005 2.5027 0 0 0-1.386 0.423l-1.406-1.407z" fill="#3b4439"/>
</svg>
