<?xml version="1.0" encoding="UTF-8"?>
<svg width="48" height="48" version="1" xmlns="http://www.w3.org/2000/svg">
 <rect x="4" y="17" width="40" height="26" rx="2" ry="2" opacity=".2"/>
 <path d="m4 34c0 1.108 0.892 2 2 2h36c1.108 0 2-0.892 2-2v-22c0-1.108-0.892-2-2-2h-18c-3 0-4-4-7-4h-11c-1.108 0-2 0.892-2 2" fill="#79740e"/>
 <rect x="4" y="15" width="40" height="26" rx="2" ry="2" opacity=".2"/>
 <rect x="6" y="13" width="36" height="16" rx="2" ry="2" fill="#d7d9ae"/>
 <rect x="4" y="16" width="40" height="26" rx="2" ry="2" fill="#b8bb26"/>
 <path d="m6 6c-1.108 0-2 0.892-2 2v1c0-1.108 0.892-2 2-2h11c3 0 4 4 7 4h18c1.108 0 2 0.892 2 2v-1c0-1.108-0.892-2-2-2h-18c-3 0-4-4-7-4z" fill="#d7d9ae" opacity=".1"/>
 <path d="m24 16v1h1v-1h-1zm0 1h-1v1h1v-1zm0 1v1h1v-1h-1zm0 1h-1v1h1v-1zm0 1v1h1v-1h-1zm0 1h-1v1h1v-1zm0 1v1h1v-1h-1zm0 1h-1c-0.1561 1.3909 1 1.3909 1 0z" fill="#333e34"/>
 <path d="m24 22c-2.21 0-4 1.8-4 4v8c0 2.2 1.79 4 4 4s4-1.8 4-4v-8c0-2.2-1.79-4-4-4zm0 2c1.104 0 2 0.8 2 2 0 1-0.896 2-2 2s-2-1-2-2c0-1.2 0.896-2 2-2zm0 6c1.104 0 2 0.8 2 2v2c0 1-0.896 2-2 2s-2-1-2-2v-2c0-1.2 0.896-2 2-2z" fill="#333e34"/>
</svg>
