<?xml version="1.0" encoding="UTF-8"?>
<svg width="48" height="48" version="1" xmlns="http://www.w3.org/2000/svg">
 <rect x="4" y="17" width="40" height="26" rx="2" ry="2" opacity=".2"/>
 <path d="m4 34c0 1.108 0.892 2 2 2h36c1.108 0 2-0.892 2-2v-22c0-1.108-0.892-2-2-2h-18c-3 0-4-4-7-4h-11c-1.108 0-2 0.892-2 2" fill="#45707a"/>
 <rect x="4" y="15" width="40" height="26" rx="2" ry="2" opacity=".2"/>
 <rect x="6" y="13" width="36" height="16" rx="2" ry="2" fill="#d9e1cc"/>
 <rect x="4" y="16" width="40" height="26" rx="2" ry="2" fill="#7daea3"/>
 <path d="m6 6c-1.108 0-2 0.892-2 2v1c0-1.108 0.892-2 2-2h11c3 0 4 4 7 4h18c1.108 0 2 0.892 2 2v-1c0-1.108-0.892-2-2-2h-18c-3 0-4-4-7-4z" fill="#d9e1cc" opacity=".1"/>
 <path d="m26 19c-5.5228 0-10 4.4772-10 10s4.4772 10 10 10h18v-2h-18c-4.4183 0-8-3.5817-8-8s3.5817-8 8-8v-2zm0 3c-3.866 0-7 3.134-7 7s3.134 7 7 7h18v-2h-18c-2.7614 0-5-2.2386-5-5s2.2386-5 5-5c0.68847 7.88e-4 1.3694 0.14375 2 0.41992v-2.1211c-0.64869-0.19589-1.3224-0.29655-2-0.29883zm0 3c-2.2091 0-4 1.7909-4 4s1.7909 4 4 4h18v-2h-18c-1.1046 0-2-0.89543-2-2s0.89543-2 2-2c0.71327 0.0013 1.3719 0.38229 1.7285 1h2.1387c-0.45546-1.764-2.0454-2.9974-3.8672-3z" fill="#404946"/>
</svg>
