<?xml version="1.0" encoding="UTF-8"?>
<svg width="48" height="48" version="1" xmlns="http://www.w3.org/2000/svg">
 <rect x="4" y="17" width="40" height="26" rx="2" ry="2" opacity=".2"/>
 <path d="m4 34c0 1.108 0.892 2 2 2h36c1.108 0 2-0.892 2-2v-22c0-1.108-0.892-2-2-2h-18c-3 0-4-4-7-4h-11c-1.108 0-2 0.892-2 2" fill="#427b58"/>
 <rect x="4" y="15" width="40" height="26" rx="2" ry="2" opacity=".2"/>
 <rect x="6" y="13" width="36" height="16" rx="2" ry="2" fill="#D5D7B3"/>
 <rect x="4" y="16" width="40" height="26" rx="2" ry="2" fill="#8ec07c"/>
 <path d="m6 6c-1.108 0-2 0.892-2 2v1c0-1.108 0.892-2 2-2h11c3 0 4 4 7 4h18c1.108 0 2 0.892 2 2v-1c0-1.108-0.892-2-2-2h-18c-3 0-4-4-7-4z" fill="#D5D7B3" opacity=".1"/>
 <path d="m26.985 21c-0.744 0.035-1.646 0.581-2.18 1.313-0.479 0.65-0.899 1.687-0.787 2.682 0.831 0.076 1.68-0.495 2.197-1.227h-2e-3c0.518-0.733 0.867-1.752 0.772-2.768zm0.215 4.009c-1.068 0.079-2.042 0.73-2.594 0.73-0.629 0-1.604-0.708-2.635-0.689-1.355 0.02-2.605 0.78-3.303 1.982-1.407 2.42-0.36 6.005 1.012 7.967 0.671 0.961 1.489 2.001 2.52 2.001s1.395-0.647 2.617-0.647 1.556 0.647 2.635 0.647 1.777-0.998 2.443-1.962c0.77-1.114 1.086-2.195 1.105-2.25-0.025-0.011-2.121-0.805-2.142-3.197-0.02-2.003 1.65-2.962 1.725-3.01-0.938-1.359-2.4-1.547-2.92-1.568-0.156-0.016-0.311-0.016-0.463-4e-3z" fill="#313D38"/>
</svg>
