<?xml version="1.0" encoding="UTF-8"?>
<svg width="48" height="48" version="1" xmlns="http://www.w3.org/2000/svg">
 <rect x="4" y="17" width="40" height="26" rx="2" ry="2" opacity=".2"/>
 <path d="m4 34c0 1.108 0.892 2 2 2h36c1.108 0 2-0.892 2-2v-22c0-1.108-0.892-2-2-2h-18c-3 0-4-4-7-4h-11c-1.108 0-2 0.892-2 2" fill="#af3a03"/>
 <rect x="4" y="15" width="40" height="26" rx="2" ry="2" opacity=".2"/>
 <rect x="6" y="13" width="36" height="16" rx="2" ry="2" fill="#F1D8AF"/>
 <rect x="4" y="16" width="40" height="26" rx="2" ry="2" fill="#fe8019"/>
 <path d="m6 6c-1.108 0-2 0.892-2 2v1c0-1.108 0.892-2 2-2h11c3 0 4 4 7 4h18c1.108 0 2 0.892 2 2v-1c0-1.108-0.892-2-2-2h-18c-3 0-4-4-7-4z" fill="#F1D8AF" opacity=".1"/>
 <path d="m24.56 32.076c-1.12 0.521-1.663 0.515-2.362 0.465-0.835-0.06-1.506-0.289-1.801-0.489-0.182-0.123-0.429-0.075-0.552 0.107s-0.076 0.429 0.106 0.552c0.475 0.321 1.313 0.56 2.19 0.623 0.148 0.011-0.188 0.017-0.013 0.017 0.763 0 1.731-0.072 2.767-0.554 0.199-0.093 0.286-0.329 0.193-0.528-0.093-0.2-0.329-0.286-0.528-0.193zm4.419-0.589c0.038-3.455 0.394-9.982-6.219-9.455-6.529 0.526-4.298 7.423-4.396 9.733-0.086 1.221-0.791 2.715-1.364 4.235h2.064c0.182-0.644 0.315-1.281 0.373-1.888 0.106 0.074 0.22 0.145 0.341 0.214 0.198 0.117 0.368 0.272 0.548 0.435 0.42 0.383 0.896 0.817 1.827 0.872 0.063 3e-3 -0.374 5e-3 -0.312 5e-3 0.942 0 1.586-0.412 2.103-0.743 0.248-0.159 0.463-0.296 0.664-0.362 0.573-0.179 1.074-0.469 1.448-0.837 0.058-0.058 0.113-0.117 0.163-0.177 0.209 0.764 0.494 1.623 0.811 2.481h3.968c-0.905-1.397-2.038-2.766-2.019-4.513zm-9.983-1.88c-0.065-1.127 0.475-2.076 1.205-2.118 0.73-0.043 1.374 0.837 1.439 1.964l1e-3 1e-3c3e-3 0.06 4e-3 0.121 4e-3 0.18-0.231 0.058-0.44 0.143-0.627 0.241 0-8e-3 -1e-3 -0.016-2e-3 -0.025-0.062-0.64-0.404-1.123-0.763-1.079-0.359 0.043-0.6 0.597-0.537 1.238 0.027 0.279 0.107 0.528 0.219 0.717-0.028 0.022-0.107 0.079-0.197 0.145-0.068 0.05-0.151 0.111-0.25 0.184-0.272-0.357-0.459-0.869-0.492-1.448zm6.898 2.787c-0.026 0.595-0.805 1.156-1.525 1.381l-4e-3 1e-3c-0.299 0.097-0.566 0.268-0.849 0.449-0.475 0.304-0.966 0.618-1.675 0.618-0.046 0 0.405-1e-3 0.359-4e-3 -0.65-0.038-0.954-0.315-1.338-0.666-0.203-0.184-0.413-0.375-0.684-0.534l-5e-3 -4e-3c-0.584-0.329-0.947-0.739-0.97-1.096-0.011-0.177 0.068-0.331 0.235-0.456 0.364-0.273 0.608-0.452 0.769-0.57 0.18-0.131 0.234-0.171 0.274-0.209 0.028-0.027 0.06-0.057 0.093-0.089 0.334-0.325 0.394-0.869 1.252-0.869 0.525 0 1.106 0.202 1.725 0.6 0.292 0.19 0.545 0.277 0.866 0.388 0.221 0.077 0.472 0.163 0.807 0.306l5e-3 3e-3c0.313 0.128 0.682 0.363 0.665 0.751zm-0.172-1.4c-0.06-0.03-0.123-0.059-0.188-0.086-0.302-0.129-0.545-0.217-0.746-0.287 0.111-0.217 0.18-0.488 0.187-0.782v-1e-3c0.015-0.716-0.346-1.297-0.807-1.298s-0.847 0.578-0.862 1.294v1e-3 0.07c-0.284-0.131-0.563-0.226-0.837-0.284l-3e-3 -0.081v-1e-3c-0.026-1.304 0.774-2.384 1.788-2.411 1.013-0.028 1.856 1.007 1.883 2.312 0.012 0.59-0.146 1.133-0.415 1.554z" fill="#46352B"/>
</svg>
