<?xml version="1.0" encoding="UTF-8"?>
<svg width="48" height="48" version="1" xmlns="http://www.w3.org/2000/svg">
 <rect x="4" y="17" width="40" height="26" rx="2" ry="2" opacity=".2"/>
 <path d="m4 34c0 1.108 0.892 2 2 2h36c1.108 0 2-0.892 2-2v-22c0-1.108-0.892-2-2-2h-18c-3 0-4-4-7-4h-11c-1.108 0-2 0.892-2 2" fill="#c14a4a"/>
 <rect x="4" y="15" width="40" height="26" rx="2" ry="2" opacity=".2"/>
 <rect x="6" y="13" width="36" height="16" rx="2" ry="2" fill="#f0ddc3"/>
 <rect x="4" y="16" width="40" height="26" rx="2" ry="2" fill="#ea6962"/>
 <path d="m6 6c-1.108 0-2 0.892-2 2v1c0-1.108 0.892-2 2-2h11c3 0 4 4 7 4h18c1.108 0 2 0.892 2 2v-1c0-1.108-0.892-2-2-2h-18c-3 0-4-4-7-4z" fill="#f0ddc3" opacity=".1"/>
 <path d="m28 20.998v3l4.5 4-4.5 4v3l8-6.8672-8-7.1328zm-2.8555 0.029297-4.1406 15.455 1.9316 0.51758 4.1426-15.455-1.9336-0.51758zm-5.1445 1.9707-8 7.1328 8 6.8672v-3l-4.5-4 4.5-4v-3z" fill="#543937"/>
</svg>
