<?xml version="1.0" encoding="UTF-8"?>
<svg width="48" height="48" version="1" xmlns="http://www.w3.org/2000/svg">
 <rect x="4" y="17" width="40" height="26" rx="2" ry="2" opacity=".2"/>
 <path d="m4 34c0 1.108 0.892 2 2 2h36c1.108 0 2-0.892 2-2v-22c0-1.108-0.892-2-2-2h-18c-3 0-4-4-7-4h-11c-1.108 0-2 0.892-2 2" fill="#b57614"/>
 <rect x="4" y="15" width="40" height="26" rx="2" ry="2" opacity=".2"/>
 <rect x="6" y="13" width="36" height="16" rx="2" ry="2" fill="#f3deaa"/>
 <rect x="4" y="16" width="40" height="26" rx="2" ry="2" fill="#fabd2f"/>
 <path d="m6 6c-1.108 0-2 0.892-2 2v1c0-1.108 0.892-2 2-2h11c3 0 4 4 7 4h18c1.108 0 2 0.892 2 2v-1c0-1.108-0.892-2-2-2h-18c-3 0-4-4-7-4z" fill="#f3deaa" opacity=".1"/>
 <path d="m6 16c-1.108 0-2 0.892-2 2v1.309l38.908 22.464c0.646-0.33 1.092-0.995 1.092-1.773v-2.596l-37.072-21.404h-0.9277zm7.857 0 30.143 17.404v-5l-21.484-12.404h-8.659zm15.588 0 14.555 8.404v-5l-5.896-3.404h-8.659zm-25.445 7.309v5l23.713 13.691h8.66l-32.373-18.691zm0 9v5l8.125 4.691h8.66l-16.785-9.691z" fill="#473c29"/>
</svg>
