<?xml version="1.0" encoding="UTF-8"?>
<svg width="48" height="48" version="1" xmlns="http://www.w3.org/2000/svg">
 <rect x="4" y="17" width="40" height="26" rx="2" ry="2" opacity=".2"/>
 <path d="m4 34c0 1.108 0.892 2 2 2h36c1.108 0 2-0.892 2-2v-22c0-1.108-0.892-2-2-2h-18c-3 0-4-4-7-4h-11c-1.108 0-2 0.892-2 2" fill="#427b58"/>
 <rect x="4" y="15" width="40" height="26" rx="2" ry="2" opacity=".2"/>
 <rect x="6" y="13" width="36" height="16" rx="2" ry="2" fill="#D5D7B3"/>
 <rect x="4" y="16" width="40" height="26" rx="2" ry="2" fill="#8ec07c"/>
 <path d="m6 6c-1.108 0-2 0.892-2 2v1c0-1.108 0.892-2 2-2h11c3 0 4 4 7 4h18c1.108 0 2 0.892 2 2v-1c0-1.108-0.892-2-2-2h-18c-3 0-4-4-7-4z" fill="#D5D7B3" opacity=".1"/>
 <path d="m17.793 23.99a0.80008 0.80008 0 0 0-0.61133 1.3164l1.4355 1.7559c-1.4492 1.3027-2.419 3.1225-2.6152 5.168-0.036746 0.76997 0.77539 0.76953 0.77539 0.76953h14.426s0.83545-1.68e-4 0.79492-0.80859c-0.20475-2.0309-1.172-3.8362-2.6133-5.1309l1.4336-1.7539a0.80008 0.80008 0 0 0-0.63476-1.3145 0.80008 0.80008 0 0 0-0.60352 0.30078l-1.4922 1.8262c-1.1984-0.70672-2.592-1.1191-4.0859-1.1191-1.4946 0-2.8911 0.41183-4.0898 1.1191l-1.4922-1.8262a0.80008 0.80008 0 0 0-0.62695-0.30274z" fill="#313D38"/>
 <circle cx="20" cy="30" r="1" fill="#8ec07c"/>
 <circle transform="scale(-1,1)" cx="-28" cy="30" r="1" fill="#8ec07c"/>
</svg>
