<?xml version="1.0" encoding="UTF-8"?>
<svg width="48" height="48" version="1" xmlns="http://www.w3.org/2000/svg">
 <rect x="4" y="17" width="40" height="26" rx="2" ry="2" opacity=".2"/>
 <path d="m4 34c0 1.108 0.892 2 2 2h36c1.108 0 2-0.892 2-2v-22c0-1.108-0.892-2-2-2h-18c-3 0-4-4-7-4h-11c-1.108 0-2 0.892-2 2" fill="#c14a4a"/>
 <rect x="4" y="15" width="40" height="26" rx="2" ry="2" opacity=".2"/>
 <rect x="6" y="13" width="36" height="16" rx="2" ry="2" fill="#f0ddc3"/>
 <rect x="4" y="16" width="40" height="26" rx="2" ry="2" fill="#ea6962"/>
 <path d="m22.5 22.5c-1.6598 0-3 1.3402-3 3 0 0.81459 0.3227 1.5518 0.84766 2.0918 0.042949-0.046024 0.088185-0.090383 0.13281-0.13477 0.021542-0.021424 0.042528-0.04342 0.064453-0.064453 0.046334-0.04445 0.092621-0.088197 0.14062-0.13086 0.001744-0.00155 0.004114-0.002359 0.005859-0.003907 0.017994-0.015947 0.036465-0.031183 0.054688-0.046874 0.87479-0.75327 2.0105-1.2109 3.2539-1.2109 0.49183 0 0.96689 0.072023 1.416 0.20508 0.054363-0.22632 0.083984-0.46181 0.083984-0.70508 0-1.6598-1.3402-3-3-3zm-4 2c-0.83139 0-1.5 0.66861-1.5 1.5 0 0.17256 0.028949 0.33818 0.082031 0.49219 0.56979-0.31291 1.223-0.49219 1.918-0.49219 0.012388 0 0.024748-1.13e-4 0.037109 0-0.023381-0.16344-0.037109-0.33021-0.037109-0.5 0-0.30134 0.037276-0.59387 0.10938-0.87305-0.18578-0.082058-0.39244-0.12695-0.60938-0.12695zm8 0c-0.21592 0-0.42605 0.023292-0.62891 0.066406 0.08292 0.29769 0.12891 0.60978 0.12891 0.93359 0 0.30091-0.039591 0.59228-0.11133 0.87109 1.0062 0.41203 1.8492 1.1424 2.4023 2.0664-0.008369-0.013972-0.014936-0.029086-0.023438-0.042969 0.36711-0.17711 0.765-0.29787 1.1836-0.35547 0.031633-0.17498 0.048828-0.35481 0.048828-0.53906 0-1.6598-1.3402-3-3-3zm-7.5 2c-1.936 0-3.5 1.564-3.5 3.5 0 1.2977 0.7035 2.4268 1.75 3.0312 0.34228-0.61443 0.9994-1.0312 1.75-1.0312 0.033776 0 0.068189 2.84e-4 0.10156 0.001953-0.066396-0.32394-0.10156-0.65856-0.10156-1.002 0-1.1375 0.38198-2.187 1.0234-3.0273-0.40358-0.40421-0.70733-0.9074-0.875-1.4688-0.049466-0.002064-0.098456-0.003906-0.14844-0.003906zm5 0c-2.4882 0-4.5 2.0118-4.5 4.5s2.0118 4.5 4.5 4.5 4.5-2.0118 4.5-4.5-2.0118-4.5-4.5-4.5zm6 2c-0.53457 0-1.0414 0.11862-1.4941 0.33203 0.31672 0.6563 0.49414 1.3914 0.49414 2.168 0 1.3668-0.55057 2.6066-1.4414 3.5098 0.6301 0.61292 1.4909 0.99023 2.4414 0.99023 1.936 0 3.5-1.564 3.5-3.5s-1.564-3.5-3.5-3.5zm-14.973 1.0371c-1.4341 0.22613-2.5273 1.4641-2.5273 2.9629 0 1.6598 1.3402 3 3 3 0.64982 0 1.2496-0.20705 1.7402-0.55664-0.15226-0.28167-0.24023-0.6019-0.24023-0.94336 0-0.17361 0.022547-0.34116 0.064453-0.50195-1.2301-0.68239-2.0645-1.9938-2.0645-3.498 0-0.15656 0.009454-0.31116 0.027344-0.46289zm3.9727 2.9629c-0.83139 0-1.5 0.66861-1.5 1.5s0.66861 1.5 1.5 1.5c0.661 0 1.2189-0.42262 1.4199-1.0137-0.53452-0.54883-0.94297-1.2199-1.1816-1.9668-0.077778-0.012335-0.15691-0.019531-0.23828-0.019531zm14.969 0c-0.11588 0.92666-0.54866 1.7566-1.1875 2.375 0.27169 0.37856 0.71488 0.625 1.2188 0.625 0.83139 0 1.5-0.66861 1.5-1.5s-0.66861-1.5-1.5-1.5c-0.010386 0-0.020916-2.08e-4 -0.03125 0z" fill="#543937"/>
 <path d="m6 6c-1.108 0-2 0.892-2 2v1c0-1.108 0.892-2 2-2h11c3 0 4 4 7 4h18c1.108 0 2 0.892 2 2v-1c0-1.108-0.892-2-2-2h-18c-3 0-4-4-7-4z" fill="#f0ddc3" opacity=".1"/>
</svg>
