<?xml version="1.0" encoding="UTF-8"?>
<svg width="48" height="48" version="1" xmlns="http://www.w3.org/2000/svg">
 <rect x="4" y="17" width="40" height="26" rx="2" ry="2" opacity=".2"/>
 <path d="m4 34c0 1.108 0.892 2 2 2h36c1.108 0 2-0.892 2-2v-22c0-1.108-0.892-2-2-2h-18c-3 0-4-4-7-4h-11c-1.108 0-2 0.892-2 2" fill="#076678"/>
 <rect x="4" y="15" width="40" height="26" rx="2" ry="2" opacity=".2"/>
 <rect x="6" y="13" width="36" height="16" rx="2" ry="2" fill="#d3d5b8"/>
 <rect x="4" y="16" width="40" height="26" rx="2" ry="2" fill="#83a598"/>
 <path d="m6 6c-1.108 0-2 0.892-2 2v1c0-1.108 0.892-2 2-2h11c3 0 4 4 7 4h18c1.108 0 2 0.892 2 2v-1c0-1.108-0.892-2-2-2h-18c-3 0-4-4-7-4z" fill="#d3d5b8" opacity=".1"/>
 <path d="m30 23-3 5 2 1zm-11 3-3 2.143 4-0.143 2 7 1-1 9 1-3-5-1.286-0.714-4.857 2.857-2.286-5.714zm5.571 2.143-2.285 1.428 0.857 2 4-2.285-1.429-1.143z" fill="#2e3b3b"/>
</svg>
