<?xml version="1.0" encoding="UTF-8"?>
<svg width="48" height="48" version="1" xmlns="http://www.w3.org/2000/svg">
 <rect x="4" y="17" width="40" height="26" rx="2" ry="2" opacity=".2"/>
 <path d="m4 34c0 1.108 0.892 2 2 2h36c1.108 0 2-0.892 2-2v-22c0-1.108-0.892-2-2-2h-18c-3 0-4-4-7-4h-11c-1.108 0-2 0.892-2 2" fill="#79740e"/>
 <rect x="4" y="15" width="40" height="26" rx="2" ry="2" opacity=".2"/>
 <rect x="6" y="13" width="36" height="16" rx="2" ry="2" fill="#d7d9ae"/>
 <rect x="4" y="16" width="40" height="26" rx="2" ry="2" fill="#b8bb26"/>
 <path d="m6 6c-1.108 0-2 0.892-2 2v1c0-1.108 0.892-2 2-2h11c3 0 4 4 7 4h18c1.108 0 2 0.892 2 2v-1c0-1.108-0.892-2-2-2h-18c-3 0-4-4-7-4z" fill="#d7d9ae" opacity=".1"/>
 <path d="m18.99 22c-0.1222 0-0.24538 0.065769-0.29102 0.19922l-1.7734 4.8008h4.1289l-1.7754-4.8008c-0.045655-0.13345-0.16686-0.19922-0.28906-0.19922zm2.0645 5 2.9453 9 2.9453-9h-5.8906zm5.8906 0h4.1289l-1.7734-4.8008c-0.091267-0.2669-0.48877-0.2669-0.58008 0l-1.7754 4.8008zm4.1289 0-7.0742 9 7.748-5.3477c0.2138-0.14751 0.30431-0.40972 0.22266-0.64844l-0.89648-3.0039zm-7.0742 9-7.0742-9-0.89648 3.0039c-0.08165 0.23872 0.008854 0.50093 0.22266 0.64844l7.748 5.3477z" fill="#333e34" fill-rule="evenodd"/>
</svg>
