<?xml version="1.0" encoding="UTF-8"?>
<svg width="48" height="48" version="1" xmlns="http://www.w3.org/2000/svg">
 <rect x="4" y="17" width="40" height="26" rx="2" ry="2" opacity=".2"/>
 <path d="m4 34c0 1.108 0.892 2 2 2h36c1.108 0 2-0.892 2-2v-22c0-1.108-0.892-2-2-2h-18c-3 0-4-4-7-4h-11c-1.108 0-2 0.892-2 2" fill="#477a5b"/>
 <rect x="4" y="15" width="40" height="26" rx="2" ry="2" opacity=".2"/>
 <rect x="6" y="13" width="36" height="16" rx="2" ry="2" fill="#DCE0BB"/>
 <rect x="4" y="16" width="40" height="26" rx="2" ry="2" fill="#8bba7f"/>
 <path d="m6 6c-1.108 0-2 0.892-2 2v1c0-1.108 0.892-2 2-2h11c3 0 4 4 7 4h18c1.108 0 2 0.892 2 2v-1c0-1.108-0.892-2-2-2h-18c-3 0-4-4-7-4z" fill="#DCE0BB" opacity=".1"/>
 <path d="m20 22s-1 1-1 3c0 2.419 1.7177 4.4372 4 4.9004v5.0996h-2v1h6v-1h-2v-5.0996c2.2823-0.46322 4-2.4814 4-4.9004 0-2-1-3-1-3h-8z" fill="#39433D"/>
</svg>
