<?xml version="1.0" encoding="UTF-8"?>
<svg width="48" height="48" version="1" xmlns="http://www.w3.org/2000/svg">
 <rect x="4" y="17" width="40" height="26" rx="2" ry="2" opacity=".2"/>
 <path d="m4 34c0 1.108 0.892 2 2 2h36c1.108 0 2-0.892 2-2v-22c0-1.108-0.892-2-2-2h-18c-3 0-4-4-7-4h-11c-1.108 0-2 0.892-2 2" fill="#8f3f71"/>
 <rect x="4" y="15" width="40" height="26" rx="2" ry="2" opacity=".2"/>
 <rect x="6" y="13" width="36" height="16" rx="2" ry="2" fill="#E1D4B6"/>
 <rect x="4" y="16" width="40" height="26" rx="2" ry="2" fill="#d3869b"/>
 <path d="m6 6c-1.108 0-2 0.892-2 2v1c0-1.108 0.892-2 2-2h11c3 0 4 4 7 4h18c1.108 0 2 0.892 2 2v-1c0-1.108-0.892-2-2-2h-18c-3 0-4-4-7-4z" fill="#E1D4B6" opacity=".1"/>
 <path d="m20 21-5 3 4 2.9-4.01 3 5.01 3.1 4-3-5-3 5-3 5 3-5 3 4 3 5.01-3.1-4.01-2.9 4-3-5-3-4 2.9zm4 10-4 3-1-0.6v0.6l5 3 5-3v-0.6l-1 0.6z" fill="#393534"/>
</svg>
