<?xml version="1.0" encoding="UTF-8"?>
<svg width="48" height="48" version="1" xmlns="http://www.w3.org/2000/svg">
 <rect x="4" y="17" width="40" height="26" rx="2" ry="2" opacity=".2"/>
 <path d="m4 34c0 1.108 0.892 2 2 2h36c1.108 0 2-0.892 2-2v-22c0-1.108-0.892-2-2-2h-18c-3 0-4-4-7-4h-11c-1.108 0-2 0.892-2 2" fill="#4c7a5d"/>
 <rect x="4" y="15" width="40" height="26" rx="2" ry="2" opacity=".2"/>
 <rect x="6" y="13" width="36" height="16" rx="2" ry="2" fill="#DBE3C7"/>
 <rect x="4" y="16" width="40" height="26" rx="2" ry="2" fill="#89b482"/>
 <path d="m6 6c-1.108 0-2 0.892-2 2v1c0-1.108 0.892-2 2-2h11c3 0 4 4 7 4h18c1.108 0 2 0.892 2 2v-1c0-1.108-0.892-2-2-2h-18c-3 0-4-4-7-4z" fill="#DBE3C7" opacity=".1"/>
 <path d="m27 21c-0.35 0.13-0.71 0.299-1 0.539-1.38 1.11-1.299 3.02 0.051 4.16 0.28 0.24 0.609 0.401 0.949 0.551v2.346c0.893 0.387 1.651 0.944 2.248 1.615 0.304 0.342 0.543 0.72 0.752 1.111v-5.072c0.34-0.13 0.659-0.321 0.949-0.551 1.38-1.12 1.391-2.949 0.051-4.099-0.29-0.24-0.65-0.46-1-0.6v2.25c0 0.46-0.45 0.75-1 0.75h-1c-0.56 0-1-0.29-1-0.75zm-3 8c-4 0-6 3-6 6h-1.75c-0.25 0-0.25 0.25-0.25 0.25v1.5c0 0.25 0.25 0.25 0.25 0.25h15.5s0.25 0 0.25-0.25v-1.5s0-0.25-0.25-0.25h-1.75c0-3-2-6-6-6zm0 3c2.35 0 3 1.76 3 3h-6c0-1.2 0.7-3 3-3z" fill="#414A42"/>
</svg>
