<?xml version="1.0" encoding="UTF-8"?>
<svg width="48" height="48" version="1" xmlns="http://www.w3.org/2000/svg">
 <rect x="4" y="17" width="40" height="26" rx="2" ry="2" opacity=".2"/>
 <path d="m4 34c0 1.108 0.892 2 2 2h36c1.108 0 2-0.892 2-2v-22c0-1.108-0.892-2-2-2h-18c-3 0-4-4-7-4h-11c-1.108 0-2 0.892-2 2" fill="#c14a4a"/>
 <rect x="4" y="15" width="40" height="26" rx="2" ry="2" opacity=".2"/>
 <rect x="6" y="13" width="36" height="16" rx="2" ry="2" fill="#f0ddc3"/>
 <rect x="4" y="16" width="40" height="26" rx="2" ry="2" fill="#ea6962"/>
 <path d="m6 6c-1.108 0-2 0.892-2 2v1c0-1.108 0.892-2 2-2h11c3 0 4 4 7 4h18c1.108 0 2 0.892 2 2v-1c0-1.108-0.892-2-2-2h-18c-3 0-4-4-7-4z" fill="#f0ddc3" opacity=".1"/>
 <path d="m24.465 22.016c-0.75501-0.05084-1.5268 0.02146-2.2871 0.22656-3.0412 0.82039-5.1666 3.5825-5.1777 6.7324a1.0001 1.0001 0 0 0 2e-3 0.02539h-1.002l2 2 2-2h-1a1.0001 1.0001 0 0 0 0-0.01758c8e-3 -2.258 1.5171-4.2224 3.6973-4.8105 2.1801-0.58811 4.4727 0.35114 5.6152 2.2988 1.1425 1.9477 0.84281 4.4055-0.73438 6.0215-1.5362 1.574-4.0817 1.7483-6.0938 0.63281a1.0001 1.0001 0 1 0-0.96875 1.75c2.7177 1.5067 6.2531 1.3098 8.4941-0.98633 2.2001-2.2542 2.6211-5.7127 1.0273-8.4297-1.1953-2.0377-3.3072-3.2908-5.5723-3.4434zm-0.48047 2.9707a1.0001 1.0001 0 0 0-0.98438 1.0137v2.8633a1.0001 1.0001 0 0 0 0.06445 0.49805 1.0001 1.0001 0 0 0 0.33203 0.44922l1.8965 1.8965a1.0001 1.0001 0 1 0 1.4141-1.4141l-1.707-1.707v-2.5859a1.0001 1.0001 0 0 0-1.0156-1.0137z" fill="#543937"/>
</svg>
