<?xml version="1.0" encoding="UTF-8"?>
<svg width="48" height="48" version="1" xmlns="http://www.w3.org/2000/svg">
 <rect x="4" y="17" width="40" height="26" rx="2" ry="2" opacity=".2"/>
 <path d="m4 34c0 1.108 0.892 2 2 2h36c1.108 0 2-0.892 2-2v-22c0-1.108-0.892-2-2-2h-18c-3 0-4-4-7-4h-11c-1.108 0-2 0.892-2 2" fill="#af2528"/>
 <rect x="4" y="15" width="40" height="26" rx="2" ry="2" opacity=".2"/>
 <rect x="6" y="13" width="36" height="16" rx="2" ry="2" fill="#f1d9b5"/>
 <rect x="4" y="16" width="40" height="26" rx="2" ry="2" fill="#f2594b"/>
 <path d="m6 6c-1.108 0-2 0.892-2 2v1c0-1.108 0.892-2 2-2h11c3 0 4 4 7 4h18c1.108 0 2 0.892 2 2v-1c0-1.108-0.892-2-2-2h-18c-3 0-4-4-7-4z" fill="#f1d9b5" opacity=".1"/>
 <g fill="#4c3432">
  <path d="m31.999 30.937-5.333-8.935h-5.167l5 8.935z"/>
  <path d="m22.499 31.914-2.5 4.048h9.334l2.666-4.048z"/>
  <path d="m20.999 22.999-4.999 8.975 2.666 3.988 5.033-7.977z"/>
 </g>
</svg>
