<?xml version="1.0" encoding="UTF-8"?>
<svg width="48" height="48" version="1" xmlns="http://www.w3.org/2000/svg">
 <rect x="4" y="17" width="40" height="26" rx="2" ry="2" opacity=".2"/>
 <path d="m4 34c0 1.108 0.892 2 2 2h36c1.108 0 2-0.892 2-2v-22c0-1.108-0.892-2-2-2h-18c-3 0-4-4-7-4h-11c-1.108 0-2 0.892-2 2" fill="#6c782e"/>
 <rect x="4" y="15" width="40" height="26" rx="2" ry="2" opacity=".2"/>
 <rect x="6" y="13" width="36" height="16" rx="2" ry="2" fill="#dde5c2"/>
 <rect x="4" y="16" width="40" height="26" rx="2" ry="2" fill="#a9b665"/>
 <path d="m6 6c-1.108 0-2 0.892-2 2v1c0-1.108 0.892-2 2-2h11c3 0 4 4 7 4h18c1.108 0 2 0.892 2 2v-1c0-1.108-0.892-2-2-2h-18c-3 0-4-4-7-4z" fill="#dde5c2" opacity=".1"/>
 <path d="m24 22c-1.5097 0.0032-2.9779 0.49446-4.1855 1.4004l1.4316 1.4316c0.81664-0.54114 1.7742-0.83046 2.7539-0.83203 2.419 0 4.4372 1.7177 4.9004 4h-1.9004l3 5 3-5h-2.0801c-0.4867-3.3906-3.3946-6-6.9199-6zm-6 3-3 5h2.0801c0.4867 3.3906 3.3946 6 6.9199 6 1.5097-0.0032 2.9779-0.49446 4.1855-1.4004l-1.4316-1.4316c-0.81664 0.54114-1.7742 0.83046-2.7539 0.83203-2.419 0-4.4372-1.7177-4.9004-4h1.9004l-3-5z" fill="#424a3e"/>
</svg>
