<?xml version="1.0" encoding="UTF-8"?>
<svg width="48" height="48" version="1" xmlns="http://www.w3.org/2000/svg">
 <rect x="4" y="17" width="40" height="26" rx="2" ry="2" opacity=".2"/>
 <path d="m4 34c0 1.108 0.892 2 2 2h36c1.108 0 2-0.892 2-2v-22c0-1.108-0.892-2-2-2h-18c-3 0-4-4-7-4h-11c-1.108 0-2 0.892-2 2" fill="#4c7a5d"/>
 <rect x="4" y="15" width="40" height="26" rx="2" ry="2" opacity=".2"/>
 <rect x="6" y="13" width="36" height="16" rx="2" ry="2" fill="#DBE3C7"/>
 <rect x="4" y="16" width="40" height="26" rx="2" ry="2" fill="#89b482"/>
 <path d="m6 6c-1.108 0-2 0.892-2 2v1c0-1.108 0.892-2 2-2h11c3 0 4 4 7 4h18c1.108 0 2 0.892 2 2v-1c0-1.108-0.892-2-2-2h-18c-3 0-4-4-7-4z" fill="#DBE3C7" opacity=".1"/>
 <path d="m19.78 23.002c-0.24 0-0.52 0.07-0.81 0.221-1.03 0.551-1.99 2.334-2.51 4.659-0.44 1.984-0.6 4.679-0.34 5.763 0.23 0.942 0.63 1.355 1.34 1.355 1.04-0.02 2.35-1.185 3.19-2.759 0.6-0.872 2-1.263 3.35-1.223 1.34-0.05 2.74 0.351 3.34 1.223 0.84 1.574 2.15 2.739 3.2 2.759 0.7 0 1.1-0.413 1.33-1.355 0.26-1.084 0.1-3.779-0.34-5.763-0.52-2.325-1.48-4.108-2.51-4.659-0.57-0.311-1.04-0.301-1.46 0-0.53 0.381-1.63 0.78-3.56 0.78-1.94 0-3.04-0.399-3.57-0.78-0.21-0.151-0.41-0.221-0.65-0.221zm0.25 3.006h0.99v1.002h0.99v1.002h-0.99v1.002h-0.99v-1.002h-0.99v-1.002h0.99zm7.44 0c0.27 0 0.49 0.22 0.49 0.501 0 0.28-0.22 0.501-0.49 0.501-0.28 0-0.5-0.221-0.5-0.501 0-0.281 0.22-0.501 0.5-0.501zm-0.99 1.002c0.27 0 0.49 0.22 0.49 0.501 0 0.28-0.22 0.501-0.49 0.501-0.28 0-0.5-0.221-0.5-0.501 0-0.281 0.22-0.501 0.5-0.501zm1.98 0c0.27 0 0.49 0.22 0.49 0.501 0 0.28-0.22 0.501-0.49 0.501-0.28 0-0.5-0.221-0.5-0.501 0-0.281 0.22-0.501 0.5-0.501zm-0.99 1.002c0.27 0 0.49 0.22 0.49 0.501 0 0.28-0.22 0.501-0.49 0.501-0.28 0-0.5-0.221-0.5-0.501 0-0.281 0.22-0.501 0.5-0.501z" fill="#414A42"/>
</svg>
