<?xml version="1.0" encoding="UTF-8"?>
<svg width="48" height="48" version="1" xmlns="http://www.w3.org/2000/svg">
 <rect x="4" y="17" width="40" height="26" rx="2" ry="2" opacity=".2"/>
 <path d="m4 34c0 1.108 0.892 2 2 2h36c1.108 0 2-0.892 2-2v-22c0-1.108-0.892-2-2-2h-18c-3 0-4-4-7-4h-11c-1.108 0-2 0.892-2 2" fill="#427b58"/>
 <rect x="4" y="15" width="40" height="26" rx="2" ry="2" opacity=".2"/>
 <rect x="6" y="13" width="36" height="16" rx="2" ry="2" fill="#D5D7B3"/>
 <rect x="4" y="16" width="40" height="26" rx="2" ry="2" fill="#8ec07c"/>
 <path d="m6 6c-1.108 0-2 0.892-2 2v1c0-1.108 0.892-2 2-2h11c3 0 4 4 7 4h18c1.108 0 2 0.892 2 2v-1c0-1.108-0.892-2-2-2h-18c-3 0-4-4-7-4z" opacity=".1"/>
 <path d="m18 21c-1.1079 0-1.9998 0.892-1.9998 2v3c0 1.108 0.89192 2 1.9998 2h2.9997c1.1079 0 1.9998-0.892 1.9998-2v-3c0-1.108-0.89192-2-1.9998-2zm8.9991 0c-1.1079 0-1.9998 0.892-1.9998 2v3c0 1.108 0.89192 2 1.9998 2h2.9997c1.1079 0 1.9998-0.892 1.9998-2v-3c0-1.108-0.89192-2-1.9998-2zm-8.9991 9c-1.1079 0-1.9998 0.892-1.9998 2v3c0 1.108 0.89192 2 1.9998 2h2.9997c1.1079 0 1.9998-0.892 1.9998-2v-3c0-1.108-0.89192-2-1.9998-2zm9.9991 0c-0.55395 0-0.9999 0.446-0.9999 1v1h-0.99991c-0.84778 4.15e-4 -1.3105 0.98948-0.7675 1.6406l2.4998 3c0.39975 0.47865 1.1353 0.47865 1.535 0l2.4998-3c0.54297-0.65115 0.080276-1.6402-0.7675-1.6406h-0.9999v-1c0-0.554-0.44596-1-0.9999-1z" fill="#313D38"/>
</svg>
