<?xml version="1.0" encoding="UTF-8"?>
<svg width="24" height="24" version="1" xmlns="http://www.w3.org/2000/svg">
 <rect x="2" y="9.5" width="20" height="12" rx="1" ry="1" opacity=".2"/>
 <path d="m2 17c0 0.554 0.446 1 1 1h18c0.554 0 1-0.446 1-1v-11c0-0.554-0.446-1-1-1h-9c-1.5 0-2-2-3.5-2h-5.5c-0.554 0-1 0.446-1 1" fill="#477a5b"/>
 <rect x="2" y="8.5" width="20" height="12" rx="1" ry="1" opacity=".2"/>
 <rect x="4" y="7" width="16" height="8" rx="1" ry="1" fill="#DCE0BB"/>
 <rect x="2" y="9" width="20" height="12" rx="1" ry="1" fill="#8bba7f"/>
 <path d="m3 3c-0.554 0-1 0.446-1 1v0.5c0-0.554 0.446-1 1-1h5.5c1.5 0 2 2 3.5 2h9c0.554 0 1 0.446 1 1v-0.5c0-0.554-0.446-1-1-1h-9c-1.5 0-2-2-3.5-2z" fill="#DCE0BB" opacity=".1"/>
 <path d="m12 11c-2.2092 0-4 1.791-4 4s1.7908 4 4 4c2.209 0 4-1.791 4-4s-1.791-4-4-4zm-0.286 1.107c0.038-4e-3 0.087 2e-3 0.125 0 5e-3 0.018-0.028 0.083-0.071 0.179-0.278 0.606-0.294 1.316-0.036 1.696 0.047 0.069 0.089 0.134 0.089 0.143 0 8e-3 -0.05 0.018-0.107 0.018-0.133 0-0.26-0.082-0.518-0.286-0.114-0.091-0.263-0.167-0.321-0.179-0.091-0.018-0.115-0.01-0.232 0.108-0.109 0.109-0.143 0.168-0.143 0.267 0 0.379 0.45 0.68 1.286 0.858 1.135 0.24 1.415 0.456 1.446 1.053 0.039 0.749-0.359 1.313-1.232 1.75-0.104 0.052-0.171 0.072-0.214 0.089-0.02-1e-3 -0.035 2e-3 -0.054 0-7e-3 -0.023-0.018-0.076-0.018-0.178 0-0.398-0.156-0.807-0.393-1.036-0.063-0.061-0.24-0.192-0.392-0.286s-0.306-0.203-0.34-0.25c-0.056-0.077-0.061-0.125-0.018-0.267 0.08-0.262 0.174-0.407 0.358-0.572 0.096-0.086 0.193-0.159 0.214-0.161 0.021-1e-3 -0.123-0.045-0.339-0.089-0.217-0.044-0.533-0.137-0.697-0.196-0.2991-0.109-0.703-0.336-0.857-0.5-0.0065-7e-3 -0.0122-0.012-0.0178-0.018 0.2206-0.879 0.8398-1.599 1.6608-1.947 0.172-0.072 0.349-0.122 0.536-0.16 0.093-0.019 0.189-0.026 0.285-0.036zm2.679 1.339c0.067 0.042 0.32 0.59 0.393 0.857 0.093 0.346 0.086 0.943 0 1.286-0.033 0.131-0.076 0.253-0.09 0.268s-0.065-0.072-0.125-0.179c-0.06-0.106-0.251-0.332-0.41-0.5-0.46-0.484-0.532-0.738-0.34-1.125 0.097-0.195 0.52-0.639 0.572-0.607z" fill="#39433D"/>
</svg>
