<?xml version="1.0" encoding="UTF-8"?>
<svg width="24" height="24" version="1" xmlns="http://www.w3.org/2000/svg">
 <rect x="2" y="9.5" width="20" height="12" rx="1" ry="1" opacity=".2"/>
 <path d="m2 17c0 0.554 0.446 1 1 1h18c0.554 0 1-0.446 1-1v-11c0-0.554-0.446-1-1-1h-9c-1.5 0-2-2-3.5-2h-5.5c-0.554 0-1 0.446-1 1" fill="#c35e0a"/>
 <path d="m3 3c-0.554 0-1 0.446-1 1v0.5c0-0.554 0.446-1 1-1h5.5c1.5 0 2 2 3.5 2h9c0.554 0 1 0.446 1 1v-0.5c0-0.554-0.446-1-1-1h-9c-1.5 0-2-2-3.5-2z" fill="#F5E4C1" opacity=".1"/>
 <rect x="2" y="8.5" width="20" height="12" rx="1" ry="1" opacity=".2"/>
 <rect x="4" y="7" width="16" height="8" rx="1" ry="1" fill="#F5E4C1"/>
 <rect x="2" y="9" width="20" height="12" rx="1" ry="1" fill="#e78a4e"/>
 <path d="m8.5713 11c-0.31657 0-0.57129 0.25472-0.57129 0.57129v2.3711c0 0.31657 0.15511 0.57226 0.47168 0.57226 0.31657 0 0.52832-0.25569 0.52832-0.57226v-1.0959l1 0.95721v0.69629h1v-0.25c0-0.1385 0.1115-0.25 0.25-0.25h0.25v-1h-0.69629l-0.95721-1h1.0959c0.31657 0 0.57226-0.21175 0.57226-0.52832 0-0.31657-0.25569-0.47168-0.57226-0.47168zm4.4863 0c-0.31657 0-0.57227 0.15511-0.57227 0.47168 0 0.31657 0.25569 0.52832 0.57227 0.52832h1.0959l-0.95721 1h-0.69629v1h0.25c0.1385 0 0.25 0.1115 0.25 0.25v0.25h1v-0.69629l1-0.95721v1.0959c0 0.31657 0.21175 0.57226 0.52832 0.57226 0.31657 0 0.47168-0.25569 0.47168-0.57226v-2.3711c0-0.31657-0.25472-0.57129-0.57129-0.57129zm2.4707 4.4854c-0.31657 0-0.52832 0.25569-0.52832 0.57227v1.0959l-1-0.95721v-0.69629h-1v0.25c0 0.1385-0.1115 0.25-0.25 0.25h-0.25v1h0.69629l0.95721 1h-1.0959c-0.27261 0-0.4997 0.15755-0.55762 0.40332v0.09668h5e-4c-4.76e-4 0.0095-1e-3 0.01861-1e-3 0.02832 0 0.31657 0.24152 0.47168 0.5581 0.47168h2.3711c0.31659 1e-6 0.57131-0.25472 0.57131-0.57129v-2.3711c0-0.31657-0.15511-0.57227-0.47168-0.57227zm-5.5283 0.01465v0.92871c0 0.31657 0.25472 0.57129 0.57129 0.57129h0.92871v-1h-0.25c-0.1385 0-0.25-0.1115-0.25-0.25v-0.25z" fill="#564135"/>
</svg>
