<?xml version="1.0" encoding="UTF-8"?>
<svg width="24" height="24" version="1" xmlns="http://www.w3.org/2000/svg">
 <rect x="2" y="9.5" width="20" height="12" rx="1" ry="1" opacity=".2"/>
 <path d="m2 17c0 0.554 0.446 1 1 1h18c0.554 0 1-0.446 1-1v-11c0-0.554-0.446-1-1-1h-9c-1.5 0-2-2-3.5-2h-5.5c-0.554 0-1 0.446-1 1" fill="#72761e"/>
 <path d="m3 3c-0.554 0-1 0.446-1 1v0.5c0-0.554 0.446-1 1-1h5.5c1.5 0 2 2 3.5 2h9c0.554 0 1 0.446 1 1v-0.5c0-0.554-0.446-1-1-1h-9c-1.5 0-2-2-3.5-2z" fill="#dee2b6" opacity=".1"/>
 <rect x="2" y="8.5" width="20" height="12" rx="1" ry="1" opacity=".2"/>
 <rect x="4" y="7" width="16" height="8" rx="1" ry="1" fill="#dee2b6"/>
 <rect x="2" y="9" width="20" height="12" rx="1" ry="1" fill="#b0b846"/>
 <path d="m12 11c-2.2091 0-4 1.7909-4 4s1.7909 4 4 4 4-1.7909 4-4-1.7909-4-4-4zm0 0.5c1.933 0 3.5 1.567 3.5 3.5s-1.567 3.5-3.5 3.5-3.5-1.567-3.5-3.5 1.567-3.5 3.5-3.5z" fill="#3b4439"/>
 <path d="m8.5 16 4.5-1 2.5-1.5" fill="none" stroke="#3b4439" stroke-width=".5"/>
 <path d="m15 17.5-2-2.5" fill="none" stroke="#3b4439" stroke-width=".5"/>
 <circle cx="15" cy="18" r="1" fill="#3b4439"/>
 <circle cx="16" cy="13" r="1" fill="#3b4439"/>
 <circle cx="13" cy="15" r="1" fill="#3b4439"/>
 <circle cx="8" cy="16" r="1" fill="#3b4439"/>
</svg>
