<?xml version="1.0" encoding="UTF-8"?>
<svg width="24" height="24" version="1" xmlns="http://www.w3.org/2000/svg">
 <rect x="2" y="9.5" width="20" height="12" rx="1" ry="1" opacity=".2"/>
 <path d="m2 17c0 0.554 0.446 1 1 1h18c0.554 0 1-0.446 1-1v-11c0-0.554-0.446-1-1-1h-9c-1.5 0-2-2-3.5-2h-5.5c-0.554 0-1 0.446-1 1" fill="#b94c07"/>
 <rect x="2" y="8.5" width="20" height="12" rx="1" ry="1" opacity=".2"/>
 <rect x="4" y="7" width="16" height="8" rx="1" ry="1" fill="#F6E0B4"/>
 <rect x="2" y="9" width="20" height="12" rx="1" ry="1" fill="#f28534"/>
 <path d="m3 3c-0.554 0-1 0.446-1 1v0.5c0-0.554 0.446-1 1-1h5.5c1.5 0 2 2 3.5 2h9c0.554 0 1 0.446 1 1v-0.5c0-0.554-0.446-1-1-1h-9c-1.5 0-2-2-3.5-2z" fill="#F6E0B4" opacity=".1"/>
 <g transform="translate(1,1)">
  <path d="m11 10a4 4 0 0 0-4 4h-1l1.4492 2 1.5508-2h-1a3 3 0 0 1 3-3 3 3 0 0 1 3 3 3 3 0 0 1-3 3 3 3 0 0 1-2.1191-0.88086l-0.70703 0.70703a4 4 0 0 0 2.8262 1.1738 4 4 0 0 0 4-4 4 4 0 0 0-4-4zm-1 2v2l1 2h1l-1-2v-2z" fill="#4E3B30"/>
 </g>
</svg>
