<?xml version="1.0" encoding="UTF-8"?>
<svg width="24" height="24" version="1" xmlns="http://www.w3.org/2000/svg">
 <rect x="2" y="9.5" width="20" height="12" rx="1" ry="1" opacity=".2"/>
 <path d="m2 17c0 0.554 0.446 1 1 1h18c0.554 0 1-0.446 1-1v-11c0-0.554-0.446-1-1-1h-9c-1.5 0-2-2-3.5-2h-5.5c-0.554 0-1 0.446-1 1" fill="#266b79"/>
 <rect x="2" y="8.5" width="20" height="12" rx="1" ry="1" opacity=".2"/>
 <rect x="4" y="7" width="16" height="8" rx="1" ry="1" fill="#dadec0"/>
 <rect x="2" y="9" width="20" height="12" rx="1" ry="1" fill="#80aa9e"/>
 <path d="m3 3c-0.554 0-1 0.446-1 1v0.5c0-0.554 0.446-1 1-1h5.5c1.5 0 2 2 3.5 2h9c0.554 0 1 0.446 1 1v-0.5c0-0.554-0.446-1-1-1h-9c-1.5 0-2-2-3.5-2z" fill="#dadec0" opacity=".1"/>
 <path d="m12.88 16.037c-0.56 0.26-1.081 0.258-1.431 0.232-0.417-0.03-0.753-0.144-0.9-0.244-0.091-0.061-0.215-0.038-0.276 0.053-0.062 0.091-0.038 0.215 0.053 0.276 0.237 0.161 0.656 0.28 1.095 0.312 0.074 5e-3 0.155 9e-3 0.243 9e-3 0.381 0 0.866-0.037 1.384-0.278 0.099-0.046 0.142-0.164 0.096-0.264-0.046-0.099-0.165-0.142-0.264-0.096zm2.21-0.295c0.019-1.727 0.196-4.991-3.11-4.727-3.2645 0.263-2.3989 3.711-2.4476 4.866-0.0431 0.611-0.2459 1.358-0.5324 2.118h0.8824c0.0907-0.322 0.1576-0.641 0.1866-0.944 0.053 0.037 0.11 0.073 0.17 0.107 0.099 0.058 0.184 0.136 0.274 0.218 0.21 0.191 0.448 0.408 0.914 0.435 0.031 2e-3 0.063 3e-3 0.093 3e-3 0.471 0 0.793-0.206 1.052-0.372 0.124-0.079 0.231-0.147 0.332-0.18 0.287-0.09 0.537-0.235 0.724-0.419 0.029-0.029 0.056-0.058 0.082-0.089 0.104 0.382 0.247 0.812 0.405 1.241h1.884c-0.452-0.699-0.919-1.383-0.909-2.257zm-5.2416-0.939-1e-4 -1e-3c-0.0324-0.563 0.2377-1.037 0.6027-1.059 0.365-0.021 0.687 0.419 0.719 0.983h1e-3c1e-3 0.03 2e-3 0.06 2e-3 0.09-0.116 0.029-0.22 0.071-0.313 0.121-1e-3 -5e-3 -1e-3 -9e-3 -2e-3 -0.013-0.031-0.32-0.202-0.562-0.381-0.54-0.18 0.022-0.3 0.299-0.269 0.619 0.014 0.14 0.054 0.265 0.11 0.359-0.014 0.011-0.054 0.04-0.099 0.073-0.034 0.025-0.075 0.055-0.125 0.092-0.1359-0.179-0.229-0.435-0.2457-0.724zm3.6986 1.393c-0.013 0.298-0.403 0.578-0.762 0.69l-3e-3 1e-3c-0.149 0.049-0.283 0.134-0.424 0.225-0.237 0.151-0.483 0.309-0.837 0.309-0.024 0-0.048-1e-3 -0.071-3e-3 -0.325-0.019-0.477-0.157-0.669-0.332-0.102-0.093-0.206-0.188-0.342-0.268l-2e-3 -1e-3c-0.292-0.165-0.4736-0.37-0.4852-0.548-0.0057-0.089 0.0338-0.166 0.1172-0.229 0.182-0.136 0.304-0.225 0.385-0.284 0.09-0.066 0.117-0.086 0.137-0.105 0.014-0.013 0.029-0.028 0.046-0.045 0.167-0.162 0.447-0.434 0.876-0.434 0.263 0 0.553 0.101 0.862 0.3 0.146 0.095 0.273 0.139 0.434 0.194 0.11 0.038 0.235 0.081 0.403 0.153l3e-3 1e-3c0.156 0.065 0.341 0.182 0.332 0.376zm-0.086-0.7c-0.03-0.015-0.061-0.029-0.094-0.043-0.151-0.065-0.272-0.108-0.373-0.143 0.056-0.109 0.09-0.245 0.093-0.392 8e-3 -0.358-0.172-0.648-0.403-0.649-0.23-1e-3 -0.423 0.289-0.431 0.647v0.035c-0.142-0.065-0.282-0.112-0.418-0.142-1e-3 -0.013-2e-3 -0.027-2e-3 -0.04-0.013-0.653 0.387-1.192 0.894-1.206s0.928 0.504 0.942 1.156c5e-3 0.295-0.073 0.567-0.208 0.777z" fill="#374141"/>
</svg>
