<?xml version="1.0" encoding="UTF-8"?>
<svg width="24" height="24" version="1" xmlns="http://www.w3.org/2000/svg">
 <rect x="2" y="9.5" width="20" height="12" rx="1" ry="1" opacity=".2"/>
 <path d="m2 17c0 0.554 0.446 1 1 1h18c0.554 0 1-0.446 1-1v-11c0-0.554-0.446-1-1-1h-9c-1.5 0-2-2-3.5-2h-5.5c-0.554 0-1 0.446-1 1" fill="#6c782e"/>
 <rect x="2" y="8.5" width="20" height="12" rx="1" ry="1" opacity=".2"/>
 <rect x="4" y="7" width="16" height="8" rx="1" ry="1" fill="#dde5c2"/>
 <rect x="2" y="9" width="20" height="12" rx="1" ry="1" fill="#a9b665"/>
 <path d="m3 3c-0.554 0-1 0.446-1 1v0.5c0-0.554 0.446-1 1-1h5.5c1.5 0 2 2 3.5 2h9c0.554 0 1 0.446 1 1v-0.5c0-0.554-0.446-1-1-1h-9c-1.5 0-2-2-3.5-2z" fill="#dde5c2" opacity=".1"/>
 <path d="m12.5 11c-1.933 0-3.5 1.567-3.5 3.5s1.567 3.5 3.5 3.5h2.188s0.41 0 0.437-0.438c0-0.437-0.437-0.437-0.437-0.437h-2.188c-1.45 0-2.625-1.175-2.625-2.625s1.175-2.625 2.625-2.625 2.625 1.175 2.625 2.625v0.438c0 0.241-0.196 0.437-0.437 0.437-0.242 0-0.438-0.196-0.438-0.437v-0.438c0-0.966-0.783-1.75-1.75-1.75-0.966 0-1.75 0.784-1.75 1.75 0 0.967 0.784 1.75 1.75 1.75 0.458 0 0.871-0.181 1.183-0.468 0.249 0.296 0.617 0.468 1.005 0.468 0.725 0 1.312-0.588 1.312-1.313v-0.437c0-1.933-1.567-3.5-3.5-3.5zm0 2.625c0.483 0 0.875 0.392 0.875 0.875s-0.392 0.875-0.875 0.875-0.875-0.392-0.875-0.875 0.392-0.875 0.875-0.875z" fill="#424a3e"/>
</svg>
