<?xml version="1.0" encoding="UTF-8"?>
<svg width="24" height="24" version="1.1" xmlns="http://www.w3.org/2000/svg">
 <rect x="2" y="3.5" width="20" height="18" rx="1" ry="1" opacity=".2"/>
 <path d="m2 4.9v15.1c0 0.554 0.446 1 1 1h18c0.554 0 1-0.446 1-1v-15.1z" fill="#f2594b"/>
 <path d="m3 3c-0.554 0-1 0.45-1 1v1h20v-1c0-0.55-0.446-1-1-1z" fill="#4c3432"/>
 <path d="m8 19c-0.554 0-1 0.45-1 1v1h10v-1c0-0.55-0.446-1-1-1z" fill="#4c3432"/>
 <path d="m3 3c-0.554 0-1 0.45-1 1v0.5c0-0.55 0.446-1 1-1h18c0.554 0 1 0.45 1 1v-0.5c0-0.55-0.446-1-1-1z" fill="#f1d9b5" opacity=".1"/>
</svg>
