<?xml version="1.0" encoding="UTF-8"?>
<svg width="24" height="24" version="1" xmlns="http://www.w3.org/2000/svg">
 <rect x="2" y="9.5" width="20" height="12" rx="1" ry="1" opacity=".2"/>
 <path d="m2 17c0 0.554 0.446 1 1 1h18c0.554 0 1-0.446 1-1v-11c0-0.554-0.446-1-1-1h-9c-1.5 0-2-2-3.5-2h-5.5c-0.554 0-1 0.446-1 1" fill="#4c7a5d"/>
 <rect x="2" y="8.5" width="20" height="12" rx="1" ry="1" opacity=".2"/>
 <rect x="4" y="7" width="16" height="8" rx="1" ry="1" fill="#DBE3C7"/>
 <rect x="2" y="9" width="20" height="12" rx="1" ry="1" fill="#89b482"/>
 <path d="m3 3c-0.554 0-1 0.446-1 1v0.5c0-0.554 0.446-1 1-1h5.5c1.5 0 2 2 3.5 2h9c0.554 0 1 0.446 1 1v-0.5c0-0.554-0.446-1-1-1h-9c-1.5 0-2-2-3.5-2z" fill="#DBE3C7" opacity=".1"/>
 <path d="m9 11v1.5h6v-1.5zm-0.5 2c-0.25 0-0.5 0.25-0.5 0.5v2c0 0.25 0.25 0.5 0.5 0.5h0.5v2h6v-2h0.5c0.25 0 0.5-0.25 0.5-0.5v-2c0-0.25-0.25-0.5-0.5-0.5zm0.5 2h6v0.5h-6z" fill="#414A42"/>
</svg>
