<?xml version="1.0" encoding="UTF-8"?>
<svg width="24" height="24" version="1" xmlns="http://www.w3.org/2000/svg">
 <rect x="2" y="9.5" width="20" height="12" rx="1" ry="1" opacity=".2"/>
 <path d="m2 17c0 0.554 0.446 1 1 1h18c0.554 0 1-0.446 1-1v-11c0-0.554-0.446-1-1-1h-9c-1.5 0-2-2-3.5-2h-5.5c-0.554 0-1 0.446-1 1" fill="#45707a"/>
 <rect x="2" y="8.5" width="20" height="12" rx="1" ry="1" opacity=".2"/>
 <rect x="4" y="7" width="16" height="8" rx="1" ry="1" fill="#d9e1cc"/>
 <rect x="2" y="9" width="20" height="12" rx="1" ry="1" fill="#7daea3"/>
 <path d="m3 3c-0.554 0-1 0.446-1 1v0.5c0-0.554 0.446-1 1-1h5.5c1.5 0 2 2 3.5 2h9c0.554 0 1 0.446 1 1v-0.5c0-0.554-0.446-1-1-1h-9c-1.5 0-2-2-3.5-2z" fill="#d9e1cc" opacity=".1"/>
 <path d="m11.586 11s0.413 0.233 0.122 0.844c-0.441 0.921 0.406 1.132 0.406 1.132s-0.269-0.217 0.09-0.977c0.396-0.842-0.618-0.999-0.618-0.999zm1.6 0.92s-0.821 0.315-0.292 1.176c0.35 0.57-0.038 0.853-0.038 0.853s0.992-0.281 0.514-1.069c-0.431-0.712-0.184-0.96-0.184-0.96zm-2.365 0.023s-0.718 0.548-6e-3 1.221c0.47 0.448 0.162 0.836 0.162 0.836s0.891-0.566 0.247-1.186c-0.582-0.558-0.403-0.87-0.403-0.87zm0.156 2.057h-1.977l1 4h4l0.138-0.549c0.116 0.029 0.237 0.049 0.362 0.049 0.828 0 1.5-0.672 1.5-1.5 0-0.703-0.485-1.289-1.138-1.451l0.138-0.549h-4.024zm3.765 1.031c6e-3 1e-3 0.011 2e-3 0.017 3e-3 0.267 0.071 0.367 0.562 0.224 1.096-0.14 0.52-0.46 0.891-0.725 0.839z" fill="#404946"/>
</svg>
