<?xml version="1.0" encoding="UTF-8"?>
<svg width="24" height="24" version="1" xmlns="http://www.w3.org/2000/svg">
 <rect x="2" y="9.5" width="20" height="12" rx="1" ry="1" opacity=".2"/>
 <path d="m2 17c0 0.554 0.446 1 1 1h18c0.554 0 1-0.446 1-1v-11c0-0.554-0.446-1-1-1h-9c-1.5 0-2-2-3.5-2h-5.5c-0.554 0-1 0.446-1 1" fill="#427b58"/>
 <rect x="2" y="8.5" width="20" height="12" rx="1" ry="1" opacity=".2"/>
 <rect x="4" y="7" width="16" height="8" rx="1" ry="1" fill="#D5D7B3"/>
 <rect x="2" y="9" width="20" height="12" rx="1" ry="1" fill="#8ec07c"/>
 <path d="m3 3c-0.554 0-1 0.446-1 1v0.5c0-0.554 0.446-1 1-1h5.5c1.5 0 2 2 3.5 2h9c0.554 0 1 0.446 1 1v-0.5c0-0.554-0.446-1-1-1h-9c-1.5 0-2-2-3.5-2z" fill="#D5D7B3" opacity=".1"/>
 <path d="m13.989 11c-0.497 0.018-1.098 0.287-1.454 0.653-0.319 0.325-0.598 0.843-0.523 1.34 0.554 0.038 1.118-0.247 1.463-0.613 0.345-0.367 0.577-0.872 0.514-1.38zm-0.45 2.003c-0.623-0.062-0.914 0.363-1.23 0.363s-0.804-0.353-1.32-0.343c-0.679 0.01-1.3071 0.389-1.6567 0.99-0.7055 1.21-0.1798 3.003 0.5078 3.984 0.3359 0.48 0.7469 1.003 1.2639 1.003s0.698-0.327 1.31-0.327c0.613 0 0.479 0.327 1.02 0.327s0.791-0.503 1.125-0.985c0.386-0.557 0.441-1.015 0.441-1.015s-0.992-0.512-1.002-1.708c-0.01-1.001 1.002-1.506 1.002-1.506-0.47-0.679-1.2-0.772-1.461-0.783z" fill="#313D38"/>
</svg>
