<?xml version="1.0" encoding="UTF-8"?>
<svg width="24" height="24" version="1" xmlns="http://www.w3.org/2000/svg">
 <rect x="2" y="9.5" width="20" height="12" rx="1" ry="1" opacity=".2"/>
 <path d="m2 17c0 0.554 0.446 1 1 1h18c0.554 0 1-0.446 1-1v-11c0-0.554-0.446-1-1-1h-9c-1.5 0-2-2-3.5-2h-5.5c-0.554 0-1 0.446-1 1" fill="#b47109"/>
 <rect x="2" y="8.5" width="20" height="12" rx="1" ry="1" opacity=".2"/>
 <rect x="4" y="7" width="16" height="8" rx="1" ry="1" fill="#f9eabf"/>
 <rect x="2" y="9" width="20" height="12" rx="1" ry="1" fill="#d8a657"/>
 <path d="m3 3c-0.554 0-1 0.446-1 1v0.5c0-0.554 0.446-1 1-1h5.5c1.5 0 2 2 3.5 2h9c0.554 0 1 0.446 1 1v-0.5c0-0.554-0.446-1-1-1h-9c-1.5 0-2-2-3.5-2z" fill="#f9eabf" opacity=".1"/>
 <path d="m9.4948 11c-0.0611 0-0.12227 0.0333-0.14509 0.10002l-0.88726 2.8999h2.0647l-0.88726-2.8999c-0.02283-0.06672-0.08399-0.10002-0.14509-0.10002zm1.0324 2.9999 1.4728 4 1.4728-4zm2.9456 0h2.0647l-0.88726-2.8999c-0.04563-0.13345-0.24452-0.13345-0.29017 0zm2.0647 0-3.5375 4 3.8742-2.6739c0.1069-0.07375 0.15168-0.20444 0.11086-0.3238zm-3.5375 4-3.5375-4-0.44754 1.0023c-0.04082 0.11936 4e-3 0.25005 0.11086 0.3238z" fill="#574833" fill-rule="evenodd"/>
</svg>
