<?xml version="1.0" encoding="UTF-8"?>
<svg width="24" height="24" version="1" xmlns="http://www.w3.org/2000/svg">
 <rect x="2" y="9.5" width="20" height="12" rx="1" ry="1" opacity=".2"/>
 <path d="m2 17c0 0.554 0.446 1 1 1h18c0.554 0 1-0.446 1-1v-11c0-0.554-0.446-1-1-1h-9c-1.5 0-2-2-3.5-2h-5.5c-0.554 0-1 0.446-1 1" fill="#72761e"/>
 <rect x="2" y="8.5" width="20" height="12" rx="1" ry="1" opacity=".2"/>
 <rect x="4" y="7" width="16" height="8" rx="1" ry="1" fill="#dee2b6"/>
 <rect x="2" y="9" width="20" height="12" rx="1" ry="1" fill="#b0b846"/>
 <path d="m3 3c-0.554 0-1 0.446-1 1v0.5c0-0.554 0.446-1 1-1h5.5c1.5 0 2 2 3.5 2h9c0.554 0 1 0.446 1 1v-0.5c0-0.554-0.446-1-1-1h-9c-1.5 0-2-2-3.5-2z" fill="#dee2b6" opacity=".1"/>
 <path d="m12.801 12c-0.802 0-1.537 0.509-1.901 1.312-0.159-0.073-0.328-0.113-0.5-0.113-0.6664 0-1.2315 0.557-1.32 1.301-0.6464 0.25-1.079 0.931-1.0801 1.699 0 0.994 0.716 1.801 1.5996 1.801h4.8005c0.884 0 1.6-0.807 1.6-1.801-1e-3 -0.764-0.429-1.442-1.07-1.695 2e-3 -0.034 2e-3 -0.069 4e-3 -0.104 0-1.325-0.955-2.4-2.133-2.4zm0 1c0.569 0 1.132 0.555 1.133 1.398v2e-3c-1e-3 0.015-2e-3 0.033-2e-3 0.041a1.0001 1.0001 0 0 0 0.63 0.993c0.213 0.083 0.437 0.377 0.438 0.765 0 0.514-0.324 0.801-0.6 0.801h-4.8005c-0.2752 0-0.5986-0.287-0.5996-0.799v-2e-3c0.0014-0.392 0.2271-0.685 0.4414-0.767a1.0001 1.0001 0 0 0 0.6327-0.815c0.037-0.307 0.215-0.418 0.326-0.418 0.023 0 0.05 7e-3 0.082 0.022a1.0001 1.0001 0 0 0 1.33-0.496c0.221-0.488 0.609-0.725 0.989-0.725z" fill="#3b4439"/>
</svg>
