<?xml version="1.0" encoding="UTF-8"?>
<svg width="24" height="24" version="1" xmlns="http://www.w3.org/2000/svg">
 <rect x="2" y="9.5" width="20" height="12" rx="1" ry="1" opacity=".2"/>
 <path d="m2 17c0 0.554 0.446 1 1 1h18c0.554 0 1-0.446 1-1v-11c0-0.554-0.446-1-1-1h-9c-1.5 0-2-2-3.5-2h-5.5c-0.554 0-1 0.446-1 1" fill="#af2528"/>
 <rect x="2" y="8.5" width="20" height="12" rx="1" ry="1" opacity=".2"/>
 <rect x="4" y="7" width="16" height="8" rx="1" ry="1" fill="#f1d9b5"/>
 <rect x="2" y="9" width="20" height="12" rx="1" ry="1" fill="#f2594b"/>
 <path d="m3 3c-0.554 0-1 0.446-1 1v0.5c0-0.554 0.446-1 1-1h5.5c1.5 0 2 2 3.5 2h9c0.554 0 1 0.446 1 1v-0.5c0-0.554-0.446-1-1-1h-9c-1.5 0-2-2-3.5-2z" fill="#f1d9b5" opacity=".1"/>
 <path d="m8.7165 10.361-0.3555 0.356 0.9551 0.955a1.5 1.5 0 0 0-0.2774 0.867 1.5 1.5 0 0 0 1.2503 1.479v2.043a1.5 1.5 0 0 0-1.2503 1.478 1.5 1.5 0 0 0 1.5003 1.5 1.5 1.5 0 0 0 1.5-1.5 1.5 1.5 0 0 0-1.25-1.478v-2.043a1.5 1.5 0 0 0 0.617-0.256l0.91 0.91a1.5 1.5 0 0 0-0.277 0.868 1.5 1.5 0 0 0 1.5 1.5 1.5 1.5 0 0 0 1.5-1.5 1.5 1.5 0 0 0-1.5-1.5 1.5 1.5 0 0 0-0.867 0.277l-0.911-0.91a1.5 1.5 0 0 0 0.278-0.867 1.5 1.5 0 0 0-1.5-1.5 1.5 1.5 0 0 0-0.8676 0.277l-0.955-0.955z" fill="#4c3432"/>
</svg>
