<?xml version="1.0" encoding="UTF-8"?>
<svg width="24" height="24" version="1" xmlns="http://www.w3.org/2000/svg">
 <rect x="2" y="9.5" width="20" height="12" rx="1" ry="1" opacity=".2"/>
 <path d="m2 17c0 0.554 0.446 1 1 1h18c0.554 0 1-0.446 1-1v-11c0-0.554-0.446-1-1-1h-9c-1.5 0-2-2-3.5-2h-5.5c-0.554 0-1 0.446-1 1" fill="#72761e"/>
 <rect x="2" y="8.5" width="20" height="12" rx="1" ry="1" opacity=".2"/>
 <rect x="4" y="7" width="16" height="8" rx="1" ry="1" fill="#dee2b6"/>
 <rect x="2" y="9" width="20" height="12" rx="1" ry="1" fill="#b0b846"/>
 <path d="m3 3c-0.554 0-1 0.446-1 1v0.5c0-0.554 0.446-1 1-1h5.5c1.5 0 2 2 3.5 2h9c0.554 0 1 0.446 1 1v-0.5c0-0.554-0.446-1-1-1h-9c-1.5 0-2-2-3.5-2z" fill="#dee2b6" opacity=".1"/>
 <path d="m14.117 12c-0.12 1e-3 -0.23 0.039-0.334 0.113-0.263 0.189-0.814 0.39-1.783 0.391-0.97 1e-3 -1.52-0.202-1.783-0.391-0.104-0.074-0.203-0.11-0.3244-0.109-0.1212 0-0.2599 0.033-0.4024 0.109-0.5188 0.274-0.9964 1.17-1.2558 2.332-0.2212 0.988-0.3018 2.338-0.1699 2.881 0.115 0.467 0.3139 0.674 0.666 0.674 0.523-9e-3 1.1791-0.591 1.5955-1.377 0.302-0.435 1-0.633 1.674-0.611 0.674-0.024 1.372 0.176 1.674 0.611 0.417 0.785 1.073 1.368 1.596 1.377 0.352 0 0.551-0.207 0.666-0.674 0.131-0.543 0.051-1.893-0.17-2.881-0.259-1.162-0.736-2.058-1.254-2.332-0.143-0.076-0.274-0.114-0.395-0.113zm-4.117 1a1 1 0 0 1 1 1 1 1 0 0 1-1 1 1 1 0 0 1-1-1 1 1 0 0 1 1-1zm3.5 0a0.5001 0.49995 0 0 1 0.5 0.5 0.5001 0.49995 0 0 1-0.5 0.5 0.5001 0.49995 0 0 1-0.5-0.5 0.5001 0.49995 0 0 1 0.5-0.5zm1 1a0.5001 0.49995 0 0 1 0.5 0.5 0.5001 0.49995 0 0 1-0.5 0.5 0.5001 0.49995 0 0 1-0.5-0.5 0.5001 0.49995 0 0 1 0.5-0.5z" fill="#3b4439"/>
</svg>
