<?xml version="1.0" encoding="UTF-8"?>
<svg width="24" height="24" version="1" xmlns="http://www.w3.org/2000/svg">
 <rect x="2" y="9.5" width="20" height="12" rx="1" ry="1" opacity=".2"/>
 <path d="m2 17c0 0.554 0.446 1 1 1h18c0.554 0 1-0.446 1-1v-11c0-0.554-0.446-1-1-1h-9c-1.5 0-2-2-3.5-2h-5.5c-0.554 0-1 0.446-1 1" fill="#4c7a5d"/>
 <rect x="2" y="8.5" width="20" height="12" rx="1" ry="1" opacity=".2"/>
 <rect x="4" y="7" width="16" height="8" rx="1" ry="1" fill="#DBE3C7"/>
 <rect x="2" y="9" width="20" height="12" rx="1" ry="1" fill="#89b482"/>
 <path d="m3 3c-0.554 0-1 0.446-1 1v0.5c0-0.554 0.446-1 1-1h5.5c1.5 0 2 2 3.5 2h9c0.554 0 1 0.446 1 1v-0.5c0-0.554-0.446-1-1-1h-9c-1.5 0-2-2-3.5-2z" fill="#DBE3C7" opacity=".1"/>
 <path d="m14 11c-0.6 0.212-1 0.777-1 1.412 0 0.652 0.419 1.202 1 1.408v1.18c0.456 0.304 0.781 0.695 1 1.088v-2.268c0.581-0.206 1-0.756 1-1.408 0-0.635-0.4-1.2-1-1.412v1c0 0.277-0.223 0.5-0.5 0.5s-0.5-0.223-0.5-0.5zm-2 4c-3 0-3 3-3 3h-1v1h8v-1h-1s0-3-3-3zm0 1c2 0 2 2 2 2h-4s0-2 2-2z" fill="#414A42"/>
</svg>
