<?xml version="1.0" encoding="UTF-8"?>
<svg width="24" height="24" version="1" xmlns="http://www.w3.org/2000/svg">
 <rect x="2" y="9.5" width="20" height="12" rx="1" ry="1" opacity=".2"/>
 <path d="m2 17c0 0.554 0.446 1 1 1h18c0.554 0 1-0.446 1-1v-11c0-0.554-0.446-1-1-1h-9c-1.5 0-2-2-3.5-2h-5.5c-0.554 0-1 0.446-1 1" fill="#b4730e"/>
 <rect x="2" y="8.5" width="20" height="12" rx="1" ry="1" opacity=".2"/>
 <rect x="4" y="7" width="16" height="8" rx="1" ry="1" fill="#fae7b3"/>
 <rect x="2" y="9" width="20" height="12" rx="1" ry="1" fill="#e9b143"/>
 <path d="m3 3c-0.554 0-1 0.446-1 1v0.5c0-0.554 0.446-1 1-1h5.5c1.5 0 2 2 3.5 2h9c0.554 0 1 0.446 1 1v-0.5c0-0.554-0.446-1-1-1h-9c-1.5 0-2-2-3.5-2z" fill="#fae7b3" opacity=".1"/>
 <path d="m12.5 11c-0.87174 0.0011-1.6799 0.45632-2.1328 1.2012-0.27028-0.13136-0.56668-0.20012-0.86719-0.20117-1.1046 0-2 0.89543-2 2 2.94e-4 0.0065 5.76e-4 0.01302 9.77e-4 0.01953-0.86082 0.12375-1.5001 0.86082-1.501 1.7305 0 0.9665 0.7835 1.75 1.75 1.75 0.31719-0.0012 0.62807-0.08867 0.89941-0.25293-0.0943-0.23143-0.14941-0.4831-0.14941-0.74707 0-0.95146 0.68925-1.7168 1.584-1.915 0.20587-1.1713 1.1882-2.085 2.416-2.085h9.76e-4c0.82241 1e-3 1.5186 0.46704 1.9805 1.126 0.17258-0.04778 0.33824-0.12581 0.51856-0.12598 0-1.3807-1.1193-2.5-2.5-2.5zm0 2a2 2 0 0 0-2 2 1.5 1.5 0 0 0-1.5 1.5 1.5 1.5 0 0 0 1.5 1.5h6.25a1.25 1.25 0 0 0 1.25-1.25 1.25 1.25 0 0 0-1.25-1.25 1.25 1.25 0 0 0-0.25098 0.02734 1.5 1.5 0 0 0 9.77e-4 -0.02734 1.5 1.5 0 0 0-1.5-1.5 1.5 1.5 0 0 0-0.68457 0.16602 2 2 0 0 0-1.8154-1.166z" fill="#4f422e"/>
</svg>
