<?xml version="1.0" encoding="UTF-8"?>
<svg width="32" height="32" version="1" xmlns="http://www.w3.org/2000/svg">
 <rect x="2" y="11" width="28" height="18" rx="1.4" ry="1.4" opacity=".2"/>
 <path d="m2 22.6c0 0.776 0.6244 1.4 1.4 1.4h25.2c0.776 0 1.4-0.624 1.4-1.4v-15.2c0-0.7756-0.624-1.4-1.4-1.4h-12.6c-2.1 0-2.8-3-4.9-3h-7.7c-0.7756 0-1.4 0.6244-1.4 1.4" fill="#4c7a5d"/>
 <rect x="2" y="9" width="28" height="18" rx="1.4" ry="1.4" opacity=".2"/>
 <rect x="4" y="8" width="24" height="11" rx="1.4" ry="1.4" fill="#DBE3C7"/>
 <rect x="2" y="10" width="28" height="18" rx="1.4" ry="1.4" fill="#89b482"/>
 <path d="m3.4004 3c-0.7756 0-1.4004 0.6248-1.4004 1.4004v1c0-0.7756 0.6248-1.4004 1.4004-1.4004h7.6996c2.1 0 2.8 3 4.9 3h12.6c0.775 0 1.4 0.6248 1.4 1.4004v-1c0-0.7756-0.625-1.4004-1.4-1.4004h-12.6c-2.1 0-2.8-3-4.9-3z" fill="#DBE3C7" opacity=".1"/>
 <path d="m3.4 10c-0.7756 0-1.4 0.62775-1.4 1.4062v0.86738l27.004 15.66c0.57568-0.17438 0.99568-0.70312 0.99568-1.3399v-1.458l-26.1-15.136zm6.3202 0 20.28 11.761v-3.375l-14.461-8.3858zm11.638 0 8.6419 5.0108v-3.375l-2.8224-1.6358zm-19.358 5.6486v3.375l15.478 8.9764h5.8195zm0 6.7489v3.375l3.8394 2.2275h5.8195z" fill="#414A42"/>
</svg>
