<?xml version="1.0" encoding="UTF-8"?>
<svg width="32" height="32" version="1" xmlns="http://www.w3.org/2000/svg">
 <rect x="2" y="11" width="28" height="18" rx="1.4" ry="1.4" opacity=".2"/>
 <path d="m2 22.6c0 0.776 0.6244 1.4 1.4 1.4h25.2c0.776 0 1.4-0.624 1.4-1.4v-15.2c0-0.7756-0.624-1.4-1.4-1.4h-12.6c-2.1 0-2.8-3-4.9-3h-7.7c-0.7756 0-1.4 0.6244-1.4 1.4" fill="#c35e0a"/>
 <rect x="2" y="9" width="28" height="18" rx="1.4" ry="1.4" opacity=".2"/>
 <rect x="4" y="8" width="24" height="11" rx="1.4" ry="1.4" fill="#F5E4C1"/>
 <rect x="2" y="10" width="28" height="18" rx="1.4" ry="1.4" fill="#e78a4e"/>
 <path d="m3.4004 3c-0.7756 0-1.4004 0.6248-1.4004 1.4004v1c0-0.7756 0.6248-1.4004 1.4004-1.4004h7.6996c2.1 0 2.8 3 4.9 3h12.6c0.775 0 1.4 0.6248 1.4 1.4004v-1c0-0.7756-0.625-1.4004-1.4-1.4004h-12.6c-2.1 0-2.8-3-4.9-3z" fill="#F5E4C1" opacity=".1"/>
 <path d="m13.6 15s-0.59961 0.625-0.59961 1.875c0 1.3589 0.83716 2.5033 2 2.9336v3.1914h-1v0.57227 0.42773h4v-0.42773-0.57227h-1v-3.1914c1.1628-0.43032 2-1.5747 2-2.9336 0-1.25-0.59961-1.875-0.59961-1.875h-4.8008z" fill="#564135"/>
</svg>
