<?xml version="1.0" encoding="UTF-8"?>
<svg width="32" height="32" version="1" xmlns="http://www.w3.org/2000/svg">
 <rect x="2" y="11" width="28" height="18" rx="1.4" ry="1.4" opacity=".2"/>
 <path d="m2 22.6c0 0.776 0.6244 1.4 1.4 1.4h25.2c0.776 0 1.4-0.624 1.4-1.4v-15.2c0-0.7756-0.624-1.4-1.4-1.4h-12.6c-2.1 0-2.8-3-4.9-3h-7.7c-0.7756 0-1.4 0.6244-1.4 1.4" fill="#945e80"/>
 <rect x="2" y="9" width="28" height="18" rx="1.4" ry="1.4" opacity=".2"/>
 <rect x="4" y="8" width="24" height="11" rx="1.4" ry="1.4" fill="#E5DFC8"/>
 <rect x="2" y="10" width="28" height="18" rx="1.4" ry="1.4" fill="#d3869b"/>
 <path d="m3.4004 3c-0.7756 0-1.4004 0.6248-1.4004 1.4004v1c0-0.7756 0.6248-1.4004 1.4004-1.4004h7.6996c2.1 0 2.8 3 4.9 3h12.6c0.775 0 1.4 0.6248 1.4 1.4004v-1c0-0.7756-0.625-1.4004-1.4-1.4004h-12.6c-2.1 0-2.8-3-4.9-3z" fill="#E5DFC8" opacity=".1"/>
 <path d="m17.2 15c-1.202 0-2.303 0.676-2.848 1.748-0.239-0.097-0.495-0.148-0.752-0.148-1.001 0-1.845 0.741-1.979 1.732-0.968 0.333-1.62 1.244-1.621 2.268 0 1.325 1.075 2.4 2.4 2.4h7.2c1.325 0 2.4-1.075 2.4-2.4-1e-3 -1.019-0.644-1.925-1.605-2.262 3e-3 -0.046 4e-3 -0.093 5e-3 -0.139 0-1.767-1.433-3.199-3.2-3.199zm-1e-3 2c0.685 0 1.197 0.511 1.199 1.195v6e-3c-0.061 0.898 0.485 1.726 1.334 2.024 0.167 0.058 0.267 0.199 0.268 0.375 0 0.244-0.156 0.4-0.4 0.4h-7.2c-0.244 0-0.399-0.155-0.4-0.398v-2e-3c1e-3 -0.178 0.102-0.318 0.27-0.375 0.715-0.246 1.23-0.874 1.332-1.623 0.962 0.39 2.062-0.021 2.533-0.946 0.206-0.406 0.612-0.656 1.064-0.656z" fill="#4A413F"/>
</svg>
