<?xml version="1.0" encoding="UTF-8"?>
<svg width="32" height="32" version="1" xmlns="http://www.w3.org/2000/svg">
 <rect x="2" y="11" width="28" height="18" rx="1.4" ry="1.4" opacity=".2"/>
 <path d="m2 22.6c0 0.776 0.6244 1.4 1.4 1.4h25.2c0.776 0 1.4-0.624 1.4-1.4v-15.2c0-0.7756-0.624-1.4-1.4-1.4h-12.6c-2.1 0-2.8-3-4.9-3h-7.7c-0.7756 0-1.4 0.6244-1.4 1.4" fill="#076678"/>
 <rect x="2" y="9" width="28" height="18" rx="1.4" ry="1.4" opacity=".2"/>
 <rect x="4" y="8" width="24" height="11" rx="1.4" ry="1.4" fill="#d3d5b8"/>
 <rect x="2" y="10" width="28" height="18" rx="1.4" ry="1.4" fill="#83a598"/>
 <path d="m3.4004 3c-0.7756 0-1.4004 0.6248-1.4004 1.4004v1c0-0.7756 0.6248-1.4004 1.4004-1.4004h7.6996c2.1 0 2.8 3 4.9 3h12.6c0.775 0 1.4 0.6248 1.4 1.4004v-1c0-0.7756-0.625-1.4004-1.4-1.4004h-12.6c-2.1 0-2.8-3-4.9-3z" fill="#d3d5b8" opacity=".1"/>
 <path d="m16 13a5 5 0 0 0-4.6035 3.0488 4 4 0 0 0-3.3965 3.9512 4 4 0 0 0 3.8086 3.9902v0.009766h9.7148a2.4762 2.4762 0 0 0 2.4766-2.4766 2.4762 2.4762 0 0 0-1.1777-2.1055 2.5 2.5 0 0 0 0.17773-0.91797 2.5 2.5 0 0 0-2.4219-2.4961 5 5 0 0 0-4.5781-3.0039zm-2 3h4v3h-3v2h-1v-2zm1 1v1h2v-1z" fill="#2e3b3b"/>
</svg>
