<?xml version="1.0" encoding="UTF-8"?>
<svg width="32" height="32" version="1" xmlns="http://www.w3.org/2000/svg">
 <rect x="2" y="11" width="28" height="18" rx="1.4" ry="1.4" opacity=".2"/>
 <path d="m2 22.6c0 0.776 0.6244 1.4 1.4 1.4h25.2c0.776 0 1.4-0.624 1.4-1.4v-15.2c0-0.7756-0.624-1.4-1.4-1.4h-12.6c-2.1 0-2.8-3-4.9-3h-7.7c-0.7756 0-1.4 0.6244-1.4 1.4" fill="#72761e"/>
 <rect x="2" y="9" width="28" height="18" rx="1.4" ry="1.4" opacity=".2"/>
 <rect x="4" y="8" width="24" height="11" rx="1.4" ry="1.4" fill="#dee2b6"/>
 <rect x="2" y="10" width="28" height="18" rx="1.4" ry="1.4" fill="#b0b846"/>
 <path d="m3.4004 3c-0.7756 0-1.4004 0.6248-1.4004 1.4004v1c0-0.7756 0.6248-1.4004 1.4004-1.4004h7.6996c2.1 0 2.8 3 4.9 3h12.6c0.775 0 1.4 0.6248 1.4 1.4004v-1c0-0.7756-0.625-1.4004-1.4-1.4004h-12.6c-2.1 0-2.8-3-4.9-3z" fill="#dee2b6" opacity=".1"/>
 <path d="m10.99 14.988a1.0001 1.0001 0 0 0-0.76367 1.6445l1.0762 1.3164c-0.74224 1.0347-1.1269 2.4684-1.3008 4.2812-0.036747 0.76997 0.77539 0.76953 0.77539 0.76953h10.426s0.83545-1.68e-4 0.79492-0.80859c-0.18902-1.8748-0.60198-3.3377-1.4023-4.373l1.1113-1.1113a1.0001 1.0001 0 0 0-0.72656-1.7168 1.0001 1.0001 0 0 0-0.6875 0.30274l-1.2734 1.2734c-0.79792-0.37104-1.7856-0.56641-3.0195-0.56641-1.3174 0-2.3609 0.21562-3.1855 0.63867l-1.041-1.2715a1.0001 1.0001 0 0 0-0.7832-0.37891zm2.0098 4.0117a1 1 0 0 1 1 1 1 1 0 0 1-1 1 1 1 0 0 1-1-1 1 1 0 0 1 1-1zm6 0a1 1 0 0 1 1 1 1 1 0 0 1-1 1 1 1 0 0 1-1-1 1 1 0 0 1 1-1z" fill="#3b4439"/>
</svg>
