<?xml version="1.0" encoding="UTF-8"?>
<svg width="32" height="32" version="1" xmlns="http://www.w3.org/2000/svg">
 <rect x="2" y="11" width="28" height="18" rx="1.4" ry="1.4" opacity=".2"/>
 <path d="m2 22.6c0 0.776 0.6244 1.4 1.4 1.4h25.2c0.776 0 1.4-0.624 1.4-1.4v-15.2c0-0.7756-0.624-1.4-1.4-1.4h-12.6c-2.1 0-2.8-3-4.9-3h-7.7c-0.7756 0-1.4 0.6244-1.4 1.4" fill="#b57614"/>
 <rect x="2" y="9" width="28" height="18" rx="1.4" ry="1.4" opacity=".2"/>
 <rect x="4" y="8" width="24" height="11" rx="1.4" ry="1.4" fill="#f3deaa"/>
 <rect x="2" y="10" width="28" height="18" rx="1.4" ry="1.4" fill="#fabd2f"/>
 <path d="m3.4004 3c-0.7756 0-1.4004 0.6248-1.4004 1.4004v1c0-0.7756 0.6248-1.4004 1.4004-1.4004h7.6996c2.1 0 2.8 3 4.9 3h12.6c0.775 0 1.4 0.6248 1.4 1.4004v-1c0-0.7756-0.625-1.4004-1.4-1.4004h-12.6c-2.1 0-2.8-3-4.9-3z" fill="#f3deaa" opacity=".1"/>
 <path d="m16 13c-3.313 0-6 2.687-6 6 0 3.314 2.687 6 6 6h3.75s0.703-0.301 0.75-1.051c0-0.75-0.75-0.949-0.75-0.949h-3.75c-0.195-1e-3 -0.389-0.017-0.582-0.047-0.7-0.079-1.256-0.299-1.676-0.652l-6e-3 -4e-3c-1.086-0.746-1.736-1.979-1.736-3.297 0-2.209 1.791-4 4-4s4 1.791 4 4c0 0.454-0.092 0.745-0.24 1.002-4e-3 0-7e-3 -2e-3 -0.01-2e-3h-0.934c0.112-0.314 0.184-0.648 0.184-1 0-1.657-1.343-3-3-3-1.656 0-3 1.343-3 3s1.343 3 3 3h3.75c0.542-0.05 0.923-0.371 1.27-0.576 0.762-0.544 0.98-1.31 0.98-2.424 0-3.314-2.686-6-6-6zm0 5c0.552 0 1 0.448 1 1s-0.448 1-1 1-1-0.448-1-1 0.448-1 1-1z" fill="#473c29"/>
</svg>
