<?xml version="1.0" encoding="UTF-8"?>
<svg width="32" height="32" version="1" xmlns="http://www.w3.org/2000/svg">
 <rect x="2" y="11" width="28" height="18" rx="1.4" ry="1.4" opacity=".2"/>
 <path d="m2 22.6c0 0.776 0.6244 1.4 1.4 1.4h25.2c0.776 0 1.4-0.624 1.4-1.4v-15.2c0-0.7756-0.624-1.4-1.4-1.4h-12.6c-2.1 0-2.8-3-4.9-3h-7.7c-0.7756 0-1.4 0.6244-1.4 1.4" fill="#79740e"/>
 <rect x="2" y="9" width="28" height="18" rx="1.4" ry="1.4" opacity=".2"/>
 <rect x="4" y="8" width="24" height="11" rx="1.4" ry="1.4" fill="#d7d9ae"/>
 <rect x="2" y="10" width="28" height="18" rx="1.4" ry="1.4" fill="#b8bb26"/>
 <path d="m3.4004 3c-0.7756 0-1.4004 0.6248-1.4004 1.4004v1c0-0.7756 0.6248-1.4004 1.4004-1.4004h7.6996c2.1 0 2.8 3 4.9 3h12.6c0.775 0 1.4 0.6248 1.4 1.4004v-1c0-0.7756-0.625-1.4004-1.4-1.4004h-12.6c-2.1 0-2.8-3-4.9-3z" fill="#d7d9ae" opacity=".1"/>
 <path d="m8 20.056 3.008 1.737c-5e-3 0.069-8e-3 0.138-8e-3 0.207 0 1.657 1.343 3 3 3s3-1.343 3-3c-2e-3 -0.137-0.013-0.273-0.033-0.408l3.638-2.598c1.89-0.057 3.393-1.604 3.395-3.494 0-1.933-1.567-3.5-3.5-3.5s-3.501 1.567-3.5 3.514l-2.322 3.568c-0.222-0.053-0.45-0.081-0.678-0.082-0.453 1e-3 -0.9 0.105-1.307 0.303l-4.693-2.709m12.5-3.594c1.381 0 2.5 1.119 2.5 2.5s-1.119 2.5-2.5 2.5-2.5-1.119-2.5-2.5 1.119-2.5 2.5-2.5zm0 1c-0.828 0-1.5 0.672-1.5 1.5s0.672 1.5 1.5 1.5 1.5-0.672 1.5-1.5-0.672-1.5-1.5-1.5zm-6.5 6c1.105 0 2 0.895 2 2s-0.895 2-2 2c-0.954-1e-3 -1.774-0.676-1.959-1.611l0.705 0.408c0.72 0.415 1.633 0.171 2.049-0.549 0.415-0.72 0.171-1.633-0.549-2.049l-0.338-0.195c0.031-2e-3 0.061-3e-3 0.092-4e-3z" fill="#333e34"/>
</svg>
