<?xml version="1.0" encoding="UTF-8"?>
<svg width="32" height="32" version="1" xmlns="http://www.w3.org/2000/svg">
 <rect x="2" y="11" width="28" height="18" rx="1.4" ry="1.4" opacity=".2"/>
 <path d="m2 22.6c0 0.776 0.6244 1.4 1.4 1.4h25.2c0.776 0 1.4-0.624 1.4-1.4v-15.2c0-0.7756-0.624-1.4-1.4-1.4h-12.6c-2.1 0-2.8-3-4.9-3h-7.7c-0.7756 0-1.4 0.6244-1.4 1.4" fill="#b94c07"/>
 <rect x="2" y="12" width="28" height="15" rx="1.4" ry="1.4" opacity=".2"/>
 <rect x="4" y="8" width="24" height="11" rx="1.4" ry="1.4" fill="#F6E0B4"/>
 <rect x="2" y="13" width="28" height="15" rx="1.4" ry="1.4" fill="#f28534"/>
 <path d="m3.4004 3c-0.7756 0-1.4004 0.6248-1.4004 1.4004v1c0-0.7756 0.6248-1.4004 1.4004-1.4004h7.6996c2.1 0 2.8 3 4.9 3h12.6c0.775 0 1.4 0.6248 1.4 1.4004v-1c0-0.7756-0.625-1.4004-1.4-1.4004h-12.6c-2.1 0-2.8-3-4.9-3z" fill="#F6E0B4" opacity=".1"/>
 <path d="m15 16.109c-1.548 0.41637-2.4779 1.4616-2.8184 2.8906h-2.1816v2h2.1816c0.34145 1.4281 1.2712 2.4741 2.8184 2.8906v-7.7812zm2 0v7.7812c1.5472-0.41651 2.4769-1.4625 2.8184-2.8906h2.1816v-2h-2.1816c-0.34046-1.429-1.2704-2.4743-2.8184-2.8906z" fill="#4E3B30"/>
</svg>
