<?xml version="1.0" encoding="UTF-8"?>
<svg width="32" height="32" version="1" xmlns="http://www.w3.org/2000/svg">
 <rect x="2" y="11" width="28" height="18" rx="1.4" ry="1.4" opacity=".2"/>
 <path d="m2 22.6c0 0.776 0.6244 1.4 1.4 1.4h25.2c0.776 0 1.4-0.624 1.4-1.4v-15.2c0-0.7756-0.624-1.4-1.4-1.4h-12.6c-2.1 0-2.8-3-4.9-3h-7.7c-0.7756 0-1.4 0.6244-1.4 1.4" fill="#076678"/>
 <rect x="2" y="9" width="28" height="18" rx="1.4" ry="1.4" opacity=".2"/>
 <rect x="4" y="8" width="24" height="11" rx="1.4" ry="1.4" fill="#d3d5b8"/>
 <rect x="2" y="10" width="28" height="18" rx="1.4" ry="1.4" fill="#83a598"/>
 <path d="m3.4004 3c-0.7756 0-1.4004 0.6248-1.4004 1.4004v1c0-0.7756 0.6248-1.4004 1.4004-1.4004h7.6996c2.1 0 2.8 3 4.9 3h12.6c0.775 0 1.4 0.6248 1.4 1.4004v-1c0-0.7756-0.625-1.4004-1.4-1.4004h-12.6c-2.1 0-2.8-3-4.9-3z" fill="#d3d5b8" opacity=".1"/>
 <path d="m15.6 14a4 4.5455 0 0 0-3.786 3.089 3.2 3.6364 0 0 0-1.814 3.275 3.2 3.6364 0 0 0 3.2 3.636 3.2 3.6364 0 0 0 2.127-0.925 4 4.5455 0 0 0 0.273 0.016 4 4.5455 0 0 0 1.691-0.432 3.2 3.6364 0 0 0 1.51 0.432 3.2 3.6364 0 0 0 3.199-3.636 3.2 3.6364 0 0 0-3.2-3.636 3.2 3.6364 0 0 0-6e-3 0 4 4.5455 0 0 0-3.195-1.819z" fill="#2e3b3b"/>
</svg>
