<?xml version="1.0" encoding="UTF-8"?>
<svg width="32" height="32" version="1" xmlns="http://www.w3.org/2000/svg">
 <rect x="2" y="11" width="28" height="18" rx="1.4" ry="1.4" opacity=".2"/>
 <path d="m2 22.6c0 0.776 0.6244 1.4 1.4 1.4h25.2c0.776 0 1.4-0.624 1.4-1.4v-15.2c0-0.7756-0.624-1.4-1.4-1.4h-12.6c-2.1 0-2.8-3-4.9-3h-7.7c-0.7756 0-1.4 0.6244-1.4 1.4" fill="#72761e"/>
 <rect x="2" y="9" width="28" height="18" rx="1.4" ry="1.4" opacity=".2"/>
 <rect x="4" y="8" width="24" height="11" rx="1.4" ry="1.4" fill="#dee2b6"/>
 <rect x="2" y="10" width="28" height="18" rx="1.4" ry="1.4" fill="#b0b846"/>
 <path d="m3.4004 3c-0.7756 0-1.4004 0.6248-1.4004 1.4004v1c0-0.7756 0.6248-1.4004 1.4004-1.4004h7.6996c2.1 0 2.8 3 4.9 3h12.6c0.775 0 1.4 0.6248 1.4 1.4004v-1c0-0.7756-0.625-1.4004-1.4-1.4004h-12.6c-2.1 0-2.8-3-4.9-3z" fill="#dee2b6" opacity=".1"/>
 <path d="m11.428 13c-0.79143 0-1.4277 0.63623-1.4277 1.4277v2.1445c0 0.7915 0.6363 1.4277 1.4277 1.4277h2.1445c0.79143 0 1.4277-0.63623 1.4277-1.4277v-2.1445c0-0.7915-0.63631-1.4277-1.4277-1.4277h-2.1445zm7 0c-0.79143 0-1.4277 0.63623-1.4277 1.4277v2.1445c0 0.7915 0.6363 1.4277 1.4277 1.4277h2.1445c0.79143 0 1.4277-0.63623 1.4277-1.4277v-2.1445c0-0.7915-0.63631-1.4277-1.4277-1.4277h-2.1445zm-7 7c-0.79143 0-1.4277 0.63623-1.4277 1.4277v2.1445c0 0.7915 0.6363 1.4277 1.4277 1.4277h2.1445c0.79143 0 1.4277-0.63623 1.4277-1.4277v-2.1445c0-0.7915-0.63631-1.4277-1.4277-1.4277h-2.1445zm8.0723 0c-0.277 0-0.5 0.22711-0.5 0.50977v1.4805c0 0.0035 0.001853 0.006266 0.001953 0.009766h-1.6445a0.35719 0.37505 0 0 0-0.25195 0.64062l2.1426 2.25a0.35719 0.37505 0 0 0 0.50391 0l2.1426-2.25a0.35719 0.37505 0 0 0-0.25195-0.64062h-1.6445c6.7e-5 -0.0035 0.001953-0.006266 0.001953-0.009766v-1.4805c-4.7e-5 -0.28265-0.223-0.50977-0.5-0.50977z" fill="#3b4439"/>
</svg>
