<?xml version="1.0" encoding="UTF-8"?>
<svg width="32" height="32" version="1" xmlns="http://www.w3.org/2000/svg">
 <rect x="2" y="11" width="28" height="18" rx="1.4" ry="1.4" opacity=".2"/>
 <path d="m2 22.6c0 0.776 0.6244 1.4 1.4 1.4h25.2c0.776 0 1.4-0.624 1.4-1.4v-15.2c0-0.7756-0.624-1.4-1.4-1.4h-12.6c-2.1 0-2.8-3-4.9-3h-7.7c-0.7756 0-1.4 0.6244-1.4 1.4" fill="#4c7a5d"/>
 <rect x="2" y="9" width="28" height="18" rx="1.4" ry="1.4" opacity=".2"/>
 <rect x="4" y="8" width="24" height="11" rx="1.4" ry="1.4" fill="#DBE3C7"/>
 <rect x="2" y="10" width="28" height="18" rx="1.4" ry="1.4" fill="#89b482"/>
 <path d="m3.4004 3c-0.7756 0-1.4004 0.6248-1.4004 1.4004v1c0-0.7756 0.6248-1.4004 1.4004-1.4004h7.6996c2.1 0 2.8 3 4.9 3h12.6c0.775 0 1.4 0.6248 1.4 1.4004v-1c0-0.7756-0.625-1.4004-1.4-1.4004h-12.6c-2.1 0-2.8-3-4.9-3z" fill="#DBE3C7" opacity=".1"/>
 <path d="m18.646 15c-0.15 1e-3 -0.286 0.052-0.416 0.15-0.33 0.252-1.019 0.849-2.231 0.85s-1.898-0.598-2.228-0.85c-0.13-0.098-0.255-0.147-0.407-0.146-0.151 1e-3 -0.326 0.045-0.504 0.146-0.648 0.365-1.242 1.562-1.566 3.112-0.276 1.316-0.38 3.115-0.215 3.84 0.144 0.622 0.391 0.898 0.832 0.898 1.413 0 1.475-1.092 1.996-2.139 0.377-0.58 1.25-0.842 2.092-0.812 0.842-0.032 1.717 0.232 2.094 0.812 0.521 1.047 0.583 2.139 1.996 2.139 0.441 0 0.688-0.276 0.832-0.898 0.165-0.725 0.061-2.524-0.215-3.84-0.324-1.55-0.918-2.747-1.566-3.112-0.178-0.101-0.343-0.151-0.494-0.15zm-5.645 1h1v1h1v1h-1v1h-1v-1h-1v-1h1zm5.5 0a0.5 0.5 0 0 1 0.5 0.5 0.5 0.5 0 0 1-0.5 0.5 0.5 0.5 0 0 1-0.5-0.5 0.5 0.5 0 0 1 0.5-0.5zm-1 1a0.5 0.5 0 0 1 0.5 0.5 0.5 0.5 0 0 1-0.5 0.5 0.5 0.5 0 0 1-0.5-0.5 0.5 0.5 0 0 1 0.5-0.5zm2 0a0.5 0.5 0 0 1 0.5 0.5 0.5 0.5 0 0 1-0.5 0.5 0.5 0.5 0 0 1-0.5-0.5 0.5 0.5 0 0 1 0.5-0.5zm-1 1a0.5 0.5 0 0 1 0.5 0.5 0.5 0.5 0 0 1-0.5 0.5 0.5 0.5 0 0 1-0.5-0.5 0.5 0.5 0 0 1 0.5-0.5z" fill="#414A42"/>
</svg>
