<?xml version="1.0" encoding="UTF-8"?>
<svg width="32" height="32" version="1" xmlns="http://www.w3.org/2000/svg">
 <rect x="2" y="11" width="28" height="18" rx="1.4" ry="1.4" opacity=".2"/>
 <path d="m2 22.6c0 0.776 0.6244 1.4 1.4 1.4h25.2c0.776 0 1.4-0.624 1.4-1.4v-15.2c0-0.7756-0.624-1.4-1.4-1.4h-12.6c-2.1 0-2.8-3-4.9-3h-7.7c-0.7756 0-1.4 0.6244-1.4 1.4" fill="#c35e0a"/>
 <rect x="2" y="9" width="28" height="18" rx="1.4" ry="1.4" opacity=".2"/>
 <rect x="4" y="8" width="24" height="11" rx="1.4" ry="1.4" fill="#F5E4C1"/>
 <rect x="2" y="10" width="28" height="18" rx="1.4" ry="1.4" fill="#e78a4e"/>
 <path d="m3.4004 3c-0.7756 0-1.4004 0.6248-1.4004 1.4004v1c0-0.7756 0.6248-1.4004 1.4004-1.4004h7.6996c2.1 0 2.8 3 4.9 3h12.6c0.775 0 1.4 0.6248 1.4 1.4004v-1c0-0.7756-0.625-1.4004-1.4-1.4004h-12.6c-2.1 0-2.8-3-4.9-3z" fill="#F5E4C1" opacity=".1"/>
 <path d="m16 14c-1.0199 0.0021-2.0088 0.35055-2.8047 0.98828l0.71094 0.71094c0.60422-0.45282 1.3387-0.69809 2.0938-0.69922 1.7616 0 3.2046 1.3061 3.4492 3h-1.4492l2 3.5 2-3.5h-1.5508c-0.2519-2.2466-2.1353-4-4.4492-4zm-4 1.5-2 3.5h1.5508c0.2519 2.2466 2.1353 4 4.4492 4 1.0199-0.0021 2.0088-0.35055 2.8047-0.98828l-0.71094-0.71094c-0.60422 0.45282-1.3387 0.69809-2.0938 0.69922-1.7616 0-3.2046-1.3061-3.4492-3h1.4492l-2-3.5z" fill="#564135"/>
</svg>
