<?xml version="1.0" encoding="UTF-8"?>
<svg width="32" height="32" version="1" xmlns="http://www.w3.org/2000/svg">
 <rect x="2" y="11" width="28" height="18" rx="1.4" ry="1.4" opacity=".2"/>
 <path d="m2 22.6c0 0.776 0.6244 1.4 1.4 1.4h25.2c0.776 0 1.4-0.624 1.4-1.4v-15.2c0-0.7756-0.624-1.4-1.4-1.4h-12.6c-2.1 0-2.8-3-4.9-3h-7.7c-0.7756 0-1.4 0.6244-1.4 1.4" fill="#af3a03"/>
 <rect x="2" y="9" width="28" height="18" rx="1.4" ry="1.4" opacity=".2"/>
 <rect x="4" y="8" width="24" height="11" rx="1.4" ry="1.4" fill="#F1D8AF"/>
 <rect x="2" y="10" width="28" height="18" rx="1.4" ry="1.4" fill="#fe8019"/>
 <path d="m3.4004 3c-0.7756 0-1.4004 0.6248-1.4004 1.4004v1c0-0.7756 0.6248-1.4004 1.4004-1.4004h7.6996c2.1 0 2.8 3 4.9 3h12.6c0.775 0 1.4 0.6248 1.4 1.4004v-1c0-0.7756-0.625-1.4004-1.4-1.4004h-12.6c-2.1 0-2.8-3-4.9-3z" fill="#F1D8AF" opacity=".1"/>
 <path d="m12.707 12.996-0.707 0.707 1.152 1.152a1.5 1.5 0 0 0-0.148 0.645 1.5 1.5 0 0 0 1 1.412v4.176a1.5 1.5 0 0 0-1 1.412 1.5 1.5 0 0 0 1.5 1.5 1.5 1.5 0 0 0 1.5-1.5 1.5 1.5 0 0 0-1-1.412v-4.176a1.5 1.5 0 0 0 0.145-0.06l2.004 2.003a1.5 1.5 0 0 0-0.148 0.645 1.5 1.5 0 0 0 1.5 1.5 1.5 1.5 0 0 0 1.5-1.5 1.5 1.5 0 0 0-1.5-1.5 1.5 1.5 0 0 0-0.645 0.148l-2.004-2.003a1.5 1.5 0 0 0 0.149-0.645 1.5 1.5 0 0 0-1.5-1.5 1.5 1.5 0 0 0-0.645 0.149l-1.152-1.153z" fill="#46352B"/>
</svg>
