<?xml version="1.0" encoding="UTF-8"?>
<svg width="32" height="32" version="1" xmlns="http://www.w3.org/2000/svg">
 <rect x="2" y="11" width="28" height="18" rx="1.4" ry="1.4" opacity=".2"/>
 <path d="m2 22.6c0 0.776 0.6244 1.4 1.4 1.4h25.2c0.776 0 1.4-0.624 1.4-1.4v-15.2c0-0.7756-0.624-1.4-1.4-1.4h-12.6c-2.1 0-2.8-3-4.9-3h-7.7c-0.7756 0-1.4 0.6244-1.4 1.4" fill="#427b58"/>
 <rect x="2" y="9" width="28" height="18" rx="1.4" ry="1.4" opacity=".2"/>
 <rect x="4" y="8" width="24" height="11" rx="1.4" ry="1.4" fill="#D5D7B3"/>
 <rect x="2" y="10" width="28" height="18" rx="1.4" ry="1.4" fill="#8ec07c"/>
 <path d="m3.4004 3c-0.7756 0-1.4004 0.6248-1.4004 1.4004v1c0-0.7756 0.6248-1.4004 1.4004-1.4004h7.6996c2.1 0 2.8 3 4.9 3h12.6c0.775 0 1.4 0.6248 1.4 1.4004v-1c0-0.7756-0.625-1.4004-1.4-1.4004h-12.6c-2.1 0-2.8-3-4.9-3z" fill="#D5D7B3" opacity=".1"/>
 <path d="m15.75 14.5c-1.2456 0-2.25 1.0044-2.25 2.25 0 0.38616 0.09725 0.74935 0.26758 1.0664 0.64168-0.80192 1.6275-1.3164 2.7324-1.3164 0.53628 0 1.0436 0.12146 1.498 0.33789 0.0011-0.029409 0.001953-0.0582 0.001953-0.08789 0-1.2456-1.0044-2.25-2.25-2.25zm-2.5 0.5c-0.69332 0-1.25 0.55668-1.25 1.25 0 0.05075 2e-3 0.10127 0.0078 0.15039 0.32878-0.18975 0.69616-0.31991 1.0879-0.37305 0.09864-0.36119 0.2714-0.69244 0.49805-0.97852-0.10927-0.03097-0.22416-0.048828-0.34374-0.048828zm5.1982 1c-0.01728 2.67e-4 -0.03468 1e-3 -0.05176 2e-3 0.06761 0.23778 0.10352 0.48874 0.10352 0.748 0 0.12313-0.0077 0.24438-0.02343 0.36328 0.3881 0.26657 0.71972 0.60962 0.97363 1.0068a2.75 2.75 0 0 1 0.7998-0.12012 2.75 2.75 0 0 1 0.25 0.01172c2.3e-5 -0.0039 0-0.0078 0-0.01172 0-1.1075-0.89247-2-2-2-0.01731 0-0.03448-2.67e-4 -0.05176 0zm-5.4404 0.54883c-1.1464 0.2281-2.0078 1.2363-2.0078 2.4512 0 0.85623 0.42826 1.6102 1.082 2.0605 0.23345-0.28913 0.5727-0.4904 0.95703-0.54492-0.02502-0.16844-0.039063-0.34026-0.039063-0.51562 0-0.62927 0.16701-1.2201 0.45898-1.7305-0.2898-0.43555-0.45898-0.95854-0.45898-1.5195 0-0.06789 3e-3 -0.13457 0.0078-0.20117zm3.4922 0.45117c-1.6598 0-3 1.3402-3 3s1.3402 3 3 3 3-1.3402 3-3-1.3402-3-3-3zm3.75 1.5a2.25 2.25 0 0 0-0.55469 0.073242 3.5 3.5 0 0 1 0.30469 1.4268 3.5 3.5 0 0 1-1.1035 2.541 2.25 2.25 0 0 0 1.3535 0.45898 2.25 2.25 0 0 0 2.25-2.25 2.25 2.25 0 0 0-2.25-2.25zm-9.75 0.5625c-0.86382 0.22136-1.5 1.003-1.5 1.9375 0 1.1075 0.89247 2 2 2 0.34705 0 0.67306-0.08776 0.95703-0.24219-0.1315-0.22273-0.20703-0.4815-0.20703-0.75781 0-0.17678 0.03119-0.34618 0.08789-0.50391-0.7897-0.52761-1.315-1.4198-1.3359-2.4336zm12.486 1.9375c-0.05778 0.63671-0.33139 1.2111-0.75 1.6484 0.18294 0.21527 0.4568 0.35156 0.76367 0.35156 0.55524 0 1-0.44476 1-1s-0.44476-1-1-1c-0.0047 0-9e-3 -6.3e-5 -0.01367 0zm-9.8398 0.0059c-0.50637 0.050819-0.89648 0.47356-0.89648 0.9941 0 0.55524 0.44476 1 1 1 0.35619 0 0.66674-0.18313 0.84375-0.46094-0.36066-0.34218-0.64838-0.76034-0.83789-1.2285-0.01065-0.02631-0.02123-0.05346-0.03125-0.08008-0.02774-0.07371-0.05337-0.14865-0.07617-0.22461z" fill="#313D38"/>
</svg>
