<?xml version="1.0" encoding="UTF-8"?>
<svg width="32" height="32" version="1" xmlns="http://www.w3.org/2000/svg">
 <rect x="2" y="11" width="28" height="18" rx="1.4" ry="1.4" opacity=".2"/>
 <path d="m2 22.6c0 0.776 0.6244 1.4 1.4 1.4h25.2c0.776 0 1.4-0.624 1.4-1.4v-15.2c0-0.7756-0.624-1.4-1.4-1.4h-12.6c-2.1 0-2.8-3-4.9-3h-7.7c-0.7756 0-1.4 0.6244-1.4 1.4" fill="#9d0006"/>
 <rect x="2" y="9" width="28" height="18" rx="1.4" ry="1.4" opacity=".2"/>
 <rect x="4" y="8" width="24" height="11" rx="1.4" ry="1.4" fill="#efd2b3"/>
 <rect x="2" y="10" width="28" height="18" rx="1.4" ry="1.4" fill="#fb4934"/>
 <path d="m3.4004 3c-0.7756 0-1.4004 0.6248-1.4004 1.4004v1c0-0.7756 0.6248-1.4004 1.4004-1.4004h7.6996c2.1 0 2.8 3 4.9 3h12.6c0.775 0 1.4 0.6248 1.4 1.4004v-1c0-0.7756-0.625-1.4004-1.4-1.4004h-12.6c-2.1 0-2.8-3-4.9-3z" fill="#efd2b3" opacity=".1"/>
 <path d="m15.607 13.012c-0.33596 0.021972-0.67371 0.073469-1.0098 0.1543-2.6884 0.64663-4.5942 3.0611-4.5977 5.8262a1.0001 1.0001 0 0 0 0 0.007812h-1l2 2 2-2h-1a1.0001 1.0001 0 0 0 0-0.005859c0.0023-1.8522 1.2636-3.4497 3.0645-3.8828 1.8009-0.43315 3.6517 0.41586 4.4961 2.0645 0.84435 1.6486 0.45274 3.6472-0.95117 4.8555-1.3819 1.1893-3.5208 1.237-5.0254 0.15625a1.0006 1.0006 0 0 0-1.168 1.625c2.2456 1.6129 5.3802 1.557 7.498-0.26562 2.0958-1.8037 2.6863-4.8201 1.4258-7.2812-0.94537-1.8458-2.7532-3.0307-4.7324-3.2344-0.32987-0.03395-0.66404-0.041503-1-0.019531zm0.37695 2.9746a1.0001 1.0001 0 0 0-0.98438 1.0137v2a1.0001 1.0001 0 0 0 0.29297 0.70703l1 1a1.0001 1.0001 0 1 0 1.4141-1.4141l-0.70703-0.70703v-1.5859a1.0001 1.0001 0 0 0-1.0156-1.0137z" fill="#442e2d"/>
</svg>
