<?xml version="1.0" encoding="UTF-8"?>
<svg width="32" height="32" version="1" xmlns="http://www.w3.org/2000/svg">
 <rect x="2" y="11" width="28" height="18" rx="1.4" ry="1.4" opacity=".2"/>
 <path d="m2 22.6c0 0.776 0.6244 1.4 1.4 1.4h25.2c0.776 0 1.4-0.624 1.4-1.4v-15.2c0-0.7756-0.624-1.4-1.4-1.4h-12.6c-2.1 0-2.8-3-4.9-3h-7.7c-0.7756 0-1.4 0.6244-1.4 1.4" fill="#076678"/>
 <rect x="2" y="9" width="28" height="18" rx="1.4" ry="1.4" opacity=".2"/>
 <rect x="4" y="8" width="24" height="11" rx="1.4" ry="1.4" fill="#d3d5b8"/>
 <rect x="2" y="10" width="28" height="18" rx="1.4" ry="1.4" fill="#83a598"/>
 <path d="m3.4004 3c-0.7756 0-1.4004 0.6248-1.4004 1.4004v1c0-0.7756 0.6248-1.4004 1.4004-1.4004h7.6996c2.1 0 2.8 3 4.9 3h12.6c0.775 0 1.4 0.6248 1.4 1.4004v-1c0-0.7756-0.625-1.4004-1.4-1.4004h-12.6c-2.1 0-2.8-3-4.9-3z" fill="#d3d5b8" opacity=".1"/>
 <path d="m16.543 21.196c-0.8 0.373-1.544 0.369-2.044 0.333-0.596-0.043-1.076-0.207-1.286-0.349-0.13-0.088-0.307-0.054-0.395 0.076s-0.054 0.306 0.076 0.394c0.339 0.229 0.938 0.4 1.564 0.445 0.106 8e-3 0.223 0.013 0.348 0.013 0.545 0 1.237-0.052 1.977-0.397 0.142-0.066 0.204-0.235 0.138-0.377s-0.235-0.204-0.378-0.138zm3.158-0.421c0.027-2.467 0.281-7.13-4.443-6.754-4.6645 0.376-3.428 5.303-3.497 6.953-0.062 0.873-0.352 1.94-0.761 3.026h1.261c0.129-0.46 0.225-0.915 0.266-1.349 0.076 0.053 0.157 0.104 0.244 0.153 0.141 0.083 0.262 0.194 0.391 0.311 0.3 0.274 0.64 0.584 1.306 0.623 0.044 2e-3 0.089 4e-3 0.133 4e-3 0.673 0 1.133-0.295 1.503-0.531 0.177-0.114 0.33-0.212 0.474-0.259 0.409-0.128 0.767-0.335 1.034-0.598 0.042-0.041 0.081-0.083 0.117-0.126 0.149 0.545 0.353 1.159 0.579 1.772h2.692c-0.646-0.998-1.313-1.976-1.299-3.224zm-7.489-1.342c-0.046-0.806 0.339-1.483 0.861-1.513 0.521-0.031 0.982 0.598 1.028 1.403 2e-3 0.044 4e-3 0.087 4e-3 0.129-0.166 0.042-0.315 0.102-0.448 0.172-1e-3 -6e-3 -1e-3 -0.012-2e-3 -0.017v-1e-3c-0.044-0.457-0.288-0.802-0.545-0.771s-0.429 0.427-0.384 0.884v1e-3c0.019 0.199 0.077 0.377 0.157 0.512-0.02 0.016-0.076 0.057-0.141 0.104-0.049 0.035-0.108 0.079-0.179 0.131-0.194-0.255-0.327-0.621-0.351-1.034zm5.285 1.99c-0.019 0.426-0.576 0.827-1.09 0.987l-3e-3 1e-3c-0.214 0.069-0.404 0.192-0.606 0.321-0.34 0.217-0.69 0.441-1.197 0.441-0.033 0-0.067-1e-3 -0.101-3e-3 -0.464-0.027-0.681-0.225-0.955-0.475-0.145-0.132-0.295-0.269-0.489-0.382l-4e-3 -2e-3c-0.417-0.236-0.676-0.529-0.692-0.784-8e-3 -0.126 0.048-0.236 0.168-0.326 0.26-0.195 0.434-0.322 0.549-0.407 0.128-0.093 0.167-0.121 0.196-0.149 0.02-0.019 0.042-0.041 0.066-0.064 0.239-0.232 0.638-0.62 1.252-0.62 0.375 0 0.79 0.144 1.232 0.428 0.208 0.136 0.389 0.198 0.619 0.278 0.157 0.054 0.336 0.116 0.576 0.218l4e-3 2e-3c0.223 0.092 0.487 0.259 0.475 0.536zm-0.123-0.999c-0.043-0.022-0.088-0.042-0.135-0.062-0.216-0.092-0.389-0.155-0.532-0.205 0.079-0.155 0.128-0.349 0.133-0.559 0.011-0.512-0.247-0.927-0.576-0.928-0.33 0-0.605 0.414-0.616 0.925-1e-3 0.017-1e-3 0.034-1e-3 0.05-0.202-0.093-0.402-0.161-0.597-0.202-1e-3 -0.02-2e-3 -0.039-2e-3 -0.058v-1e-3c-0.019-0.931 0.553-1.703 1.277-1.722 0.724-0.02 1.326 0.719 1.345 1.651v1e-3c9e-3 0.421-0.104 0.809-0.297 1.11z" fill="#2e3b3b"/>
</svg>
