<?xml version="1.0" encoding="UTF-8"?>
<svg width="32" height="32" version="1" xmlns="http://www.w3.org/2000/svg">
 <rect x="2" y="11" width="28" height="18" rx="1.4" ry="1.4" opacity=".2"/>
 <path d="m2 22.6c0 0.776 0.6244 1.4 1.4 1.4h25.2c0.776 0 1.4-0.624 1.4-1.4v-15.2c0-0.7756-0.624-1.4-1.4-1.4h-12.6c-2.1 0-2.8-3-4.9-3h-7.7c-0.7756 0-1.4 0.6244-1.4 1.4" fill="#af3a03"/>
 <rect x="2" y="9" width="28" height="18" rx="1.4" ry="1.4" opacity=".2"/>
 <rect x="4" y="8" width="24" height="11" rx="1.4" ry="1.4" fill="#F1D8AF"/>
 <rect x="2" y="10" width="28" height="18" rx="1.4" ry="1.4" fill="#fe8019"/>
 <path d="m3.4004 3c-0.7756 0-1.4004 0.6248-1.4004 1.4004v1c0-0.7756 0.6248-1.4004 1.4004-1.4004h7.6996c2.1 0 2.8 3 4.9 3h12.6c0.775 0 1.4 0.6248 1.4 1.4004v-1c0-0.7756-0.625-1.4004-1.4-1.4004h-12.6c-2.1 0-2.8-3-4.9-3z" fill="#F1D8AF" opacity=".1"/>
 <path d="m17 12-2.006 0.399v8.513l1.995-0.312v-3.6l2.805 4 2.189-1-2.989-3.4 3.011-3.6-2.211-1-2.805 4.2v-4.2z" fill="#46352B"/>
 <path d="m12.276 15.201c-0.025 3e-3 -0.052 9e-3 -0.071 0.028l-0.853 0.847c-0.036 0.036-0.04 0.09-0.014 0.133l0.908 1.488c-0.213 0.347-0.379 0.724-0.49 1.125l-1.674 0.346c-0.051 0.01-0.0877 0.059-0.0877 0.111v1.198c0 0.05 0.0387 0.093 0.0877 0.105l1.623 0.391c0.102 0.451 0.275 0.876 0.504 1.263l-0.945 1.43c-0.029 0.044-0.023 0.102 0.014 0.139l0.853 0.847c0.036 0.036 0.092 0.04 0.135 0.014l1.476-0.891c0.365 0.218 0.763 0.385 1.186 0.491l0.346 1.646c0.01 0.051 0.053 0.088 0.105 0.088h1.207c0.051 0 0.094-0.033 0.106-0.082l0.41-1.658c0.426-0.111 0.823-0.289 1.189-0.514l1.482 0.965c0.044 0.028 0.102 0.023 0.139-0.014l0.85-0.845c0.036-0.036 0.044-0.092 0.017-0.135l-0.58-0.947-0.189 0.058c-0.028 9e-3 -0.058-3e-3 -0.075-0.027 0 0-0.179-0.244-0.322-0.438-0.059-0.09-0.551-0.687-0.89-1.121a3 3 0 0 1-2.729 1.758 3 3 0 0 1-3-3 3 3 0 0 1 1.401-2.535v-1.59c-0.223 0.083-0.37 0.184-0.575 0.301l-1.476-0.959c-0.022-0.015-0.044-0.018-0.068-0.016z" fill="#46352B"/>
</svg>
