<?xml version="1.0" encoding="UTF-8"?>
<svg width="32" height="32" version="1" xmlns="http://www.w3.org/2000/svg">
 <rect x="2" y="11" width="28" height="18" rx="1.4" ry="1.4" opacity=".2"/>
 <path d="m2 22.6c0 0.776 0.6244 1.4 1.4 1.4h25.2c0.776 0 1.4-0.624 1.4-1.4v-15.2c0-0.7756-0.624-1.4-1.4-1.4h-12.6c-2.1 0-2.8-3-4.9-3h-7.7c-0.7756 0-1.4 0.6244-1.4 1.4" fill="#b94c07"/>
 <rect x="2" y="9" width="28" height="18" rx="1.4" ry="1.4" opacity=".2"/>
 <rect x="4" y="8" width="24" height="11" rx="1.4" ry="1.4" fill="#F6E0B4"/>
 <rect x="2" y="10" width="28" height="18" rx="1.4" ry="1.4" fill="#f28534"/>
 <path d="m3.4004 3c-0.7756 0-1.4004 0.6248-1.4004 1.4004v1c0-0.7756 0.6248-1.4004 1.4004-1.4004h7.6996c2.1 0 2.8 3 4.9 3h12.6c0.775 0 1.4 0.6248 1.4 1.4004v-1c0-0.7756-0.625-1.4004-1.4-1.4004h-12.6c-2.1 0-2.8-3-4.9-3z" fill="#F6E0B4" opacity=".1"/>
 <path d="m15.008 13s0.577 0.353 0.17 1.281c-0.616 1.399 0.568 1.719 0.568 1.719s-0.376-0.328 0.125-1.482c0.554-1.28-0.863-1.518-0.863-1.518zm1.592 1.928s-1.049 0.465-0.373 1.738c0.446 0.843-0.049 1.262-0.049 1.262s1.267-0.418 0.656-1.582c-0.549-1.053-0.234-1.418-0.234-1.418zm-3.264 0.072s-0.751 0.799-8e-3 1.781c0.492 0.654 0.17 1.219 0.17 1.219s0.931-0.825 0.258-1.729c-0.608-0.814-0.42-1.271-0.42-1.271zm0.162 3h-2.498l1.5 6h5.5l0.34-0.984c0.166 0.041 0.338 0.07 0.517 0.07 1.184 0 2.143-0.76 2.143-1.943 0-1.005-0.693-1.84-1.625-2.073l0.197-1.07zm5.705 1.76a0.71429 1.4286 15 0 1 0.024 4e-3 0.71429 1.4286 15 0 1 0.32 1.564 0.71429 1.4286 15 0 1-1.035 1.199z" fill="#4E3B30"/>
</svg>
