<?xml version="1.0" encoding="UTF-8"?>
<svg width="32" height="32" version="1" xmlns="http://www.w3.org/2000/svg">
 <rect x="2" y="11" width="28" height="18" rx="1.4" ry="1.4" opacity=".2"/>
 <path d="m2 22.6c0 0.776 0.6244 1.4 1.4 1.4h25.2c0.776 0 1.4-0.624 1.4-1.4v-15.2c0-0.7756-0.624-1.4-1.4-1.4h-12.6c-2.1 0-2.8-3-4.9-3h-7.7c-0.7756 0-1.4 0.6244-1.4 1.4" fill="#c35e0a"/>
 <rect x="2" y="9" width="28" height="18" rx="1.4" ry="1.4" opacity=".2"/>
 <rect x="4" y="8" width="24" height="11" rx="1.4" ry="1.4" fill="#F5E4C1"/>
 <rect x="2" y="10" width="28" height="18" rx="1.4" ry="1.4" fill="#e78a4e"/>
 <path d="m3.4004 3c-0.7756 0-1.4004 0.6248-1.4004 1.4004v1c0-0.7756 0.6248-1.4004 1.4004-1.4004h7.6996c2.1 0 2.8 3 4.9 3h12.6c0.775 0 1.4 0.6248 1.4 1.4004v-1c0-0.7756-0.625-1.4004-1.4-1.4004h-12.6c-2.1 0-2.8-3-4.9-3z" fill="#F5E4C1" opacity=".1"/>
 <path d="m10.857 13c-0.47486 0-0.85742 0.38256-0.85742 0.85742v3.3574c0 0.47486 0.48217 0.85742 0.95703 0.85742s1.0566-0.38256 1.0566-0.85742v-1.0948l0.98633 1.0851v0.79492h1v-0.40039c0-0.3324 0.26721-0.59961 0.59961-0.59961h0.40039v-1h-0.79492l-1.1851-0.98633h1.1948c0.47486 0 0.85742-0.58178 0.85742-1.0566s-0.38256-0.95703-0.85742-0.95703zm6.9277 0c-0.47486 0-0.85742 0.48217-0.85742 0.95703s0.38256 1.0566 0.85742 1.0566h1.1948l-1.1851 0.98633h-0.79492v1h0.40039c0.3324 0 0.59961 0.26721 0.59961 0.59961v0.40039h1v-0.79492l0.98633-1.0851v1.0948c0 0.47486 0.58178 0.85742 1.0566 0.85742s0.95703-0.38256 0.95703-0.85742v-3.3574c0-0.47486-0.38256-0.85742-0.85742-0.85742zm3.2578 6.9277c-0.47486 0-1.0566 0.38256-1.0566 0.85742v1.1948l-0.98633-1.1851v-0.79492h-1v0.40039c0 0.3324-0.26721 0.59961-0.59961 0.59961h-0.40039v1h0.79492l1.0851 0.98633h-1.0948c-0.47486 0-0.85742 0.58178-0.85742 1.0566s0.38256 0.95703 0.85742 0.95703h3.3574c0.47486 0 0.85742-0.38256 0.85742-0.85742v-3.3574c0-0.47486-0.48217-0.85742-0.95703-0.85742zm-8.043 0.072266v1.1426c0 0.47486 0.38256 0.85742 0.85742 0.85742h1.1426v-1h-0.40039c-0.3324 0-0.59961-0.26721-0.59961-0.59961v-0.40039z" fill="#564135"/>
</svg>
