<?xml version="1.0" encoding="UTF-8"?>
<svg width="32" height="32" version="1" xmlns="http://www.w3.org/2000/svg">
 <rect x="2" y="11" width="28" height="18" rx="1.4" ry="1.4" opacity=".2"/>
 <path d="m2 22.6c0 0.776 0.6244 1.4 1.4 1.4h25.2c0.776 0 1.4-0.624 1.4-1.4v-15.2c0-0.7756-0.624-1.4-1.4-1.4h-12.6c-2.1 0-2.8-3-4.9-3h-7.7c-0.7756 0-1.4 0.6244-1.4 1.4" fill="#c14a4a"/>
 <rect x="2" y="9" width="28" height="18" rx="1.4" ry="1.4" opacity=".2"/>
 <rect x="4" y="8" width="24" height="11" rx="1.4" ry="1.4" fill="#f0ddc3"/>
 <rect x="2" y="10" width="28" height="18" rx="1.4" ry="1.4" fill="#ea6962"/>
 <path d="m3.4004 3c-0.7756 0-1.4004 0.6248-1.4004 1.4004v1c0-0.7756 0.6248-1.4004 1.4004-1.4004h7.6996c2.1 0 2.8 3 4.9 3h12.6c0.775 0 1.4 0.6248 1.4 1.4004v-1c0-0.7756-0.625-1.4004-1.4-1.4004h-12.6c-2.1 0-2.8-3-4.9-3z" fill="#f0ddc3" opacity=".1"/>
 <path d="m12.242 13c-0.09165 0-0.18341 0.05232-0.21763 0.15717l-1.3309 4.8427h3.0971l-1.3309-4.8427c-0.03424-0.10485-0.12598-0.15717-0.21763-0.15717zm1.5485 4.9999 2.2092 6 2.2092-6zm4.4185 0h3.0971l-1.3309-4.8427c-0.06844-0.20971-0.36678-0.20971-0.43526 0zm3.0971 0-5.3063 6 5.8113-4.2019c0.16035-0.1159 0.22753-0.32127 0.16629-0.50883zm-5.3063 6-5.3063-6-0.67131 1.2893c-0.061231 0.18756 0.0059 0.39294 0.16629 0.50883z" fill="#543937"/>
</svg>
