<?xml version="1.0" encoding="UTF-8"?>
<svg width="32" height="32" version="1" xmlns="http://www.w3.org/2000/svg">
 <rect x="2" y="11" width="28" height="18" rx="1.4" ry="1.4" opacity=".2"/>
 <path d="m2 22.6c0 0.776 0.6244 1.4 1.4 1.4h25.2c0.776 0 1.4-0.624 1.4-1.4v-15.2c0-0.7756-0.624-1.4-1.4-1.4h-12.6c-2.1 0-2.8-3-4.9-3h-7.7c-0.7756 0-1.4 0.6244-1.4 1.4" fill="#af2528"/>
 <rect x="2" y="9" width="28" height="18" rx="1.4" ry="1.4" opacity=".2"/>
 <rect x="4" y="8" width="24" height="11" rx="1.4" ry="1.4" fill="#f1d9b5"/>
 <rect x="2" y="10" width="28" height="18" rx="1.4" ry="1.4" fill="#f2594b"/>
 <path d="m3.4004 3c-0.7756 0-1.4004 0.6248-1.4004 1.4004v1c0-0.7756 0.6248-1.4004 1.4004-1.4004h7.6996c2.1 0 2.8 3 4.9 3h12.6c0.775 0 1.4 0.6248 1.4 1.4004v-1c0-0.7756-0.625-1.4004-1.4-1.4004h-12.6c-2.1 0-2.8-3-4.9-3z" fill="#f1d9b5" opacity=".1"/>
 <path d="m16 14c-2.7614 0-5 2.2386-5 5 7.92e-4 2.2071 1.4486 4.1526 3.5625 4.7871v-0.80469c-1.2657 0.2793-1.6309-0.55664-1.6309-0.55664-0.20699-0.53414-0.50586-0.47816-0.50586-0.47816-0.41314-0.28665 0.03125-0.28125 0.03125-0.28125 0.3476 0.06261 0.6589 0.39224 0.89569 0.63313 0.16443 0.16728 0.18488 0.27016 0.60567 0.30093 0.25858 0.0367 0.49603-0.01639 0.61973-0.07286 0.01736-0.1254 0.0194-0.57704 0.02734-0.81468-0.98693-0.4318-1.6052-1.284-1.6055-2.2129 0.0014-0.71001 0.36495-1.386 1-1.8594v-1.6406c0.32628 0 0.7184 0.57767 1.0371 1.1348 0.30998-0.088438 0.63525-0.13396 0.96289-0.13477 0.32764 8.03e-4 0.65291 0.04633 0.96289 0.13477 0.3187-0.5571 0.71082-1.1348 1.0371-1.1348v1.6387c0.63566 0.47379 0.9993 1.1506 1 1.8613-0.0014 1.0534-0.79497 1.993-1.9844 2.3496 0.01555 0.33233 0.03711 0.71492 0.03711 1.0137 0 0.5207-0.0028 0.35915-0.0039 0.57422v0.44531c2.3026-0.49401 3.9484-2.5278 3.9512-4.8828 0-2.7614-2.2386-5-5-5z" fill="#4c3432"/>
</svg>
