<?xml version="1.0" encoding="UTF-8"?>
<svg width="32" height="32" version="1" xmlns="http://www.w3.org/2000/svg">
 <rect x="2" y="11" width="28" height="18" rx="1.4" ry="1.4" opacity=".2"/>
 <path d="m2 22.6c0 0.776 0.6244 1.4 1.4 1.4h25.2c0.776 0 1.4-0.624 1.4-1.4v-15.2c0-0.7756-0.624-1.4-1.4-1.4h-12.6c-2.1 0-2.8-3-4.9-3h-7.7c-0.7756 0-1.4 0.6244-1.4 1.4" fill="#b4730e"/>
 <rect x="2" y="9" width="28" height="18" rx="1.4" ry="1.4" opacity=".2"/>
 <rect x="4" y="8" width="24" height="11" rx="1.4" ry="1.4" fill="#fae7b3"/>
 <rect x="2" y="10" width="28" height="18" rx="1.4" ry="1.4" fill="#e9b143"/>
 <path d="m3.4004 3c-0.7756 0-1.4004 0.6248-1.4004 1.4004v1c0-0.7756 0.6248-1.4004 1.4004-1.4004h7.6996c2.1 0 2.8 3 4.9 3h12.6c0.775 0 1.4 0.6248 1.4 1.4004v-1c0-0.7756-0.625-1.4004-1.4-1.4004h-12.6c-2.1 0-2.8-3-4.9-3z" fill="#fae7b3" opacity=".1"/>
 <path d="m18 13a6 6 0 0 0-6 6 6 6 0 0 0 6 6h12v-1h-12a5 5 0 0 1-5-5 5 5 0 0 1 5-5zm0 2c-2.2091 0-4 1.7909-4 4s1.7909 4 4 4h12v-1h-12c-1.6569 0-3-1.3431-3-3s1.3431-3 3-3c0.3409 0.0014 0.67908 0.0608 1 0.17578v-1.0449c-0.32648-0.085635-0.66248-0.1296-1-0.13086zm0 2a2 2 0 0 0-2 2 2 2 0 0 0 2 2h12v-1h-12a1 1 0 0 1-1-1 1 1 0 0 1 1-1h1.7305a2 2 0 0 0-1.7305-1z" fill="#4f422e"/>
</svg>
