<?xml version="1.0" encoding="UTF-8"?>
<svg width="32" height="32" version="1.1" xmlns="http://www.w3.org/2000/svg">
 <rect x="2" y="4" width="28" height="26" rx="1.4" ry="1.4" opacity=".2"/>
 <path d="m2 7v20.6c0 0.775 0.6248 1.4 1.4 1.4h25.2c0.775 0 1.4-0.625 1.4-1.4v-20.6l-1-1h-26z" fill="#ea6962"/>
 <path d="m3.4 3c-0.775 0-1.4 0.625-1.4 1.4v2.6h28v-2.6c0-0.775-0.625-1.4-1.4-1.4z" fill="#543937"/>
 <path d="m10.4 25c-0.7752 0-1.4 0.625-1.4 1.4v2.6h13v-2.6c0-0.775-0.625-1.4-1.4-1.4h-10.2z" fill="#543937"/>
 <path d="m3.4 3c-0.775 0-1.4 0.625-1.4 1.4v1c0-0.775 0.625-1.4 1.4-1.4h25.2c0.775 0 1.4 0.625 1.4 1.4v-1c0-0.775-0.625-1.4-1.4-1.4z" fill="#f0ddc3" opacity=".1"/>
</svg>
