<?xml version="1.0" encoding="UTF-8"?>
<svg width="32" height="32" version="1" xmlns="http://www.w3.org/2000/svg">
 <rect x="2" y="11" width="28" height="18" rx="1.4" ry="1.4" opacity=".2"/>
 <path d="m2 22.6c0 0.776 0.6244 1.4 1.4 1.4h25.2c0.776 0 1.4-0.624 1.4-1.4v-15.2c0-0.7756-0.624-1.4-1.4-1.4h-12.6c-2.1 0-2.8-3-4.9-3h-7.7c-0.7756 0-1.4 0.6244-1.4 1.4" fill="#477a5b"/>
 <rect x="2" y="9" width="28" height="18" rx="1.4" ry="1.4" opacity=".2"/>
 <rect x="4" y="8" width="24" height="11" rx="1.4" ry="1.4" fill="#DCE0BB"/>
 <rect x="2" y="10" width="28" height="18" rx="1.4" ry="1.4" fill="#8bba7f"/>
 <path d="m3.4004 3c-0.7756 0-1.4004 0.6248-1.4004 1.4004v1c0-0.7756 0.6248-1.4004 1.4004-1.4004h7.6996c2.1 0 2.8 3 4.9 3h12.6c0.775 0 1.4 0.6248 1.4 1.4004v-1c0-0.7756-0.625-1.4004-1.4-1.4004h-12.6c-2.1 0-2.8-3-4.9-3z" fill="#DCE0BB" opacity=".1"/>
 <path d="m14.738 14v2e-3l-0.111 1.316a3.9641 3.9283 0 0 0-1.158 0.664l-1.207-0.564-1.262 2.166 1.098 0.756a3.9641 3.9283 0 0 0-0.063 0.662 3.9641 3.9283 0 0 0 0.059 0.666l-1.094 0.75 1.262 2.166 1.205-0.564a3.9641 3.9283 0 0 0 1.162 0.662l0.109 1.318h2.524l0.111-1.316a3.9641 3.9283 0 0 0 1.158-0.664l1.207 0.562 1.262-2.164-1.096-0.754a3.9641 3.9283 0 0 0 0.059-0.664 3.9641 3.9283 0 0 0-0.059-0.664l1.094-0.754-1.26-2.164-1.207 0.562a3.9641 3.9283 0 0 0-1.16-0.66l-0.109-1.32zm1.262 3a2 2 0 0 1 2 2 2 2 0 0 1-2 2 2 2 0 0 1-2-2 2 2 0 0 1 2-2z" fill="#39433D"/>
</svg>
