<?xml version="1.0" encoding="UTF-8"?>
<svg width="32" height="32" version="1" xmlns="http://www.w3.org/2000/svg">
 <rect x="2" y="11" width="28" height="18" rx="1.4" ry="1.4" opacity=".2"/>
 <path d="m2 22.6c0 0.776 0.6244 1.4 1.4 1.4h25.2c0.776 0 1.4-0.624 1.4-1.4v-15.2c0-0.7756-0.624-1.4-1.4-1.4h-12.6c-2.1 0-2.8-3-4.9-3h-7.7c-0.7756 0-1.4 0.6244-1.4 1.4" fill="#af2528"/>
 <rect x="2" y="12" width="28" height="15" rx="1.4" ry="1.4" opacity=".2"/>
 <rect x="4" y="8" width="24" height="11" rx="1.4" ry="1.4" fill="#f1d9b5"/>
 <rect x="2" y="13" width="28" height="15" rx="1.4" ry="1.4" fill="#f2594b"/>
 <path d="m3.4004 3c-0.7756 0-1.4004 0.6248-1.4004 1.4004v1c0-0.7756 0.6248-1.4004 1.4004-1.4004h7.6996c2.1 0 2.8 3 4.9 3h12.6c0.775 0 1.4 0.6248 1.4 1.4004v-1c0-0.7756-0.625-1.4004-1.4-1.4004h-12.6c-2.1 0-2.8-3-4.9-3z" fill="#f1d9b5" opacity=".1"/>
 <path d="m13.41 18.301c-0.034 7e-3 -0.069 0.02-0.101 0.035-0.323 0.151-0.407 0.623-0.186 1.06 0.178 0.352 0.493 0.57 0.779 0.563 0.216 1.169 1.074 2.041 2.098 2.041s1.882-0.872 2.098-2.041c0.286 7e-3 0.601-0.211 0.779-0.563 0.221-0.437 0.137-0.909-0.186-1.06-0.032-0.015-0.067-0.028-0.101-0.035-0.042-1.278-1.184-2.301-2.59-2.301s-2.548 1.023-2.59 2.301zm2.586 4.699c-0.583 0-1.109-0.29-1.496-0.752-1.631 0.241-3.375 0.59-3.484 0.988-2e-3 6e-3 1e-3 0.013 0 0.018-5e-3 0.02-6e-3 0.038-8e-3 0.058-1e-3 0.01-8e-3 0.016-8e-3 0.026v1.394c0 0.149 0.111 0.268 0.25 0.268h9.5c0.139 0 0.25-0.119 0.25-0.268v-1.404c-1e-3 -0.032-0.015-0.06-0.023-0.092-0.116-0.414-1.806-0.777-3.409-1.019-0.123 0.172-0.287 0.327-0.507 0.443l-2e-3 2e-3c-0.312 0.215-0.673 0.338-1.055 0.338" fill="#4c3432"/>
</svg>
