<?xml version="1.0" encoding="UTF-8"?>
<svg width="32" height="32" version="1" xmlns="http://www.w3.org/2000/svg">
 <rect x="2" y="11" width="28" height="18" rx="1.4" ry="1.4" opacity=".2"/>
 <path d="m2 22.6c0 0.776 0.6244 1.4 1.4 1.4h25.2c0.776 0 1.4-0.624 1.4-1.4v-15.2c0-0.7756-0.624-1.4-1.4-1.4h-12.6c-2.1 0-2.8-3-4.9-3h-7.7c-0.7756 0-1.4 0.6244-1.4 1.4" fill="#945e80"/>
 <rect x="2" y="9" width="28" height="18" rx="1.4" ry="1.4" opacity=".2"/>
 <rect x="4" y="8" width="24" height="11" rx="1.4" ry="1.4" fill="#E5DFC8"/>
 <rect x="2" y="10" width="28" height="18" rx="1.4" ry="1.4" fill="#d3869b"/>
 <path d="m3.4004 3c-0.7756 0-1.4004 0.6248-1.4004 1.4004v1c0-0.7756 0.6248-1.4004 1.4004-1.4004h7.6996c2.1 0 2.8 3 4.9 3h12.6c0.775 0 1.4 0.6248 1.4 1.4004v-1c0-0.7756-0.625-1.4004-1.4-1.4004h-12.6c-2.1 0-2.8-3-4.9-3z" fill="#E5DFC8" opacity=".1"/>
 <path d="m17.989 14c-0.496 0.018-1.097 0.29-1.453 0.656-0.319 0.325-0.6 0.842-0.525 1.34 0.553 0.038 1.12-0.247 1.465-0.613 0.344-0.367 0.577-0.875 0.513-1.383zm-0.328 2.006c-0.657 0.052-1.258 0.484-1.598 0.484-0.387 0-0.984-0.469-1.619-0.457-0.834 0.014-1.604 0.519-2.033 1.321-0.866 1.613-0.223 4.002 0.621 5.31 0.413 0.64 0.968 1.336 1.553 1.336s0.857-0.434 1.609-0.434 0.954 0.42 1.621 0.42 1.093-0.652 1.502-1.295c0.474-0.742 0.671-1.463 0.683-1.5-0.015-7e-3 -1.306-0.536-1.319-2.13-0.013-1.335 1.016-1.977 1.062-2.008-0.577-0.906-1.476-1.031-1.797-1.045-0.095-0.011-0.191-0.01-0.285-2e-3z" fill="#4A413F"/>
</svg>
