<?xml version="1.0" encoding="UTF-8"?>
<svg width="32" height="32" version="1" xmlns="http://www.w3.org/2000/svg">
 <rect x="2" y="11" width="28" height="18" rx="1.4" ry="1.4" opacity=".2"/>
 <path d="m2 22.6c0 0.776 0.6244 1.4 1.4 1.4h25.2c0.776 0 1.4-0.624 1.4-1.4v-15.2c0-0.7756-0.624-1.4-1.4-1.4h-12.6c-2.1 0-2.8-3-4.9-3h-7.7c-0.7756 0-1.4 0.6244-1.4 1.4" fill="#45707a"/>
 <rect x="2" y="9" width="28" height="18" rx="1.4" ry="1.4" opacity=".2"/>
 <rect x="4" y="8" width="24" height="11" rx="1.4" ry="1.4" fill="#d9e1cc"/>
 <rect x="2" y="10" width="28" height="18" rx="1.4" ry="1.4" fill="#7daea3"/>
 <path d="m3.4004 3c-0.7756 0-1.4004 0.6248-1.4004 1.4004v1c0-0.7756 0.6248-1.4004 1.4004-1.4004h7.6996c2.1 0 2.8 3 4.9 3h12.6c0.775 0 1.4 0.6248 1.4 1.4004v-1c0-0.7756-0.625-1.4004-1.4-1.4004h-12.6c-2.1 0-2.8-3-4.9-3z" fill="#d9e1cc" opacity=".1"/>
 <path d="m16 13c-3.3137 1e-6 -6 2.6863-6 6 0 3.3137 2.6863 6 6 6 3.3137 0 6-2.6863 6-6 0-3.3137-2.6863-6-6-6zm0 0.75c2.8995 0 5.25 2.3505 5.25 5.25 0 2.8995-2.3505 5.25-5.25 5.25-2.8995-1e-6 -5.25-2.3505-5.25-5.25 0-2.8995 2.3505-5.25 5.25-5.25z" fill="#404946"/>
 <path d="m10.5 20.5 7-1 4-3" fill="none" stroke="#404946" stroke-width=".75"/>
 <path d="m20.5 22.5-3-3" fill="none" stroke="#404946" stroke-width=".75"/>
 <circle cx="20.5" cy="22.5" r="1.5" fill="#404946"/>
 <circle cx="21.5" cy="16.5" r="1.5" fill="#404946"/>
 <circle cx="17.5" cy="19.5" r="1.5" fill="#404946"/>
 <circle cx="10.5" cy="20.5" r="1.5" fill="#404946"/>
</svg>
