<?xml version="1.0" encoding="UTF-8"?>
<svg width="32" height="32" version="1" xmlns="http://www.w3.org/2000/svg">
 <rect x="2" y="11" width="28" height="18" rx="1.4" ry="1.4" opacity=".2"/>
 <path d="m2 22.6c0 0.776 0.6244 1.4 1.4 1.4h25.2c0.776 0 1.4-0.624 1.4-1.4v-15.2c0-0.7756-0.624-1.4-1.4-1.4h-12.6c-2.1 0-2.8-3-4.9-3h-7.7c-0.7756 0-1.4 0.6244-1.4 1.4" fill="#4c7a5d"/>
 <rect x="2" y="9" width="28" height="18" rx="1.4" ry="1.4" opacity=".2"/>
 <rect x="4" y="8" width="24" height="11" rx="1.4" ry="1.4" fill="#DBE3C7"/>
 <rect x="2" y="10" width="28" height="18" rx="1.4" ry="1.4" fill="#89b482"/>
 <path d="m3.4004 3c-0.7756 0-1.4004 0.6248-1.4004 1.4004v1c0-0.7756 0.6248-1.4004 1.4004-1.4004h7.6996c2.1 0 2.8 3 4.9 3h12.6c0.775 0 1.4 0.6248 1.4 1.4004v-1c0-0.7756-0.625-1.4004-1.4-1.4004h-12.6c-2.1 0-2.8-3-4.9-3z" fill="#DBE3C7" opacity=".1"/>
 <path d="m17 14c-0.219 0.081-0.444 0.187-0.625 0.337-0.863 0.694-0.219 1.951 0.625 2.663v2c0.631 0.437 0.777 0.58 1.15 1 0.19 0.214 0.719 0.756 0.85 1v-4c0.862-0.7 1.462-1.906 0.625-2.625-0.181-0.15-0.406-0.287-0.625-0.375v1.406c0 0.288-0.399 0.575-0.789 0.575h-0.427c-0.35 0-0.784-0.287-0.784-0.575zm-2 5c-2.5 0-4 2.125-4 4l-0.844 5e-3c-0.156 1e-3 -0.156 0.156-0.156 0.156l-0.0037 0.683c-9e-4 0.156 0.1567 0.156 0.1567 0.156h9.712s0.161 0 0.156-0.156l-0.021-0.679s0-0.155-0.156-0.156l-0.835-9e-3c0-1.875-1.509-4-4.009-4zm0 2c2 0 2 1.225 2 2h-4c0-0.75 0-2 2-2z" fill="#414A42"/>
</svg>
