<?xml version="1.0" encoding="UTF-8"?>
<svg width="32" height="32" version="1" xmlns="http://www.w3.org/2000/svg">
 <rect x="2" y="11" width="28" height="18" rx="1.4" ry="1.4" opacity=".2"/>
 <path d="m2 22.6c0 0.776 0.6244 1.4 1.4 1.4h25.2c0.776 0 1.4-0.624 1.4-1.4v-15.2c0-0.7756-0.624-1.4-1.4-1.4h-12.6c-2.1 0-2.8-3-4.9-3h-7.7c-0.7756 0-1.4 0.6244-1.4 1.4" fill="#45707a"/>
 <rect x="2" y="9" width="28" height="18" rx="1.4" ry="1.4" opacity=".2"/>
 <rect x="4" y="8" width="24" height="11" rx="1.4" ry="1.4" fill="#d9e1cc"/>
 <rect x="2" y="10" width="28" height="18" rx="1.4" ry="1.4" fill="#7daea3"/>
 <path d="m3.4004 3c-0.7756 0-1.4004 0.6248-1.4004 1.4004v1c0-0.7756 0.6248-1.4004 1.4004-1.4004h7.6996c2.1 0 2.8 3 4.9 3h12.6c0.775 0 1.4 0.6248 1.4 1.4004v-1c0-0.7756-0.625-1.4004-1.4-1.4004h-12.6c-2.1 0-2.8-3-4.9-3z" fill="#d9e1cc" opacity=".1"/>
 <path d="m17 14a3 3 0 0 0-2.959 2.5352 2.5 2.5 0 0 0-1.541-0.53516 2.5 2.5 0 0 0-2.4551 2.043 2.5 2.5 0 0 0-2.0449 2.457 2.5 2.5 0 0 0 2.5 2.5 2.5 2.5 0 0 0 0.6582-0.0918c-0.093666-0.28875-0.1582-0.59004-0.1582-0.9082 0-1.2633 0.9017-2.151 2.0176-2.5898 0.05097-1.878 1.593-3.4102 3.4824-3.4102 1.3883 9.91e-4 2.4056 0.94657 2.9668 2.1465 0.11896-0.02267 0.23137-0.06772 0.3457-0.10352a3 3 0 0 0 0.1875-1.043 3 3 0 0 0-3-3zm-0.5 3c-1.3807 0-2.5 1.1193-2.5 2.5 0.0012 0.16873 0.01957 0.33691 0.05469 0.50195-0.01822-9e-4 -0.03645-0.0016-0.05469-2e-3 -1.1046 0-2 0.89543-2 2 0 1.1046 0.89543 2 2 2h8.5c0.82843 0 1.5-0.67157 1.5-1.5s-0.67157-1.5-1.5-1.5c-0.17188 8.57e-4 -0.34232 0.03125-0.50391 0.08984 2e-3 -0.02991 0.0033-0.05987 0.0039-0.08984 0-1.1046-0.89543-2-2-2-0.35591 7.81e-4 -0.70516 0.09652-1.0117 0.27734-0.11522-1.2886-1.1945-2.2764-2.4883-2.2773z" fill="#404946"/>
</svg>
