<?xml version="1.0" encoding="UTF-8"?>
<svg width="32" height="32" version="1" xmlns="http://www.w3.org/2000/svg">
 <rect x="2" y="11" width="28" height="18" rx="1.4" ry="1.4" opacity=".2"/>
 <path d="m2 22.6c0 0.776 0.6244 1.4 1.4 1.4h25.2c0.776 0 1.4-0.624 1.4-1.4v-15.2c0-0.7756-0.624-1.4-1.4-1.4h-12.6c-2.1 0-2.8-3-4.9-3h-7.7c-0.7756 0-1.4 0.6244-1.4 1.4" fill="#c14a4a"/>
 <rect x="2" y="9" width="28" height="18" rx="1.4" ry="1.4" opacity=".2"/>
 <rect x="4" y="8" width="24" height="11" rx="1.4" ry="1.4" fill="#f0ddc3"/>
 <rect x="2" y="10" width="28" height="18" rx="1.4" ry="1.4" fill="#ea6962"/>
 <path d="m3.4004 3c-0.7756 0-1.4004 0.6248-1.4004 1.4004v1c0-0.7756 0.6248-1.4004 1.4004-1.4004h7.6996c2.1 0 2.8 3 4.9 3h12.6c0.775 0 1.4 0.6248 1.4 1.4004v-1c0-0.7756-0.625-1.4004-1.4-1.4004h-12.6c-2.1 0-2.8-3-4.9-3z" fill="#f0ddc3" opacity=".1"/>
 <path d="m15.319 15.035c-2.667 0-2.046 2.236-3.412 2.97-0.047 0.027-0.073 0.051-0.115 0.077 0.9-0.535 2.01-0.984 3.189-1.287 0.998-0.257 2.01-0.401 2.944-0.419h0.072c-0.901-0.256-0.999-1.341-2.678-1.341zm2.906 2.016c-0.933 0.018-1.946 0.162-2.944 0.419-3.29 0.847-5.6347 2.688-5.237 4.112 0.2291 0.814 1.333 1.551 2.978 1.649l-3e-3 -0.018c-0.089-0.77 0.4-1.44 0.973-1.894s1.309-0.784 2.137-0.959c0.828-0.176 1.602-0.168 2.25 0.027 0.609 0.184 1.182 0.584 1.323 1.27 1.648-0.924 2.504-2.238 2.256-3.139-0.263-0.944-1.694-1.506-3.733-1.467zm-0.978 3.949c-0.331-4e-3 -0.683 0.032-1.033 0.107-1.447 0.307-2.548 1.18-2.459 1.949 0.089 0.77 1.334 1.144 2.781 0.837 1.447-0.308 2.548-1.181 2.458-1.95-0.064-0.56-0.753-0.931-1.747-0.943z" fill="#543937"/>
</svg>
