<?xml version="1.0" encoding="UTF-8"?>
<svg width="64" height="64" version="1" xmlns="http://www.w3.org/2000/svg">
 <rect x="4" y="22" width="56" height="36" rx="2.8" ry="2.8" opacity=".2"/>
 <path d="m4 46.2c0 1.551 1.2488 2.8 2.8 2.8h50.4c1.551 0 2.8-1.249 2.8-2.8v-30.4c0-1.551-1.249-2.8-2.8-2.8h-25.2c-4.2 0-5.6-6-9.8-6h-15.4c-1.5512 0-2.8 1.2488-2.8 2.8" fill="#8f3f71"/>
 <rect x="4" y="20" width="56" height="36" rx="2.8" ry="2.8" opacity=".2"/>
 <rect x="8" y="16" width="48" height="22" rx="2.8" ry="2.8" fill="#E1D4B6"/>
 <rect x="4" y="21" width="56" height="36" rx="2.8" ry="2.8" fill="#d3869b"/>
 <path d="m6.8008 7c-1.5512 0-2.8008 1.2496-2.8008 2.8008v1.0002c0-1.5514 1.2496-2.801 2.8008-2.801h15.398c4.2 0 5.601 6 9.801 6h25.199c1.551 0 2.801 1.25 2.801 2.801v-1c0-1.551-1.25-2.801-2.801-2.801h-25.199c-4.2 0-5.601-6-9.801-6z" fill="#E1D4B6" opacity=".1"/>
 <path d="m39.905 26c-5.078 0-6.03 7.717-3.173 7.717 2.856 0 8.252-7.717 3.173-7.717zm-7.822 1.187c-0.08 0-0.165 8e-3 -0.256 0.017-2.879 0.363-1.866 5.234-0.334 5.325 1.481 0.088 3.105-5.333 0.587-5.342zm-4.989 1.798c-0.176-0.011-0.371 0.022-0.588 0.111-2.313 0.95-0.351 4.871 0.944 4.608 1.175-0.239 1.344-4.609-0.356-4.719zm-3.775 3.206c-0.201-6e-3 -0.419 0.064-0.651 0.236-1.851 1.382 0.624 4.721 1.713 4.203 0.953-0.453 0.345-4.388-1.063-4.439zm10.935 3.187c-4.011-0.069-9.304 1.966-10.207 6.058-0.977 4.424 4.024 10.564 9.24 10.564 2.567 0 5.528-2.346 6.082-5.317 0.423-2.265-4.978-1.357-4.785 0.141 0.233 1.797-1.302 2.685-2.805 1.527-4.787-3.687 7.925-5.527 7.086-10.565-0.261-1.568-2.207-2.366-4.613-2.408z" fill="#393534"/>
</svg>
