<?xml version="1.0" encoding="UTF-8"?>
<svg width="64" height="64" version="1" xmlns="http://www.w3.org/2000/svg">
 <rect x="4" y="22" width="56" height="36" rx="2.8" ry="2.8" opacity=".2"/>
 <path d="m4 46.2c0 1.551 1.2488 2.8 2.8 2.8h50.4c1.551 0 2.8-1.249 2.8-2.8v-30.4c0-1.551-1.249-2.8-2.8-2.8h-25.2c-4.2 0-5.6-6-9.8-6h-15.4c-1.5512 0-2.8 1.2488-2.8 2.8" fill="#4c7a5d"/>
 <rect x="4" y="20" width="56" height="36" rx="2.8" ry="2.8" opacity=".2"/>
 <rect x="8" y="16" width="48" height="22" rx="2.8" ry="2.8" fill="#DBE3C7"/>
 <rect x="4" y="21" width="56" height="36" rx="2.8" ry="2.8" fill="#89b482"/>
 <path d="m6.8008 7c-1.5512 0-2.8008 1.2496-2.8008 2.8008v1.0002c0-1.5514 1.2496-2.801 2.8008-2.801h15.398c4.2 0 5.601 6 9.801 6h25.199c1.551 0 2.801 1.25 2.801 2.801v-1c0-1.551-1.25-2.801-2.801-2.801h-25.199c-4.2 0-5.601-6-9.801-6z" fill="#DBE3C7" opacity=".1"/>
 <path d="m32.787 43.393c-1.601 0.744-3.089 0.736-4.089 0.664-1.192-0.086-2.152-0.412-2.573-0.698-0.26-0.176-0.613-0.108-0.789 0.152s-0.108 0.613 0.152 0.789c0.678 0.459 1.876 0.8 3.128 0.89 0.212 0.016 0.445 0.025 0.696 0.025 1.09 0 2.474-0.104 3.954-0.792 0.284-0.133 0.408-0.47 0.275-0.755-0.132-0.284-0.47-0.408-0.754-0.275zm6.314-0.842c0.054-4.936 0.562-14.262-8.886-13.508-9.328 0.751-6.855 10.605-6.994 13.905-0.123 1.746-0.702 3.88-1.521 6.052h2.521c0.26-0.92 0.45-1.831 0.532-2.698 0.152 0.106 0.315 0.208 0.489 0.306 0.282 0.167 0.525 0.388 0.782 0.622 0.6 0.547 1.281 1.168 2.611 1.245 0.089 5e-3 0.179 8e-3 0.267 8e-3 1.346 0 2.266-0.589 3.006-1.062 0.354-0.227 0.66-0.423 0.948-0.517 0.819-0.256 1.534-0.67 2.068-1.196 0.084-0.082 0.161-0.167 0.234-0.253 0.298 1.091 0.706 2.32 1.158 3.545h5.384c-1.294-1.996-2.627-3.953-2.599-6.449zm-14.977-2.685v-1e-3c-0.093-1.611 0.678-2.965 1.721-3.026s1.964 1.196 2.057 2.806v1e-3c5e-3 0.087 7e-3 0.173 7e-3 0.258-0.33 0.083-0.629 0.204-0.896 0.345l-3e-3 -0.036v-1e-3c-0.089-0.914-0.577-1.604-1.091-1.542-0.513 0.063-0.857 0.855-0.767 1.769 0.039 0.399 0.153 0.755 0.313 1.025-0.04 0.031-0.152 0.113-0.281 0.208-0.097 0.071-0.216 0.157-0.358 0.262-0.388-0.51-0.654-1.242-0.702-2.068zm10.569 3.981c-0.037 0.851-1.151 1.652-2.179 1.973l-6e-3 2e-3c-0.428 0.139-0.809 0.383-1.213 0.641-0.678 0.434-1.38 0.883-2.393 0.883-0.067 0-0.135-2e-3 -0.202-6e-3 -0.928-0.054-1.362-0.449-1.911-0.95-0.29-0.264-0.59-0.538-0.976-0.764l-9e-3 -5e-3c-0.834-0.471-1.352-1.056-1.385-1.567-0.016-0.253 0.097-0.473 0.336-0.652 0.52-0.39 0.869-0.645 1.099-0.814 0.256-0.187 0.334-0.243 0.391-0.298 0.041-0.038 0.085-0.081 0.133-0.128 0.477-0.464 1.276-1.241 2.503-1.241 0.75 0 1.58 0.289 2.464 0.857 0.416 0.271 0.779 0.396 1.238 0.555 0.315 0.109 0.673 0.232 1.152 0.437l8e-3 4e-3c0.446 0.183 0.974 0.518 0.95 1.072zm-0.246-2c-0.086-0.043-0.176-0.084-0.269-0.123-0.432-0.184-0.778-0.31-1.065-0.41 0.159-0.31 0.257-0.697 0.266-1.118 0.022-1.023-0.494-1.854-1.152-1.855-0.659-2e-3 -1.21 0.826-1.232 1.849-1e-3 0.034-1e-3 0.067 0 0.1-0.406-0.186-0.805-0.322-1.195-0.405-2e-3 -0.039-4e-3 -0.077-5e-3 -0.116v-1e-3c-0.038-1.863 1.106-3.406 2.554-3.445s2.653 1.439 2.691 3.303v1e-3c0.017 0.843-0.208 1.618-0.593 2.22z" fill="#414A42"/>
</svg>
