<?xml version="1.0" encoding="UTF-8"?>
<svg width="64" height="64" version="1" xmlns="http://www.w3.org/2000/svg">
 <rect x="4" y="22" width="56" height="36" rx="2.8" ry="2.8" opacity=".2"/>
 <path d="m4 46.2c0 1.551 1.2488 2.8 2.8 2.8h50.4c1.551 0 2.8-1.249 2.8-2.8v-30.4c0-1.551-1.249-2.8-2.8-2.8h-25.2c-4.2 0-5.6-6-9.8-6h-15.4c-1.5512 0-2.8 1.2488-2.8 2.8" fill="#477a5b"/>
 <rect x="4" y="20" width="56" height="36" rx="2.8" ry="2.8" opacity=".2"/>
 <rect x="8" y="16" width="48" height="22" rx="2.8" ry="2.8" fill="#DCE0BB"/>
 <rect x="4" y="21" width="56" height="36" rx="2.8" ry="2.8" fill="#8bba7f"/>
 <path d="m6.8008 7c-1.5512 0-2.8008 1.2496-2.8008 2.8008v1.0002c0-1.5514 1.2496-2.801 2.8008-2.801h15.398c4.2 0 5.601 6 9.801 6h25.199c1.551 0 2.801 1.25 2.801 2.801v-1c0-1.551-1.25-2.801-2.801-2.801h-25.199c-4.2 0-5.601-6-9.801-6z" fill="#DCE0BB" opacity=".1"/>
 <path d="m26.82 34.602c-0.069 0.015-0.138 0.04-0.203 0.07-0.645 0.303-0.812 1.247-0.371 2.121 0.355 0.703 0.986 1.139 1.559 1.125 0.43 2.337 2.147 4.082 4.187 4.082h0.016c2.04 0 3.757-1.745 4.187-4.082 0.572 0.013 1.204-0.422 1.559-1.125 0.441-0.874 0.274-1.818-0.371-2.121-0.065-0.03-0.134-0.055-0.203-0.07-0.083-2.556-2.368-4.602-5.18-4.602s-5.097 2.046-5.18 4.602zm8.317 7.831c-0.248 0.344-0.575 0.654-1.016 0.887l-4e-3 4e-3c-0.623 0.429-1.344 0.676-2.109 0.676h-0.016c-1.166 0-2.218-0.581-2.992-1.504-3.263 0.482-6.749 1.18-6.969 1.976-4e-3 0.011 3e-3 0.025 0 0.035-0.01 0.041-0.011 0.077-0.015 0.118-2e-3 0.018-0.016 0.031-0.016 0.05v2.789c0 0.297 0.223 0.536 0.5 0.536h19c0.277 0 0.5-0.239 0.5-0.536v-2.808c-3e-3 -0.065-0.029-0.12-0.047-0.184-0.23-0.828-3.612-1.555-6.816-2.039z" fill="#39433D"/>
</svg>
