<?xml version="1.0" encoding="UTF-8"?>
<svg width="64" height="64" version="1" xmlns="http://www.w3.org/2000/svg">
 <rect x="4" y="22" width="56" height="36" rx="2.8" ry="2.8" opacity=".2"/>
 <path d="m4 46.2c0 1.551 1.2488 2.8 2.8 2.8h50.4c1.551 0 2.8-1.249 2.8-2.8v-30.4c0-1.551-1.249-2.8-2.8-2.8h-25.2c-4.2 0-5.6-6-9.8-6h-15.4c-1.5512 0-2.8 1.2488-2.8 2.8" fill="#945e80"/>
 <rect x="4" y="20" width="56" height="36" rx="2.8" ry="2.8" opacity=".2"/>
 <rect x="8" y="16" width="48" height="22" rx="2.8" ry="2.8" fill="#E5DFC8"/>
 <rect x="4" y="21" width="56" height="36" rx="2.8" ry="2.8" fill="#d3869b"/>
 <path d="m6.8008 7c-1.5512 0-2.8008 1.2496-2.8008 2.8008v1.0002c0-1.5514 1.2496-2.801 2.8008-2.801h15.398c4.2 0 5.601 6 9.801 6h25.199c1.551 0 2.801 1.25 2.801 2.801v-1c0-1.551-1.25-2.801-2.801-2.801h-25.199c-4.2 0-5.601-6-9.801-6z" fill="#E5DFC8" opacity=".1"/>
 <path d="m30.5 30c-2.4912 0-4.5 2.0088-4.5 4.5 0 0.77232 0.1945 1.4987 0.53516 2.1328 1.2834-1.6038 3.255-2.6328 5.4648-2.6328 1.0726 0 2.0871 0.24292 2.9961 0.67578 0.0022-0.05882 0.003906-0.1164 0.003906-0.17578 0-2.4912-2.0088-4.5-4.5-4.5zm-5 1c-1.3866 0-2.5 1.1134-2.5 2.5 0 0.1015 0.004025 0.20254 0.015625 0.30078 0.65757-0.37951 1.3923-0.63981 2.1758-0.74609 0.19728-0.72238 0.5428-1.3849 0.99609-1.957-0.21857-0.06194-0.44834-0.097656-0.6875-0.097656zm10.396 2c-0.034563 5.34e-4 -0.069349 0.002137-0.10352 0.003906 0.13522 0.47565 0.20703 0.97757 0.20703 1.4961 0 0.24625-0.015395 0.48876-0.046875 0.72656 0.77621 0.53314 1.4394 1.2193 1.9473 2.0137a5.5 5.5 0 0 1 1.5996-0.24023 5.5 5.5 0 0 1 0.5 0.023438c4.5e-5 -0.007824 0-0.015603 0-0.023438 0-2.2151-1.7849-4-4-4-0.03461 0-0.068952-5.34e-4 -0.10352 0zm-10.881 1.0977c-2.2929 0.4562-4.0156 2.4727-4.0156 4.9023 0 1.7125 0.85653 3.2205 2.1641 4.1211 0.4669-0.57826 1.1454-0.98079 1.9141-1.0898-0.05004-0.33688-0.078125-0.68053-0.078125-1.0312 0-1.2585 0.33402-2.4401 0.91797-3.4609-0.57959-0.8711-0.91797-1.9171-0.91797-3.0391 0-0.13578 0.006025-0.26914 0.015625-0.40234zm6.9844 0.90234c-3.3196 0-6 2.6804-6 6s2.6804 6 6 6 6-2.6804 6-6-2.6804-6-6-6zm7.5 3a4.5 4.5 0 0 0-1.1094 0.14648 7 7 0 0 1 0.60938 2.8535 7 7 0 0 1-2.207 5.082 4.5 4.5 0 0 0 2.707 0.91797 4.5 4.5 0 0 0 4.5-4.5 4.5 4.5 0 0 0-4.5-4.5zm-19.5 1.125c-1.7276 0.44273-3 2.006-3 3.875 0 2.2151 1.7849 4 4 4 0.69411 0 1.3461-0.17552 1.9141-0.48438-0.26301-0.44546-0.41406-0.963-0.41406-1.5156 0-0.35355 0.062381-0.69237 0.17578-1.0078-1.5794-1.0552-2.63-2.8396-2.6719-4.8672h-0.003906zm24.973 3.875c-0.11556 1.2734-0.66278 2.4222-1.5 3.2969 0.36589 0.43054 0.9136 0.70312 1.5273 0.70312 1.1105 0 2-0.88951 2-2s-0.88951-2-2-2c-0.0094 0-0.018004-1.26e-4 -0.027344 0zm-19.68 0.011719c-1.0127 0.10172-1.793 0.9472-1.793 1.9883 0 1.1105 0.88951 2 2 2 0.71237 0 1.3335-0.36626 1.6875-0.92188-0.72132-0.68437-1.2968-1.5207-1.6758-2.457-0.0213-0.05262-0.04246-0.10692-0.0625-0.16016-0.05548-0.14742-0.10674-0.2973-0.15234-0.44922h-0.003906z" fill="#4A413F"/>
</svg>
