<?xml version="1.0" encoding="UTF-8"?>
<svg width="64" height="64" version="1" xmlns="http://www.w3.org/2000/svg">
 <rect x="4" y="22" width="56" height="36" rx="2.8" ry="2.8" opacity=".2"/>
 <path d="m4 46.2c0 1.551 1.2488 2.8 2.8 2.8h50.4c1.551 0 2.8-1.249 2.8-2.8v-30.4c0-1.551-1.249-2.8-2.8-2.8h-25.2c-4.2 0-5.6-6-9.8-6h-15.4c-1.5512 0-2.8 1.2488-2.8 2.8" fill="#72761e"/>
 <rect x="4" y="20" width="56" height="36" rx="2.8" ry="2.8" opacity=".2"/>
 <rect x="8" y="16" width="48" height="22" rx="2.8" ry="2.8" fill="#dee2b6"/>
 <rect x="4" y="21" width="56" height="36" rx="2.8" ry="2.8" fill="#b0b846"/>
 <path d="m6.8008 7c-1.5512 0-2.8008 1.2496-2.8008 2.8008v1.0002c0-1.5514 1.2496-2.801 2.8008-2.801h15.398c4.2 0 5.601 6 9.801 6h25.199c1.551 0 2.801 1.25 2.801 2.801v-1c0-1.551-1.25-2.801-2.801-2.801h-25.199c-4.2 0-5.601-6-9.801-6z" fill="#dee2b6" opacity=".1"/>
 <path d="m32 29c-5.523 0-10 4.477-10 10s4.477 10 10 10 10-4.477 10-10-4.477-10-10-10zm-0.714 2.768c0.095-0.01 0.216 6e-3 0.312 0 0.012 0.046-0.069 0.208-0.178 0.446-0.694 1.517-0.734 3.292-0.09 4.241 0.117 0.172 0.224 0.336 0.224 0.357 0 0.022-0.126 0.045-0.268 0.045-0.334 0-0.65-0.203-1.295-0.714-0.286-0.227-0.659-0.418-0.803-0.447-0.227-0.045-0.288-0.025-0.581 0.268-0.273 0.273-0.357 0.42-0.357 0.67 0 0.947 1.124 1.7 3.214 2.143 2.838 0.601 3.538 1.141 3.616 2.634 0.099 1.871-0.898 3.282-3.08 4.375-0.26 0.13-0.426 0.181-0.536 0.223-0.048-4e-3 -0.085 4e-3 -0.134 0-0.018-0.058-0.044-0.192-0.044-0.446 0-0.994-0.392-2.018-0.982-2.59-0.159-0.153-0.602-0.479-0.982-0.714s-0.763-0.508-0.849-0.625c-0.141-0.194-0.153-0.312-0.044-0.67 0.198-0.652 0.434-1.016 0.893-1.428 0.24-0.216 0.482-0.398 0.535-0.402 0.054-4e-3 -0.307-0.113-0.848-0.223-0.541-0.111-1.332-0.343-1.741-0.491-0.748-0.271-1.758-0.839-2.143-1.25-0.016-0.018-0.03-0.03-0.044-0.045 0.551-2.197 2.099-3.998 4.151-4.866 0.43-0.182 0.872-0.306 1.34-0.402 0.232-0.047 0.474-0.065 0.714-0.089zm6.696 3.348c0.168 0.104 0.801 1.474 0.982 2.143 0.234 0.863 0.217 2.357 0 3.214-0.082 0.327-0.188 0.632-0.223 0.67s-0.163-0.181-0.312-0.446c-0.15-0.266-0.629-0.831-1.027-1.25-1.149-1.213-1.33-1.846-0.848-2.813 0.242-0.488 1.298-1.598 1.428-1.518z" fill="#3b4439"/>
</svg>
