<?xml version="1.0" encoding="UTF-8"?>
<svg width="64" height="64" version="1" xmlns="http://www.w3.org/2000/svg">
 <rect x="4" y="22" width="56" height="36" rx="2.8" ry="2.8" opacity=".2"/>
 <path d="m4 46.2c0 1.551 1.2488 2.8 2.8 2.8h50.4c1.551 0 2.8-1.249 2.8-2.8v-30.4c0-1.551-1.249-2.8-2.8-2.8h-25.2c-4.2 0-5.6-6-9.8-6h-15.4c-1.5512 0-2.8 1.2488-2.8 2.8" fill="#924f79"/>
 <rect x="4" y="20" width="56" height="36" rx="2.8" ry="2.8" opacity=".2"/>
 <rect x="8" y="16" width="48" height="22" rx="2.8" ry="2.8" fill="#E6DCBB"/>
 <rect x="4" y="21" width="56" height="36" rx="2.8" ry="2.8" fill="#d3869b"/>
 <path d="m6.8008 7c-1.5512 0-2.8008 1.2496-2.8008 2.8008v1.0002c0-1.5514 1.2496-2.801 2.8008-2.801h15.398c4.2 0 5.601 6 9.801 6h25.199c1.551 0 2.801 1.25 2.801 2.801v-1c0-1.551-1.25-2.801-2.801-2.801h-25.199c-4.2 0-5.601-6-9.801-6z" fill="#E6DCBB" opacity=".1"/>
 <path d="m30.639 30c-4.235 0-4.329 2.827-5.553 4.73 1.5-0.707 3.172-1.311 4.976-1.777 1.641-0.423 3.295-0.703 4.901-0.83-1.019-0.828-1.73-2.123-4.324-2.123zm5.812 4.049c-1.867 0.036-3.892 0.324-5.889 0.84-6.579 1.699-11.269 5.396-10.474 8.256 0.458 1.634 2.667 3.114 5.957 3.31-2e-3 -0.012-5e-3 -0.023-6e-3 -0.035v-4e-3c-4e-3 -0.029-0.014-0.055-0.018-0.084-0.192-1.744 0.806-3.098 1.954-4.053 1.147-0.955 2.619-1.646 4.285-2.017 0.809-0.181 1.624-0.272 2.426-0.262h2e-3c1.202 0.015 2.312 0.239 3.289 0.793 0.806 0.457 1.543 1.251 1.857 2.232 3.003-1.835 4.555-4.307 4.082-6.033-0.525-1.894-3.388-3.023-7.465-2.943zm-1.789 7.951c-0.631-8e-3 -1.299 0.066-1.967 0.215-2.756 0.614-4.855 2.36-4.685 3.898 0.17 1.539 2.542 2.287 5.299 1.672 2.756-0.615 4.851-2.36 4.681-3.898-0.123-1.119-1.434-1.863-3.328-1.887z" fill="#423B3A"/>
</svg>
