<?xml version="1.0" encoding="UTF-8"?>
<svg width="64" height="64" version="1" xmlns="http://www.w3.org/2000/svg">
 <rect x="4" y="22" width="56" height="36" rx="2.8" ry="2.8" opacity=".2"/>
 <path d="m4 46.2c0 1.551 1.2488 2.8 2.8 2.8h50.4c1.551 0 2.8-1.249 2.8-2.8v-30.4c0-1.551-1.249-2.8-2.8-2.8h-25.2c-4.2 0-5.6-6-9.8-6h-15.4c-1.5512 0-2.8 1.2488-2.8 2.8" fill="#6c782e"/>
 <rect x="4" y="20" width="56" height="36" rx="2.8" ry="2.8" opacity=".2"/>
 <rect x="8" y="16" width="48" height="22" rx="2.8" ry="2.8" fill="#dde5c2"/>
 <rect x="4" y="21" width="56" height="36" rx="2.8" ry="2.8" fill="#a9b665"/>
 <path d="m6.8008 7c-1.5512 0-2.8008 1.2496-2.8008 2.8008v1.0002c0-1.5514 1.2496-2.801 2.8008-2.801h15.398c4.2 0 5.601 6 9.801 6h25.199c1.551 0 2.801 1.25 2.801 2.801v-1c0-1.551-1.25-2.801-2.801-2.801h-25.199c-4.2 0-5.601-6-9.801-6z" fill="#dde5c2" opacity=".1"/>
 <path d="m34 29-4 0.60547v14.469l4-1.0742v-5.5898l4 6.5898 4-1.5-5-6 5.002-6.498-3.8809-1.002-4.1211 6.5586zm-8.1445 3.9238c-0.09459 0-0.18918 0.03684-0.26172 0.10938l-1.5723 1.5723c-0.14507 0.14507-0.11014 0.35231 0 0.52539l1.627 2.5547c-0.12054 0.25022-0.22492 0.50791-0.3125 0.77148-0.0038 0.01134-0.0099 0.02184-0.01367 0.0332l-2.9512 0.65625c-0.20027 0.044513-0.3711 0.16594-0.3711 0.3711v1.9648c0 0.20516 0.17082 0.32659 0.37109 0.37109l2.9512 0.65625c0.0065 0.0194 0.01679 0.03731 0.02344 0.05664 0.08525 0.25604 0.18635 0.50653 0.30273 0.75l-1.627 2.5527c-0.11014 0.17308-0.14507 0.38032 0 0.52539l1.5723 1.5723c0.14507 0.14507 0.37837 0.14507 0.52344 0l2.5508-1.625c0.25076 0.12195 0.5091 0.22764 0.77344 0.31641 0.01735 0.0061 0.03339 0.01554 0.05078 0.02148l0.6543 2.9492c0 0.20516 0.16594 0.37109 0.37109 0.37109h2.2207c0.20516 0 0.32659-0.17082 0.37109-0.37109l0.6543-3.0391c0.3006-0.11301 0.59242-0.24815 0.87305-0.4043l2.4902 1.7812c0.14507 0.14507 0.37837 0.14507 0.52344 0l1.5723-1.5723c0.14507-0.14507 0.11014-0.35231 0-0.52539l-0.94726-1.4375-0.09961 0.03711c-0.22525 0.08461-0.47882-0.0032-0.60352-0.20898l-0.9961-1.6406c-0.82994 1.9852-2.7899 3.3809-5.0762 3.3809-3.0376 0-5.5-2.4624-5.5-5.5 0-2.3309 1.4528-4.3184 3.5-5.1191v-1.0957l-0.0078 0.03516c-0.02208 0.0075-0.04245 0.01957-0.06445 0.02734-0.26082 0.08662-0.5159 0.18969-0.76367 0.30859l-2.5469-1.623c-0.07254-0.07253-0.16713-0.10938-0.26172-0.10938z" fill="#424a3e"/>
</svg>
