<?xml version="1.0" encoding="UTF-8"?>
<svg width="64" height="64" version="1" xmlns="http://www.w3.org/2000/svg">
 <rect x="4" y="22" width="56" height="36" rx="2.8" ry="2.8" opacity=".2"/>
 <path d="m4 46.2c0 1.551 1.2488 2.8 2.8 2.8h50.4c1.551 0 2.8-1.249 2.8-2.8v-30.4c0-1.551-1.249-2.8-2.8-2.8h-25.2c-4.2 0-5.6-6-9.8-6h-15.4c-1.5512 0-2.8 1.2488-2.8 2.8" fill="#427b58"/>
 <rect x="4" y="20" width="56" height="36" rx="2.8" ry="2.8" opacity=".2"/>
 <rect x="8" y="16" width="48" height="22" rx="2.8" ry="2.8" fill="#D5D7B3"/>
 <rect x="4" y="21" width="56" height="36" rx="2.8" ry="2.8" fill="#8ec07c"/>
 <path d="m6.8008 7c-1.5512 0-2.8008 1.2496-2.8008 2.8008v1.0002c0-1.5514 1.2496-2.801 2.8008-2.801h15.398c4.2 0 5.601 6 9.801 6h25.199c1.551 0 2.801 1.25 2.801 2.801v-1c0-1.551-1.25-2.801-2.801-2.801h-25.199c-4.2 0-5.601-6-9.801-6z" fill="#D5D7B3" opacity=".1"/>
 <path d="m29 27s1.154 0.706 0.34 2.562c-1.232 2.798 1.137 3.438 1.137 3.438s-0.753-0.656 0.25-2.965c1.108-2.558-1.727-3.035-1.727-3.035zm4.199 3.855s-2.097 0.932-0.746 3.477c0.893 1.687-0.098 2.523-0.098 2.523s2.534-0.835 1.312-3.164c-1.098-2.105-0.468-2.836-0.468-2.836zm-6.528 0.145s-1.502 1.599-0.015 3.562c0.983 1.307 0.34 2.438 0.34 2.438s1.861-1.651 0.515-3.457c-1.215-1.63-0.84-2.543-0.84-2.543zm0.325 6h-4.996l3 12h11l0.679-1.969c0.333 0.083 0.677 0.141 1.035 0.141 2.366-1e-3 4.286-1.521 4.286-3.888 0-2.008-1.387-3.68-3.252-4.144l0.395-2.14-12.148-1e-3zm11.41 3.519c0.016 2e-3 0.031 5e-3 0.047 8e-3 0.762 0.205 1.048 1.605 0.64 3.129-0.399 1.486-1.314 2.546-2.07 2.399z" fill="#313D38"/>
</svg>
