<?xml version="1.0" encoding="UTF-8"?>
<svg width="64" height="64" version="1" xmlns="http://www.w3.org/2000/svg">
 <rect x="4" y="22" width="56" height="36" rx="2.8" ry="2.8" opacity=".2"/>
 <path d="m4 46.2c0 1.551 1.2488 2.8 2.8 2.8h50.4c1.551 0 2.8-1.249 2.8-2.8v-30.4c0-1.551-1.249-2.8-2.8-2.8h-25.2c-4.2 0-5.6-6-9.8-6h-15.4c-1.5512 0-2.8 1.2488-2.8 2.8" fill="#266b79"/>
 <rect x="4" y="20" width="56" height="36" rx="2.8" ry="2.8" opacity=".2"/>
 <rect x="8" y="16" width="48" height="22" rx="2.8" ry="2.8" fill="#dadec0"/>
 <rect x="4" y="21" width="56" height="36" rx="2.8" ry="2.8" fill="#80aa9e"/>
 <path d="m6.8008 7c-1.5512 0-2.8008 1.2496-2.8008 2.8008v1.0002c0-1.5514 1.2496-2.801 2.8008-2.801h15.398c4.2 0 5.601 6 9.801 6h25.199c1.551 0 2.801 1.25 2.801 2.801v-1c0-1.551-1.25-2.801-2.801-2.801h-25.199c-4.2 0-5.601-6-9.801-6z" fill="#dadec0" opacity=".1"/>
 <path d="m32.414 29.008c-0.8478-0.03587-1.7109 0.03684-2.5703 0.22656-4.5772 1.0105-7.8439 5.08-7.8438 9.7656h-2l3 3 3-3h-2c-2.15e-4 -3.7588 2.6036-7.0019 6.2754-7.8125 3.6769-0.81173 7.4098 1.0403 8.9883 4.459 1.5785 3.4186 0.56698 7.4601-2.4355 9.7324-3.0025 2.2724-7.168 2.147-10.029-0.30078-1.0143-0.86588-2.3132 0.6556-1.2988 1.5215 3.5668 3.0513 8.7923 3.2077 12.535 0.375 3.7429-2.8327 5.0107-7.9044 3.043-12.166-1.4758-3.1962-4.4791-5.3022-7.8223-5.7285-0.27859-0.03552-0.5592-0.0603-0.8418-0.07227zm-0.42969 3.9785a1.0001 1.0001 0 0 0-0.98438 1.0137v4.8633a1.0001 1.0001 0 0 0 0.04102 0.43359 1.0001 1.0001 0 0 0 0.02734 0.07422 1.0001 1.0001 0 0 0 0.20898 0.33203l2.9219 3.8965a1.0004 1.0004 0 0 0 1.6016-1.1992l-2.8008-3.7344v-4.666a1.0001 1.0001 0 0 0-1.0156-1.0137z" fill="#374141"/>
</svg>
