<?xml version="1.0" encoding="UTF-8"?>
<svg width="64" height="64" version="1" xmlns="http://www.w3.org/2000/svg">
 <rect x="4" y="22" width="56" height="36" rx="2.8" ry="2.8" opacity=".2"/>
 <path d="m4 46.2c0 1.551 1.2488 2.8 2.8 2.8h50.4c1.551 0 2.8-1.249 2.8-2.8v-30.4c0-1.551-1.249-2.8-2.8-2.8h-25.2c-4.2 0-5.6-6-9.8-6h-15.4c-1.5512 0-2.8 1.2488-2.8 2.8" fill="#79740e"/>
 <rect x="4" y="26" width="56" height="30" rx="2.8" ry="2.8" opacity=".2"/>
 <rect x="8" y="16" width="48" height="22" rx="2.8" ry="2.8" fill="#d7d9ae"/>
 <rect x="4" y="27" width="56" height="30" rx="2.8" ry="2.8" fill="#b8bb26"/>
 <path d="m6.8008 7c-1.5512 0-2.8008 1.2496-2.8008 2.8008v1.0002c0-1.5514 1.2496-2.801 2.8008-2.801h15.398c4.2 0 5.601 6 9.801 6h25.199c1.551 0 2.801 1.25 2.801 2.801v-1c0-1.551-1.25-2.801-2.801-2.801h-25.199c-4.2 0-5.601-6-9.801-6z" fill="#d7d9ae" opacity=".1"/>
 <path d="m26.82 37.602c-0.068 0.014-0.138 0.04-0.202 0.07-0.646 0.302-0.814 1.246-0.372 2.12 0.356 0.704 0.986 1.14 1.558 1.126 0.432 2.338 2.148 4.082 4.196 4.082s3.764-1.744 4.196-4.082c0.572 0.014 1.202-0.422 1.558-1.126 0.442-0.874 0.274-1.818-0.372-2.12-0.064-0.03-0.134-0.056-0.202-0.07-0.084-2.556-2.368-4.602-5.18-4.602s-5.096 2.046-5.18 4.602zm5.172 9.398c-1.166 0-2.218-0.58-2.992-1.504-3.262 0.482-6.782 1.18-7 1.976v2.992c0 0.298 0.222 0.536 0.5 0.536h19c0.278 0 0.5-0.238 0.5-0.536v-2.992c-0.232-0.828-3.658-1.554-6.864-2.038-0.246 0.344-0.574 0.654-1.014 0.886l-4e-3 4e-3c-0.624 0.43-1.346 0.676-2.11 0.676" fill="#333e34"/>
</svg>
