<?xml version="1.0" encoding="UTF-8"?>
<svg width="64" height="64" version="1" xmlns="http://www.w3.org/2000/svg">
 <rect x="4" y="22" width="56" height="36" rx="2.8" ry="2.8" opacity=".2"/>
 <path d="m4 46.2c0 1.551 1.2488 2.8 2.8 2.8h50.4c1.551 0 2.8-1.249 2.8-2.8v-30.4c0-1.551-1.249-2.8-2.8-2.8h-25.2c-4.2 0-5.6-6-9.8-6h-15.4c-1.5512 0-2.8 1.2488-2.8 2.8" fill="#b57614"/>
 <rect x="4" y="20" width="56" height="36" rx="2.8" ry="2.8" opacity=".2"/>
 <rect x="8" y="16" width="48" height="22" rx="2.8" ry="2.8" fill="#f3deaa"/>
 <rect x="4" y="21" width="56" height="36" rx="2.8" ry="2.8" fill="#fabd2f"/>
 <path d="m22.571 28c-0.87059 0-1.5715 0.70086-1.5715 1.5715v6.8719c0 0.87059 0.70087 1.5715 1.5715 1.5715 0.87059 0 1.4285-0.70086 1.4285-1.5715v-3.5902l3.0002 2.857v2.5045h3.0429v-0.38555c0-0.4353 0.35043-0.78573 0.78573-0.78573h0.38556v-3.0431h-2.5045l-2.8569-3.0001h3.5903c0.87059 0 1.5715-0.55793 1.5715-1.4286 0-0.87059-0.70087-1.5715-1.5715-1.5715h-6.8718zm11.985 0c-0.87059 0-1.5715 0.70086-1.5715 1.5715 0 0.87059 0.70087 1.4286 1.5715 1.4286h3.5903l-2.857 2.9999h-2.5045v3.0431h0.38563c0.4353 0 0.78573 0.35043 0.78573 0.78573v0.38555h3.0426v-2.5045l3.0009-2.8568v3.5903c0 0.87059 0.65738 1.5715 1.528 1.5715 0.87059 0 1.4716-0.70086 1.4716-1.5715v-6.872c0-0.87059-0.70087-1.5715-1.5715-1.5715h-6.8719zm-7.557 11.786v2.6426c0 0.87122 0.20104 1.5442 1.0718 1.5719h3.1429v-3.0429h-0.38556c-0.4353 0-0.67642-0.36438-0.78573-0.78573v-0.38547h-3.0429zm6.9571 0v0.38547c0 0.4353-0.35043 0.78573-0.78573 0.78573h-0.38563v3.0429h2.5045l2.857 3.0004h-3.5903c-0.87059 0-1.5715 0.65838-1.5715 1.529 0 0.87059 0.70087 1.471 1.5715 1.471h6.8717c0.87011 0.0011 1.5708-0.69961 1.5708-1.5708v-6.8714c0-0.87059-0.60103-1.5715-1.4716-1.5715-0.87059 0-1.528 0.70087-1.528 1.5715v3.5903l-3.0011-2.8564v-2.5045h-3.0426z" fill="#473c29"/>
 <path d="m6.8008 7c-1.5512 0-2.8008 1.2496-2.8008 2.8008v1.0002c0-1.5514 1.2496-2.801 2.8008-2.801h15.398c4.2 0 5.601 6 9.801 6h25.199c1.551 0 2.801 1.25 2.801 2.801v-1c0-1.551-1.25-2.801-2.801-2.801h-25.199c-4.2 0-5.601-6-9.801-6z" fill="#f3deaa" opacity=".1"/>
</svg>
