<?xml version="1.0" encoding="UTF-8"?>
<svg width="64" height="64" version="1" xmlns="http://www.w3.org/2000/svg">
 <rect x="4" y="22" width="56" height="36" rx="2.8" ry="2.8" opacity=".2"/>
 <path d="m4 46.2c0 1.551 1.2488 2.8 2.8 2.8h50.4c1.551 0 2.8-1.249 2.8-2.8v-30.4c0-1.551-1.249-2.8-2.8-2.8h-25.2c-4.2 0-5.6-6-9.8-6h-15.4c-1.5512 0-2.8 1.2488-2.8 2.8" fill="#266b79"/>
 <rect x="4" y="20" width="56" height="36" rx="2.8" ry="2.8" opacity=".2"/>
 <rect x="8" y="16" width="48" height="22" rx="2.8" ry="2.8" fill="#dadec0"/>
 <rect x="4" y="21" width="56" height="36" rx="2.8" ry="2.8" fill="#80aa9e"/>
 <path d="m6.8008 7c-1.5512 0-2.8008 1.2496-2.8008 2.8008v1.0002c0-1.5514 1.2496-2.801 2.8008-2.801h15.398c4.2 0 5.601 6 9.801 6h25.199c1.551 0 2.801 1.25 2.801 2.801v-1c0-1.551-1.25-2.801-2.801-2.801h-25.199c-4.2 0-5.601-6-9.801-6z" fill="#dadec0" opacity=".1"/>
 <path d="m32 27a12 12 0 0 0-12 12 12 12 0 0 0 12 12h25v-2h-18.381-6.6191a10 10 0 0 1-10-10 10 10 0 0 1 10-10v-2zm0 3c-4.9706 0-9 4.0294-9 9s4.0294 9 9 9h25v-2h-25c-3.866 0-7-3.134-7-7s3.134-7 7-7c1.0385 0.0032 2.0632 0.23733 3 0.68555v-2.1602c-0.96289-0.34429-1.9774-0.52196-3-0.52539zm0 3a6 6 0 0 0-6 6 6 6 0 0 0 6 6h25v-2h-25a4 4 0 0 1-4-4 4 4 0 0 1 4-4 4 4 0 0 1 3.459 2h2.1895a6 6 0 0 0-5.6484-4z" fill="#374141"/>
</svg>
