<?xml version="1.0" encoding="UTF-8"?>
<svg width="64" height="64" version="1" xmlns="http://www.w3.org/2000/svg">
 <rect x="4" y="22" width="56" height="36" rx="2.8" ry="2.8" opacity=".2"/>
 <path d="m4 46.2c0 1.551 1.2488 2.8 2.8 2.8h50.4c1.551 0 2.8-1.249 2.8-2.8v-30.4c0-1.551-1.249-2.8-2.8-2.8h-25.2c-4.2 0-5.6-6-9.8-6h-15.4c-1.5512 0-2.8 1.2488-2.8 2.8" fill="#79740e"/>
 <rect x="4" y="20" width="56" height="36" rx="2.8" ry="2.8" opacity=".2"/>
 <rect x="8" y="16" width="48" height="22" rx="2.8" ry="2.8" fill="#d7d9ae"/>
 <rect x="4" y="21" width="56" height="36" rx="2.8" ry="2.8" fill="#b8bb26"/>
 <path d="m6.8008 7c-1.5512 0-2.8008 1.2496-2.8008 2.8008v1.0002c0-1.5514 1.2496-2.801 2.8008-2.801h15.398c4.2 0 5.601 6 9.801 6h25.199c1.551 0 2.801 1.25 2.801 2.801v-1c0-1.551-1.25-2.801-2.801-2.801h-25.199c-4.2 0-5.601-6-9.801-6z" fill="#d7d9ae" opacity=".1"/>
 <path d="m25 31c-4 0-4 2-4 2v8s0-2 4-2 6 4 6 4v-8s-2-4-6-4zm14 0c-4 0-6 4-6 4v8s2-4 6-4 4 2 4 2v-8s0-2-4-2zm-14 10c-4 0-4 2-4 2v2s0-2 4-2 6 4 6 4v-2s-2-4-6-4zm14 0c-4 0-6.0101 3.9854-6 4v2s2-4 6-4 4 2 4 2v-2s0-2-4-2z" fill="#333e34"/>
</svg>
