<?xml version="1.0" encoding="UTF-8"?>
<svg width="64" height="64" version="1" xmlns="http://www.w3.org/2000/svg">
 <rect x="4" y="22" width="56" height="36" rx="2.8" ry="2.8" opacity=".2"/>
 <path d="m4 46.2c0 1.551 1.2488 2.8 2.8 2.8h50.4c1.551 0 2.8-1.249 2.8-2.8v-30.4c0-1.551-1.249-2.8-2.8-2.8h-25.2c-4.2 0-5.6-6-9.8-6h-15.4c-1.5512 0-2.8 1.2488-2.8 2.8" fill="#b94c07"/>
 <rect x="4" y="20" width="56" height="36" rx="2.8" ry="2.8" opacity=".2"/>
 <rect x="8" y="16" width="48" height="22" rx="2.8" ry="2.8" fill="#F6E0B4"/>
 <rect x="4" y="21" width="56" height="36" rx="2.8" ry="2.8" fill="#f28534"/>
 <path d="m6.8008 7c-1.5512 0-2.8008 1.2496-2.8008 2.8008v1.0002c0-1.5514 1.2496-2.801 2.8008-2.801h15.398c4.2 0 5.601 6 9.801 6h25.199c1.551 0 2.801 1.25 2.801 2.801v-1c0-1.551-1.25-2.801-2.801-2.801h-25.199c-4.2 0-5.601-6-9.801-6z" fill="#F6E0B4" opacity=".1"/>
 <path d="m26.73 31c-0.302 1e-3 -0.651 0.097-1.007 0.301-1.297 0.73-2.491 3.122-3.139 6.222-0.553 2.634-0.755 6.232-0.426 7.68 0.287 1.245 0.782 1.797 1.664 1.797 1.308-0.024 2.953-1.581 3.994-3.676 0.754-1.159 2.5-1.687 4.184-1.629 1.684-0.063 3.43 0.47 4.184 1.629 1.041 2.095 2.686 3.652 3.994 3.676 0.882 0 1.377-0.552 1.664-1.797 0.329-1.448 0.127-5.046-0.426-7.68-0.648-3.1-1.842-5.492-3.139-6.222-0.356-0.204-0.683-0.302-0.984-0.301-0.301 2e-3 -0.576 0.103-0.836 0.301-0.659 0.503-2.033 1.041-4.457 1.043s-3.798-0.54-4.457-1.043c-0.26-0.198-0.51-0.303-0.813-0.301zm0.27 3h2v2h2v2h-2v2h-2v-2h-2v-2h2v-2zm9 0c0.552 0 1 0.448 1 1s-0.448 1-1 1-1-0.448-1-1 0.448-1 1-1zm-2 2c0.552 0 1 0.448 1 1s-0.448 1-1 1-1-0.448-1-1 0.448-1 1-1zm4 0c0.552 0 1 0.448 1 1s-0.448 1-1 1-1-0.448-1-1 0.448-1 1-1zm-2 2c0.552 0 1 0.448 1 1s-0.448 1-1 1-1-0.448-1-1 0.448-1 1-1z" fill="#4E3B30"/>
</svg>
