<?xml version="1.0" encoding="UTF-8"?>
<svg width="64" height="64" version="1" xmlns="http://www.w3.org/2000/svg">
 <rect x="4" y="22" width="56" height="36" rx="2.8" ry="2.8" opacity=".2"/>
 <path d="m4 46.2c0 1.551 1.2488 2.8 2.8 2.8h50.4c1.551 0 2.8-1.249 2.8-2.8v-30.4c0-1.551-1.249-2.8-2.8-2.8h-25.2c-4.2 0-5.6-6-9.8-6h-15.4c-1.5512 0-2.8 1.2488-2.8 2.8" fill="#4c7a5d"/>
 <rect x="4" y="20" width="56" height="36" rx="2.8" ry="2.8" opacity=".2"/>
 <rect x="8" y="16" width="48" height="22" rx="2.8" ry="2.8" fill="#DBE3C7"/>
 <rect x="4" y="21" width="56" height="36" rx="2.8" ry="2.8" fill="#89b482"/>
 <path d="m6.8008 7c-1.5512 0-2.8008 1.2496-2.8008 2.8008v1.0002c0-1.5514 1.2496-2.801 2.8008-2.801h15.398c4.2 0 5.601 6 9.801 6h25.199c1.551 0 2.801 1.25 2.801 2.801v-1c0-1.551-1.25-2.801-2.801-2.801h-25.199c-4.2 0-5.601-6-9.801-6z" fill="#DBE3C7" opacity=".1"/>
 <path d="m35.98 29c-0.991 0.035-2.195 0.579-2.906 1.311-0.639 0.65-1.201 1.685-1.051 2.68 1.107 0.076 2.241-0.495 2.93-1.227 0.688-0.734 1.154-1.749 1.027-2.764zm-0.656 4.01c-1.315 0.105-2.516 0.969-3.196 0.969-0.774 0-1.969-0.939-3.238-0.914-1.668 0.027-3.208 1.038-4.067 2.641-1.732 3.226-0.446 8.005 1.243 10.622 0.825 1.281 1.836 2.672 3.105 2.672s1.715-0.867 3.219-0.867 1.915 0.867 3.243 0.867 2.184-1.333 3.004-2.617c0.947-1.486 1.34-2.927 1.363-3.001-0.03-0.014-2.611-1.072-2.637-4.262-0.025-2.67 2.034-3.952 2.125-4.015-1.154-1.813-2.953-2.062-3.594-2.09-0.191-0.021-0.382-0.019-0.57-4e-3z" fill="#414A42"/>
</svg>
