<?xml version="1.0" encoding="UTF-8"?>
<svg width="64" height="64" version="1" xmlns="http://www.w3.org/2000/svg">
 <rect x="4" y="22" width="56" height="36" rx="2.8" ry="2.8" opacity=".2"/>
 <path d="m4 46.2c0 1.551 1.2488 2.8 2.8 2.8h50.4c1.551 0 2.8-1.249 2.8-2.8v-30.4c0-1.551-1.249-2.8-2.8-2.8h-25.2c-4.2 0-5.6-6-9.8-6h-15.4c-1.5512 0-2.8 1.2488-2.8 2.8" fill="#9d0006"/>
 <rect x="4" y="20" width="56" height="36" rx="2.8" ry="2.8" opacity=".2"/>
 <rect x="8" y="16" width="48" height="22" rx="2.8" ry="2.8" fill="#efd2b3"/>
 <rect x="4" y="21" width="56" height="36" rx="2.8" ry="2.8" fill="#fb4934"/>
 <path d="m6.8008 7c-1.5512 0-2.8008 1.2496-2.8008 2.8008v1.0002c0-1.5514 1.2496-2.801 2.8008-2.801h15.398c4.2 0 5.601 6 9.801 6h25.199c1.551 0 2.801 1.25 2.801 2.801v-1c0-1.551-1.25-2.801-2.801-2.801h-25.199c-4.2 0-5.601-6-9.801-6z" fill="#efd2b3" opacity=".1"/>
 <path d="m24 28c-1.662 0-3 1.338-3 3v4c0 1.662 1.338 3 3 3h4c1.662 0 3-1.338 3-3v-4c0-1.662-1.338-3-3-3h-4zm12 0c-1.662 0-3 1.338-3 3v4c0 1.662 1.338 3 3 3h4c1.662 0 3-1.338 3-3v-4c0-1.662-1.338-3-3-3h-4zm-12 12c-1.662 0-3 1.338-3 3v4c0 1.662 1.338 3 3 3h4c1.662 0 3-1.338 3-3v-4c0-1.662-1.338-3-3-3h-4zm13 0c-0.554 0-1 0.446-1 1v2h-1.5c-1.2891-1.45e-4 -1.978 1.5183-1.1289 2.4883l3.5 4c0.59767 0.68295 1.6601 0.68295 2.2578 0l3.5-4c0.84913-0.96995 0.16021-2.4884-1.1289-2.4883h-1.5v-2c0-0.554-0.446-1-1-1h-2z" fill="#442e2d"/>
</svg>
