<?xml version="1.0" encoding="UTF-8"?>
<svg width="64" height="64" version="1" xmlns="http://www.w3.org/2000/svg">
 <rect x="4" y="22" width="56" height="36" rx="2.8" ry="2.8" opacity=".2"/>
 <path d="m4 46.2c0 1.551 1.2488 2.8 2.8 2.8h50.4c1.551 0 2.8-1.249 2.8-2.8v-30.4c0-1.551-1.249-2.8-2.8-2.8h-25.2c-4.2 0-5.6-6-9.8-6h-15.4c-1.5512 0-2.8 1.2488-2.8 2.8" fill="#b47109"/>
 <rect x="4" y="20" width="56" height="36" rx="2.8" ry="2.8" opacity=".2"/>
 <rect x="8" y="16" width="48" height="22" rx="2.8" ry="2.8" fill="#f9eabf"/>
 <rect x="4" y="21" width="56" height="36" rx="2.8" ry="2.8" fill="#d8a657"/>
 <path d="m6.8008 7c-1.5512 0-2.8008 1.2496-2.8008 2.8008v1.0002c0-1.5514 1.2496-2.801 2.8008-2.801h15.398c4.2 0 5.601 6 9.801 6h25.199c1.551 0 2.801 1.25 2.801 2.801v-1c0-1.551-1.25-2.801-2.801-2.801h-25.199c-4.2 0-5.601-6-9.801-6z" fill="#f9eabf" opacity=".1"/>
 <path d="m32 27c-6.627 0-12 5.373-12 12s5.373 12 12 12h7.5s1.406-0.601 1.5-2.101c0-1.5-1.5-1.899-1.5-1.899h-7.5c-0.39-3e-3 -0.779-0.034-1.165-0.094-1.399-0.159-2.511-0.598-3.351-1.304l-0.012-8e-3c-2.173-1.492-3.472-3.958-3.473-6.594 0-4.418 3.582-8 8-8 4.419 0 8 3.582 8 8-1e-3 0.908-0.185 1.49-0.48 2.004-7e-3 0-0.013-4e-3 -0.02-4e-3h-1.867c0.223-0.628 0.367-1.295 0.367-2 0-3.314-2.686-6-6-6-3.313 0-6 2.686-6 6s2.686 6 6 6h7.5c1.083-0.1 1.845-0.743 2.539-1.152 1.525-1.088 1.962-2.621 1.962-4.848 0-6.627-5.373-12-12-12zm0 10c1.104 0 2 0.896 2 2 0 1.105-0.896 2-2 2-1.105 0-2-0.895-2-2 0-1.104 0.895-2 2-2z" fill="#574833"/>
</svg>
