<?xml version="1.0" encoding="UTF-8"?>
<svg width="64" height="64" version="1" xmlns="http://www.w3.org/2000/svg">
 <rect x="4" y="22" width="56" height="36" rx="2.8" ry="2.8" opacity=".2"/>
 <path d="m4 46.2c0 1.551 1.2488 2.8 2.8 2.8h50.4c1.551 0 2.8-1.249 2.8-2.8v-30.4c0-1.551-1.249-2.8-2.8-2.8h-25.2c-4.2 0-5.6-6-9.8-6h-15.4c-1.5512 0-2.8 1.2488-2.8 2.8" fill="#945e80"/>
 <rect x="4" y="20" width="56" height="36" rx="2.8" ry="2.8" opacity=".2"/>
 <rect x="8" y="16" width="48" height="22" rx="2.8" ry="2.8" fill="#E5DFC8"/>
 <rect x="4" y="21" width="56" height="36" rx="2.8" ry="2.8" fill="#d3869b"/>
 <path d="m6.8008 7c-1.5512 0-2.8008 1.2496-2.8008 2.8008v1.0002c0-1.5514 1.2496-2.801 2.8008-2.801h15.398c4.2 0 5.601 6 9.801 6h25.199c1.551 0 2.801 1.25 2.801 2.801v-1c0-1.551-1.25-2.801-2.801-2.801h-25.199c-4.2 0-5.601-6-9.801-6z" fill="#E5DFC8" opacity=".1"/>
 <path d="m34.398 31c-2.405 0-4.604 1.353-5.695 3.496-0.477-0.195-0.989-0.296-1.504-0.297-2.001 0-3.69 1.482-3.957 3.465-1.937 0.666-3.24 2.487-3.242 4.535 0 2.651 2.15 4.801 4.801 4.801h14.398c2.651 0 4.801-2.15 4.801-4.801-2e-3 -2.037-1.288-3.85-3.211-4.523 6e-3 -0.092 9e-3 -0.186 0.012-0.278 0-3.534-2.868-6.398-6.403-6.398zm0 4c1.37 0 2.394 1.023 2.399 2.39v0.012a4.0004 4.0004 0 0 0 2.668 4.047c0.334 0.117 0.534 0.399 0.536 0.75 0 0.489-0.312 0.801-0.801 0.801h-14.398c-0.488 0-0.799-0.31-0.801-0.797v-4e-3c1e-3 -0.354 0.203-0.634 0.539-0.75a4.0004 4.0004 0 0 0 2.664-3.246 4.0004 4.0004 0 0 0 5.066-1.891c0.413-0.812 1.224-1.312 2.128-1.312z" fill="#4A413F"/>
</svg>
