<?xml version="1.0" encoding="UTF-8"?>
<svg width="64" height="64" version="1" xmlns="http://www.w3.org/2000/svg">
 <rect x="4" y="22" width="56" height="36" rx="2.8" ry="2.8" opacity=".2"/>
 <path d="m4 46.2c0 1.551 1.2488 2.8 2.8 2.8h50.4c1.551 0 2.8-1.249 2.8-2.8v-30.4c0-1.551-1.249-2.8-2.8-2.8h-25.2c-4.2 0-5.6-6-9.8-6h-15.4c-1.5512 0-2.8 1.2488-2.8 2.8" fill="#c14a4a"/>
 <rect x="4" y="20" width="56" height="36" rx="2.8" ry="2.8" opacity=".2"/>
 <rect x="8" y="16" width="48" height="22" rx="2.8" ry="2.8" fill="#f0ddc3"/>
 <rect x="4" y="21" width="56" height="36" rx="2.8" ry="2.8" fill="#ea6962"/>
 <path d="m6.8008 7c-1.5512 0-2.8008 1.2496-2.8008 2.8008v1.0002c0-1.5514 1.2496-2.801 2.8008-2.801h15.398c4.2 0 5.601 6 9.801 6h25.199c1.551 0 2.801 1.25 2.801 2.801v-1c0-1.551-1.25-2.801-2.801-2.801h-25.199c-4.2 0-5.601-6-9.801-6z" fill="#f0ddc3" opacity=".1"/>
 <path d="m31.333 31c-2.857 3e-3 -5.394 1.99-6.309 4.942-1.847 0.968-3.022 3.005-3.024 5.24 0 3.213 2.388 5.818 5.333 5.818 1.308-3e-3 2.569-0.529 3.544-1.48 0.152 0.014 0.304 0.023 0.456 0.026 0.974-4e-3 1.936-0.24 2.817-0.693 0.774 0.453 1.638 0.691 2.516 0.693 2.946 0 5.335-2.606 5.334-5.82 0-3.213-2.388-5.818-5.333-5.818h-0.011c-1.257-1.828-3.228-2.904-5.323-2.908z" fill="#543937"/>
</svg>
