<?xml version="1.0" encoding="UTF-8"?>
<svg width="64" height="64" version="1" xmlns="http://www.w3.org/2000/svg">
 <rect x="4" y="22" width="56" height="36" rx="2.8" ry="2.8" opacity=".2"/>
 <path d="m4 46.2c0 1.551 1.2488 2.8 2.8 2.8h50.4c1.551 0 2.8-1.249 2.8-2.8v-30.4c0-1.551-1.249-2.8-2.8-2.8h-25.2c-4.2 0-5.6-6-9.8-6h-15.4c-1.5512 0-2.8 1.2488-2.8 2.8" fill="#45707a"/>
 <rect x="4" y="20" width="56" height="36" rx="2.8" ry="2.8" opacity=".2"/>
 <rect x="8" y="16" width="48" height="22" rx="2.8" ry="2.8" fill="#d9e1cc"/>
 <rect x="4" y="21" width="56" height="36" rx="2.8" ry="2.8" fill="#7daea3"/>
 <path d="m6.8008 7c-1.5512 0-2.8008 1.2496-2.8008 2.8008v1.0002c0-1.5514 1.2496-2.801 2.8008-2.801h15.398c4.2 0 5.601 6 9.801 6h25.199c1.551 0 2.801 1.25 2.801 2.801v-1c0-1.551-1.25-2.801-2.801-2.801h-25.199c-4.2 0-5.601-6-9.801-6z" fill="#d9e1cc" opacity=".1"/>
 <path d="m16 42.112 6.016 3.474c-0.01 0.138-0.016 0.276-0.016 0.414 0 3.314 2.686 6 6 6s6-2.686 6-6c-4e-3 -0.274-0.026-0.546-0.066-0.816l7.276-5.196c3.78-0.114 6.786-3.208 6.79-6.988 0-3.866-3.134-7-7-7s-7.002 3.134-7 7.028l-4.644 7.136c-0.444-0.106-0.9-0.162-1.356-0.164-0.906 2e-3 -1.8 0.21-2.614 0.606l-9.386-5.418m25-7.188c2.762 0 5 2.238 5 5s-2.238 5-5 5-5-2.238-5-5 2.238-5 5-5zm0 2c-1.656 0-3 1.344-3 3s1.344 3 3 3 3-1.344 3-3-1.344-3-3-3zm-13 12c2.21 0 4 1.79 4 4s-1.79 4-4 4c-1.908-2e-3 -3.548-1.352-3.918-3.222l1.41 0.816c1.44 0.83 3.266 0.342 4.098-1.098 0.83-1.44 0.342-3.266-1.098-4.098l-0.676-0.39c0.062-4e-3 0.122-6e-3 0.184-8e-3z" fill="#404946"/>
</svg>
