<?xml version="1.0" encoding="UTF-8"?>
<svg width="64" height="64" version="1" xmlns="http://www.w3.org/2000/svg">
 <rect x="4" y="22" width="56" height="36" rx="2.8" ry="2.8" opacity=".2"/>
 <path d="m4 46.2c0 1.551 1.2488 2.8 2.8 2.8h50.4c1.551 0 2.8-1.249 2.8-2.8v-30.4c0-1.551-1.249-2.8-2.8-2.8h-25.2c-4.2 0-5.6-6-9.8-6h-15.4c-1.5512 0-2.8 1.2488-2.8 2.8" fill="#72761e"/>
 <rect x="4" y="20" width="56" height="36" rx="2.8" ry="2.8" opacity=".2"/>
 <rect x="8" y="16" width="48" height="22" rx="2.8" ry="2.8" fill="#dee2b6"/>
 <rect x="4" y="21" width="56" height="36" rx="2.8" ry="2.8" fill="#b0b846"/>
 <path d="m6.8008 7c-1.5512 0-2.8008 1.2496-2.8008 2.8008v1.0002c0-1.5514 1.2496-2.801 2.8008-2.801h15.398c4.2 0 5.601 6 9.801 6h25.199c1.551 0 2.801 1.25 2.801 2.801v-1c0-1.551-1.25-2.801-2.801-2.801h-25.199c-4.2 0-5.601-6-9.801-6z" fill="#dee2b6" opacity=".1"/>
 <path d="m33 31a6 6 0 0 0-5.5273 3.668c-0.75034-0.42998-1.5995-0.66631-2.4727-0.66797-2.7614 0-5 2.2386-5 5 0.0024 0.33747 0.03914 0.67382 0.10938 1.0039-0.03644-0.0018-0.072895-0.003106-0.10938-0.003906-2.2091 0-4 1.7909-4 4s1.7909 4 4 4c0.76815-0.0018 1.5193-0.22519 2.1641-0.64258-0.049583-0.2105-0.090738-0.42453-0.11719-0.64258-0.00143-0.011104-0.002538-0.022082-0.003906-0.033203-0.025912-0.22424-0.042969-0.45096-0.042969-0.68164 0-2.7023 1.8617-4.9207 4.3379-5.6602 0.04867-0.19171 0.12612-0.37109 0.18945-0.55664 0.001079-0.00311 9.85e-4 -0.006611 0.001953-0.009765 0.009093-0.029659 0.014914-0.06075 0.025391-0.089844 0.006427-0.018302 0.015779-0.03507 0.023437-0.052735 9.89e-4 -0.002704 0.002914-0.00511 0.003906-0.007812 0.11423-0.31107 0.24902-0.60882 0.40234-0.89844 0.0016-0.0031 0.002206-0.006665 0.003906-0.009765 6.77e-4 -0.001293 0.0011-0.002742 0.001953-0.003906l0.001954-0.001954c1.1624-2.1829 3.3735-3.709 6.0078-3.709a2.0002 2.0002 0 0 0 0.001953 0c2.4276 0.001194 4.5943 1.2914 5.8555 3.2656a6 6 0 0 0 0.14258-1.2656 6 6 0 0 0-6-6zm0 6c-2.7614 0-5 2.2386-5 5-2.2091 0-4 1.7909-4 4s1.7909 4 4 4h17c1.6568 0 3-1.3432 3-3 0-1.6568-1.3432-3-3-3-0.34375 0.0017-0.68465 0.062508-1.0078 0.17969 0.003999-0.059821 0.006612-0.11975 0.007812-0.17969 0-2.2091-1.7909-4-4-4-0.77705 3.58e-4 -1.5372 0.22704-2.1875 0.65234-0.60411-2.1585-2.571-3.6512-4.8125-3.6523z" fill="#3b4439"/>
</svg>
