<?xml version="1.0" encoding="UTF-8"?>
<svg width="64" height="64" version="1" xmlns="http://www.w3.org/2000/svg">
 <rect x="4" y="22" width="56" height="36" rx="2.8" ry="2.8" opacity=".2"/>
 <path d="m4 46.2c0 1.551 1.2488 2.8 2.8 2.8h50.4c1.551 0 2.8-1.249 2.8-2.8v-30.4c0-1.551-1.249-2.8-2.8-2.8h-25.2c-4.2 0-5.6-6-9.8-6h-15.4c-1.5512 0-2.8 1.2488-2.8 2.8" fill="#6c782e"/>
 <rect x="4" y="20" width="56" height="36" rx="2.8" ry="2.8" opacity=".2"/>
 <rect x="8" y="16" width="48" height="22" rx="2.8" ry="2.8" fill="#dde5c2"/>
 <rect x="4" y="21" width="56" height="36" rx="2.8" ry="2.8" fill="#a9b665"/>
 <path d="m6.8008 7c-1.5512 0-2.8008 1.2496-2.8008 2.8008v1.0002c0-1.5514 1.2496-2.801 2.8008-2.801h15.398c4.2 0 5.601 6 9.801 6h25.199c1.551 0 2.801 1.25 2.801 2.801v-1c0-1.551-1.25-2.801-2.801-2.801h-25.199c-4.2 0-5.601-6-9.801-6z" fill="#dde5c2" opacity=".1"/>
 <path d="m27 33c-3.314 0-6 2.686-6 6s2.686 6 6 6c2.539 0 4.802-1.606 5.648-4h4.352v2h4v-2h2v-4h-10.352c-0.846-2.394-3.109-4-5.648-4zm0 4c1.104 0 2 0.895 2 2 0 1.104-0.896 2-2 2-1.105 0-2-0.896-2-2 0-1.105 0.895-2 2-2z" fill="#424a3e"/>
</svg>
