<?xml version="1.0" encoding="UTF-8"?>
<svg width="64" height="64" version="1" xmlns="http://www.w3.org/2000/svg">
 <rect x="4" y="22" width="56" height="36" rx="2.8" ry="2.8" opacity=".2"/>
 <path d="m4 46.2c0 1.551 1.2488 2.8 2.8 2.8h50.4c1.551 0 2.8-1.249 2.8-2.8v-30.4c0-1.551-1.249-2.8-2.8-2.8h-25.2c-4.2 0-5.6-6-9.8-6h-15.4c-1.5512 0-2.8 1.2488-2.8 2.8" fill="#427b58"/>
 <rect x="4" y="20" width="56" height="36" rx="2.8" ry="2.8" opacity=".2"/>
 <rect x="8" y="16" width="48" height="22" rx="2.8" ry="2.8" fill="#D5D7B3"/>
 <rect x="4" y="21" width="56" height="36" rx="2.8" ry="2.8" fill="#8ec07c"/>
 <path d="m6.8008 7c-1.5512 0-2.8008 1.2496-2.8008 2.8008v1.0002c0-1.5514 1.2496-2.801 2.8008-2.801h15.398c4.2 0 5.601 6 9.801 6h25.199c1.551 0 2.801 1.25 2.801 2.801v-1c0-1.551-1.25-2.801-2.801-2.801h-25.199c-4.2 0-5.601-6-9.801-6z" fill="#D5D7B3" opacity=".1"/>
 <path d="m32.5 28a10.214 10.214 0 0 0-9.4434 6.334 7.8571 7.8571 0 0 0-7.0566 7.8086 7.8571 7.8571 0 0 0 7.8574 7.8574h18.465c2.8206 0 5.1055-2.2868 5.1055-5.1074 0-1.9281-1.0791-3.5878-2.6562-4.457a4.7143 4.7143 0 0 0 1.0859-3.0078 4.7143 4.7143 0 0 0-4.7148-4.7129 4.7143 4.7143 0 0 0-0.037109 0 10.214 10.214 0 0 0-8.6055-4.7148zm0.5 3a7 7 0 0 1 7 7 7 7 0 0 1-7 7 7 7 0 0 1-7-7 7 7 0 0 1 7-7zm0 2a5 5 0 0 0-2.9902 1h1.9902 1.5293c1.47 0 2.4707 0.49031 2.4707 2.3574 0 2.1758-1.0007 2.6426-2.4707 2.6426h-1.5293v3h-1.9902a5 5 0 0 0 2.9902 1 5 5 0 0 0 5-5 5 5 0 0 0-5-5zm-3 1.0078a5 5 0 0 0-2 3.9922 5 5 0 0 0 2 3.9922v-3.2773-4.707zm2 1.9922v1h1c0.58782 0 1-2.4e-5 1-0.48828 2e-6 -0.51174-0.36074-0.51172-1-0.51172h-1z" fill="#313D38"/>
</svg>
