<?xml version="1.0" encoding="UTF-8"?>
<svg width="64" height="64" version="1" xmlns="http://www.w3.org/2000/svg">
 <rect x="4" y="22" width="56" height="36" rx="2.8" ry="2.8" opacity=".2"/>
 <path d="m4 46.2c0 1.551 1.2488 2.8 2.8 2.8h50.4c1.551 0 2.8-1.249 2.8-2.8v-30.4c0-1.551-1.249-2.8-2.8-2.8h-25.2c-4.2 0-5.6-6-9.8-6h-15.4c-1.5512 0-2.8 1.2488-2.8 2.8" fill="#af2528"/>
 <rect x="4" y="20" width="56" height="36" rx="2.8" ry="2.8" opacity=".2"/>
 <rect x="8" y="16" width="48" height="22" rx="2.8" ry="2.8" fill="#f1d9b5"/>
 <rect x="4" y="21" width="56" height="36" rx="2.8" ry="2.8" fill="#f2594b"/>
 <path d="m6.8008 7c-1.5512 0-2.8008 1.2496-2.8008 2.8008v1.0002c0-1.5514 1.2496-2.801 2.8008-2.801h15.398c4.2 0 5.601 6 9.801 6h25.199c1.551 0 2.801 1.25 2.801 2.801v-1c0-1.551-1.25-2.801-2.801-2.801h-25.199c-4.2 0-5.601-6-9.801-6z" fill="#f1d9b5" opacity=".1"/>
 <path d="m25.111 29c-0.16802 0-0.33624 0.09512-0.39899 0.28577l-2.2388 6.714h5.4757l-2.439-6.714c-0.06277-0.19065-0.23097-0.28577-0.39899-0.28577zm2.8379 6.9998 4.0513 13 4.0513-13zm8.1026 0h5.4757l-2.2388-6.714c-0.12549-0.38129-0.67243-0.38129-0.79798 0zm5.4757 0-9.527 13 10.654-7.6397c0.29397-0.21071 0.41714-0.58413 0.30487-0.92516zm-9.527 13-9.527-13-1.4319 4.4351c-0.11227 0.34103 0.0109 0.71444 0.30487 0.92516z" fill="#4c3432"/>
</svg>
