<?xml version="1.0" encoding="UTF-8"?>
<svg width="64" height="64" version="1" xmlns="http://www.w3.org/2000/svg">
 <rect x="4" y="22" width="56" height="36" rx="2.8" ry="2.8" opacity=".2"/>
 <path d="m4 46.2c0 1.551 1.2488 2.8 2.8 2.8h50.4c1.551 0 2.8-1.249 2.8-2.8v-30.4c0-1.551-1.249-2.8-2.8-2.8h-25.2c-4.2 0-5.6-6-9.8-6h-15.4c-1.5512 0-2.8 1.2488-2.8 2.8" fill="#266b79"/>
 <rect x="4" y="20" width="56" height="36" rx="2.8" ry="2.8" opacity=".2"/>
 <rect x="8" y="16" width="48" height="22" rx="2.8" ry="2.8" fill="#dadec0"/>
 <rect x="4" y="21" width="56" height="36" rx="2.8" ry="2.8" fill="#80aa9e"/>
 <path d="m6.8008 7c-1.5512 0-2.8008 1.2496-2.8008 2.8008v1.0002c0-1.5514 1.2496-2.801 2.8008-2.801h15.398c4.2 0 5.601 6 9.801 6h25.199c1.551 0 2.801 1.25 2.801 2.801v-1c0-1.551-1.25-2.801-2.801-2.801h-25.199c-4.2 0-5.601-6-9.801-6z" fill="#dadec0" opacity=".1"/>
 <path d="m29.476 29v4e-3l-0.222 2.633a7.9283 7.8567 0 0 0-2.317 1.328l-2.414-1.129-2.523 4.332 2.195 1.512a7.9283 7.8567 0 0 0-0.125 1.324 7.9283 7.8567 0 0 0 0.117 1.332l-2.187 1.5 2.523 4.332 2.41-1.129a7.9283 7.8567 0 0 0 2.324 1.324l0.219 2.637h5.047l0.223-2.633a7.9283 7.8567 0 0 0 2.316-1.328l2.414 1.125 2.524-4.328-2.191-1.508a7.9283 7.8567 0 0 0 0.117-1.328 7.9283 7.8567 0 0 0-0.117-1.328l2.188-1.508-2.52-4.328-2.414 1.125a7.9283 7.8567 0 0 0-2.32-1.32l-0.219-2.641h-5.047zm2.524 6a4 4 0 0 1 4 4 4 4 0 0 1-4 4 4 4 0 0 1-4-4 4 4 0 0 1 4-4z" fill="#374141"/>
</svg>
