<?xml version="1.0" encoding="UTF-8"?>
<svg width="64" height="64" version="1" xmlns="http://www.w3.org/2000/svg">
 <rect x="4" y="22" width="56" height="36" rx="2.8" ry="2.8" opacity=".2"/>
 <path d="m4 46.2c0 1.551 1.2488 2.8 2.8 2.8h50.4c1.551 0 2.8-1.249 2.8-2.8v-30.4c0-1.551-1.249-2.8-2.8-2.8h-25.2c-4.2 0-5.6-6-9.8-6h-15.4c-1.5512 0-2.8 1.2488-2.8 2.8" fill="#076678"/>
 <rect x="4" y="20" width="56" height="36" rx="2.8" ry="2.8" opacity=".2"/>
 <rect x="8" y="16" width="48" height="22" rx="2.8" ry="2.8" fill="#d3d5b8"/>
 <rect x="4" y="21" width="56" height="36" rx="2.8" ry="2.8" fill="#83a598"/>
 <path d="m6.8008 7c-1.5512 0-2.8008 1.2496-2.8008 2.8008v1.0002c0-1.5514 1.2496-2.801 2.8008-2.801h15.398c4.2 0 5.601 6 9.801 6h25.199c1.551 0 2.801 1.25 2.801 2.801v-1c0-1.551-1.25-2.801-2.801-2.801h-25.199c-4.2 0-5.601-6-9.801-6z" fill="#d3d5b8" opacity=".1"/>
 <path d="m32 29.025c-5.54 0-10 4.46-10 10 0 4.4662 2.959 8.2252 6.9854 9.5166v-1.6774c-2.5313 0.5586-3.123-1.1133-3.123-1.1133-0.41399-1.0683-1.0107-1.1525-1.0107-1.1525-0.82629-0.57321 0.06104-0.56396 0.06104-0.56396 0.9134 0.06524 1.394 0.95459 1.394 0.95459 0.81175 1.4129 2.1896 1.0057 2.708 0.76904 0.08269-0.59716 0.25976-1.607 0.51953-1.8381-2.0206-0.23338-3.5342-1.5255-3.5342-5.0688 0-1.0093 0.59588-2.3347 1.178-2.9805-0.09387-0.23388-0.40761-1.5868 0.08789-2.8594 0 0 0.04774-0.01503 0.14648-0.01954 0.29612-0.01387 0.96225 0.46058 2.2656 1.358 0.78693-0.22608 1.6933-0.33179 2.322-0.33692 0.70892-0.0059 1.4298 0.11611 2.1695 0.33692 1.3038-0.89738 2.1366-1.3741 2.4316-1.3604h0.0025c0.09863 0.0046 0.14648 0.01954 0.14648 0.01954 0.49665 1.2726 0.18363 2.628 0.09034 2.8619 0.58315 0.646 1.1595 1.9713 1.1595 2.9805 0 3.5523-2.2761 4.8327-4.3029 5.0614 0.32626 0.2855 0.40772 0.8516 0.40772 1.7139 0 1.0414-0.0026 1.7183-0.0049 2.1484v0.92529c4.3207-1.1059 7.9-5.0004 7.9-9.6753 0-5.54-4.46-10-10-10z" fill="#2e3b3b"/>
</svg>
