<?xml version="1.0" encoding="UTF-8"?>
<svg width="64" height="64" version="1" xmlns="http://www.w3.org/2000/svg">
 <rect x="4" y="22" width="56" height="36" rx="2.8" ry="2.8" opacity=".2"/>
 <path d="m4 46.2c0 1.551 1.2488 2.8 2.8 2.8h50.4c1.551 0 2.8-1.249 2.8-2.8v-30.4c0-1.551-1.249-2.8-2.8-2.8h-25.2c-4.2 0-5.6-6-9.8-6h-15.4c-1.5512 0-2.8 1.2488-2.8 2.8" fill="#c14a4a"/>
 <rect x="4" y="20" width="56" height="36" rx="2.8" ry="2.8" opacity=".2"/>
 <rect x="8" y="16" width="48" height="22" rx="2.8" ry="2.8" fill="#f0ddc3"/>
 <rect x="4" y="21" width="56" height="36" rx="2.8" ry="2.8" fill="#ea6962"/>
 <path d="m6.8008 7c-1.5512 0-2.8008 1.2496-2.8008 2.8008v1.0002c0-1.5514 1.2496-2.801 2.8008-2.801h15.398c4.2 0 5.601 6 9.801 6h25.199c1.551 0 2.801 1.25 2.801 2.801v-1c0-1.551-1.25-2.801-2.801-2.801h-25.199c-4.2 0-5.601-6-9.801-6z" fill="#f0ddc3" opacity=".1"/>
 <path d="m23.957 32.988a1.0001 1.0001 0 0 0-0.77148 1.5938l2.1211 2.9688c-1.8293 1.6303-3.0579 3.9143-3.3047 6.4863-0.045933 0.96247 0.96875 0.96289 0.96875 0.96289h18.033s1.0448 7.66e-4 0.99414-1.0098c-0.25746-2.5537-1.4814-4.8231-3.3008-6.4434l2.1172-2.9648a1.0001 1.0001 0 0 0-0.80078-1.5938 1.0001 1.0001 0 0 0-0.82812 0.42969l-2.1133 2.957c-1.4893-0.86924-3.2192-1.375-5.0703-1.375-1.8533 0-3.5838 0.50589-5.0742 1.377l-2.1133-2.959a1.0001 1.0001 0 0 0-0.85742-0.42969z" fill="#543937"/>
 <circle cx="27" cy="41" r="1" fill="#ea6962"/>
 <circle transform="scale(-1,1)" cx="-37" cy="41" r="1" fill="#ea6962"/>
</svg>
