<?xml version="1.0" encoding="UTF-8"?>
<svg width="64" height="64" version="1" xmlns="http://www.w3.org/2000/svg">
 <rect x="4" y="22" width="56" height="36" rx="2.8" ry="2.8" opacity=".2"/>
 <path d="m4 46.2c0 1.551 1.2488 2.8 2.8 2.8h50.4c1.551 0 2.8-1.249 2.8-2.8v-30.4c0-1.551-1.249-2.8-2.8-2.8h-25.2c-4.2 0-5.6-6-9.8-6h-15.4c-1.5512 0-2.8 1.2488-2.8 2.8" fill="#72761e"/>
 <rect x="4" y="20" width="56" height="36" rx="2.8" ry="2.8" opacity=".2"/>
 <rect x="8" y="16" width="48" height="22" rx="2.8" ry="2.8" fill="#dee2b6"/>
 <rect x="4" y="21" width="56" height="36" rx="2.8" ry="2.8" fill="#b0b846"/>
 <path d="m32 27c-6.6274 2e-6 -12 5.3726-12 12 0 6.6274 5.3726 12 12 12 6.6274 0 12-5.3726 12-12 0-6.6274-5.3726-12-12-12zm0 2c5.5228 0 10 4.4772 10 10 0 5.5228-4.4772 10-10 10-5.5228-2e-6 -10-4.4772-10-10 0-5.5228 4.4772-10 10-10z" fill="#3b4439"/>
 <path d="m6.8008 7c-1.5512 0-2.8008 1.2496-2.8008 2.8008v1.0002c0-1.5514 1.2496-2.801 2.8008-2.801h15.398c4.2 0 5.601 6 9.801 6h25.199c1.551 0 2.801 1.25 2.801 2.801v-1c0-1.551-1.25-2.801-2.801-2.801h-25.199c-4.2 0-5.601-6-9.801-6z" fill="#dee2b6" opacity=".1"/>
 <path d="m21 42 14-2 8-6" fill="none" stroke="#3b4439" stroke-width="2"/>
 <path d="m41 46-6-6" fill="none" stroke="#3b4439" stroke-width="2"/>
 <circle cx="41" cy="46" r="3" fill="#3b4439"/>
 <circle cx="43" cy="34" r="3" fill="#3b4439"/>
 <circle cx="35" cy="40" r="3" fill="#3b4439"/>
 <circle cx="21" cy="42" r="3" fill="#3b4439"/>
</svg>
